<?xml version="1.0" encoding="UTF-8" standalone="no"?>
<!DOCTYPE svg PUBLIC "-//W3C//DTD SVG 1.1//EN"
 "http://www.w3.org/Graphics/SVG/1.1/DTD/svg11.dtd">
<!-- Generated by graphviz version 2.26.3 (20100126.1600)
 -->
<!-- Title: G Pages: 1 -->
<svg width="1056pt" height="668pt"
 viewBox="0.00 0.00 1055.78 668.24" xmlns="http://www.w3.org/2000/svg" xmlns:xlink="http://www.w3.org/1999/xlink">
<g id="graph1" class="graph" transform="scale(1 1) rotate(0) translate(4 664.244)">
<title>G</title>
<polygon fill="white" stroke="white" points="-4,5 -4,-664.244 1052.78,-664.244 1052.78,5 -4,5"/>
<!-- 195.154.96.6 -->
<g id="node1" class="node"><title>195.154.96.6</title>
<ellipse fill="none" stroke="black" cx="79.5" cy="-332.259" rx="77.9889" ry="18.3848"/>
<text text-anchor="middle" x="79.5" y="-328.659" font-family="Times Roman,serif" font-size="14.00">195.154.96.6</text>
</g>
<!-- 192.168.1.1 -->
<g id="node15" class="node"><title>192.168.1.1</title>
<ellipse fill="none" stroke="black" cx="497.417" cy="-323.439" rx="72.1249" ry="18.3848"/>
<text text-anchor="middle" x="497.417" y="-319.839" font-family="Times Roman,serif" font-size="14.00">192.168.1.1</text>
</g>
<!-- 195.154.96.6&#45;&gt;192.168.1.1 -->
<g id="edge36" class="edge"><title>195.154.96.6&#45;&gt;192.168.1.1</title>
<path fill="none" stroke="black" stroke-width="0.166667" d="M157.617,-330.61C231.062,-329.06 340.593,-326.748 415.311,-325.172"/>
<polygon fill="black" stroke="black" points="415.691,-328.664 425.615,-324.954 415.544,-321.666 415.691,-328.664"/>
</g>
<!-- 162.253.66.210 -->
<g id="node2" class="node"><title>162.253.66.210</title>
<ellipse fill="none" stroke="black" cx="951.569" cy="-267.574" rx="91.2168" ry="18.3848"/>
<text text-anchor="middle" x="951.569" y="-263.974" font-family="Times Roman,serif" font-size="14.00">162.253.66.210</text>
</g>
<!-- 162.253.66.210&#45;&gt;192.168.1.1 -->
<g id="edge12" class="edge"><title>162.253.66.210&#45;&gt;192.168.1.1</title>
<path fill="none" stroke="black" stroke-width="0.166667" d="M873.498,-277.178C789.262,-287.54 656.047,-303.926 572.851,-314.16"/>
<polygon fill="black" stroke="black" points="572.207,-310.713 562.709,-315.407 573.062,-317.66 572.207,-310.713"/>
</g>
<!-- 192.168.1.25 -->
<g id="node3" class="node"><title>192.168.1.25</title>
<ellipse fill="none" stroke="black" cx="327.585" cy="-335.335" rx="77.9889" ry="18.3848"/>
<text text-anchor="middle" x="327.585" y="-331.735" font-family="Times Roman,serif" font-size="14.00">192.168.1.25</text>
</g>
<!-- 192.168.1.44 -->
<g id="node4" class="node"><title>192.168.1.44</title>
<ellipse fill="none" stroke="black" cx="910.126" cy="-499.737" rx="77.9889" ry="18.3848"/>
<text text-anchor="middle" x="910.126" y="-496.137" font-family="Times Roman,serif" font-size="14.00">192.168.1.44</text>
</g>
<!-- 192.168.1.44&#45;&gt;192.168.1.1 -->
<g id="edge48" class="edge"><title>192.168.1.44&#45;&gt;192.168.1.1</title>
<path fill="none" stroke="black" stroke-width="0.0333333" d="M872.039,-483.467C796.296,-451.112 626.966,-378.778 544.438,-343.525"/>
<polygon fill="black" stroke="black" points="545.387,-340.124 534.816,-339.414 542.637,-346.561 545.387,-340.124"/>
</g>
<!-- 94.102.60.186 -->
<g id="node5" class="node"><title>94.102.60.186</title>
<ellipse fill="none" stroke="black" cx="725.405" cy="-636.633" rx="84.8528" ry="18.3848"/>
<text text-anchor="middle" x="725.405" y="-633.033" font-family="Times Roman,serif" font-size="14.00">94.102.60.186</text>
</g>
<!-- 94.102.60.186&#45;&gt;192.168.1.1 -->
<g id="edge42" class="edge"><title>94.102.60.186&#45;&gt;192.168.1.1</title>
<path fill="none" stroke="black" stroke-width="0.166667" d="M711.826,-617.979C673.098,-564.777 561.994,-412.149 516.844,-350.125"/>
<polygon fill="black" stroke="black" points="519.64,-348.02 510.925,-341.995 513.981,-352.139 519.64,-348.02"/>
</g>
<!-- 192.168.1.40 -->
<g id="node6" class="node"><title>192.168.1.40</title>
<ellipse fill="none" stroke="black" cx="496.839" cy="-611.735" rx="77.9889" ry="18.3848"/>
<text text-anchor="middle" x="496.839" y="-608.135" font-family="Times Roman,serif" font-size="14.00">192.168.1.40</text>
</g>
<!-- 192.168.1.40&#45;&gt;192.168.1.1 -->
<g id="edge16" class="edge"><title>192.168.1.40&#45;&gt;192.168.1.1</title>
<path fill="none" stroke="black" stroke-width="0.266667" d="M496.877,-592.819C496.976,-543.524 497.242,-410.88 497.36,-352.124"/>
<polygon fill="black" stroke="black" points="500.86,-352.057 497.38,-342.049 493.86,-352.042 500.86,-352.057"/>
</g>
<!-- 192.168.1.41 -->
<g id="node7" class="node"><title>192.168.1.41</title>
<ellipse fill="none" stroke="black" cx="348.125" cy="-444.249" rx="77.9889" ry="18.3848"/>
<text text-anchor="middle" x="348.125" y="-440.649" font-family="Times Roman,serif" font-size="14.00">192.168.1.41</text>
</g>
<!-- 192.168.1.41&#45;&gt;192.168.1.1 -->
<g id="edge34" class="edge"><title>192.168.1.41&#45;&gt;192.168.1.1</title>
<path fill="none" stroke="black" stroke-width="0.266667" d="M370.154,-426.423C395.844,-405.634 438.452,-371.155 467.215,-347.879"/>
<polygon fill="black" stroke="black" points="469.726,-350.349 475.298,-341.338 465.323,-344.908 469.726,-350.349"/>
</g>
<!-- 192.168.1.42 -->
<g id="node8" class="node"><title>192.168.1.42</title>
<ellipse fill="none" stroke="black" cx="348.125" cy="-220.268" rx="77.9889" ry="18.3848"/>
<text text-anchor="middle" x="348.125" y="-216.668" font-family="Times Roman,serif" font-size="14.00">192.168.1.42</text>
</g>
<!-- 192.168.1.42&#45;&gt;192.168.1.1 -->
<g id="edge32" class="edge"><title>192.168.1.42&#45;&gt;192.168.1.1</title>
<path fill="none" stroke="black" stroke-width="0.266667" d="M373.45,-237.77C398.222,-254.889 436.111,-281.072 463.481,-299.987"/>
<polygon fill="black" stroke="black" points="461.751,-303.046 471.968,-305.851 465.731,-297.287 461.751,-303.046"/>
</g>
<!-- 192.168.1.43 -->
<g id="node9" class="node"><title>192.168.1.43</title>
<ellipse fill="none" stroke="black" cx="496.839" cy="-52.7824" rx="77.9889" ry="18.3848"/>
<text text-anchor="middle" x="496.839" y="-49.1824" font-family="Times Roman,serif" font-size="14.00">192.168.1.43</text>
</g>
<!-- 192.168.1.43&#45;&gt;192.168.1.1 -->
<g id="edge50" class="edge"><title>192.168.1.43&#45;&gt;192.168.1.1</title>
<path fill="none" stroke="black" stroke-width="0.266667" d="M496.879,-71.3857C496.978,-117.74 497.236,-238.658 497.355,-294.455"/>
<polygon fill="black" stroke="black" points="493.856,-294.713 497.377,-304.705 500.856,-294.698 493.856,-294.713"/>
</g>
<!-- 93.180.5.26 -->
<g id="node10" class="node"><title>93.180.5.26</title>
<ellipse fill="none" stroke="black" cx="713.056" cy="-24.8039" rx="72.1249" ry="18.3848"/>
<text text-anchor="middle" x="713.056" y="-21.2039" font-family="Times Roman,serif" font-size="14.00">93.180.5.26</text>
</g>
<!-- 93.180.5.26&#45;&gt;192.168.1.1 -->
<g id="edge22" class="edge"><title>93.180.5.26&#45;&gt;192.168.1.1</title>
<path fill="none" stroke="black" stroke-width="0.166667" d="M699.892,-43.0353C663.199,-93.8503 559.656,-237.245 516.585,-296.894"/>
<polygon fill="black" stroke="black" points="513.7,-294.91 510.684,-305.066 519.375,-299.008 513.7,-294.91"/>
</g>
<!-- 198.20.69.98 -->
<g id="node11" class="node"><title>198.20.69.98</title>
<ellipse fill="none" stroke="black" cx="895.752" cy="-143.78" rx="77.9889" ry="18.3848"/>
<text text-anchor="middle" x="895.752" y="-140.18" font-family="Times Roman,serif" font-size="14.00">198.20.69.98</text>
</g>
<!-- 198.20.69.98&#45;&gt;192.168.1.1 -->
<g id="edge6" class="edge"><title>198.20.69.98&#45;&gt;192.168.1.1</title>
<path fill="none" stroke="black" stroke-width="0.0333333" d="M859.346,-160.199C786.355,-193.121 622.305,-267.111 542.598,-303.061"/>
<polygon fill="black" stroke="black" points="540.984,-299.949 533.307,-307.251 543.862,-306.33 540.984,-299.949"/>
</g>
<!-- 179.43.141.195 -->
<g id="node12" class="node"><title>179.43.141.195</title>
<ellipse fill="none" stroke="black" cx="955.78" cy="-371.845" rx="91.2168" ry="18.3848"/>
<text text-anchor="middle" x="955.78" y="-368.245" font-family="Times Roman,serif" font-size="14.00">179.43.141.195</text>
</g>
<!-- 179.43.141.195&#45;&gt;192.168.1.1 -->
<g id="edge46" class="edge"><title>179.43.141.195&#45;&gt;192.168.1.1</title>
<path fill="none" stroke="black" stroke-width="0.0333333" d="M874.889,-363.302C790.019,-354.339 657.602,-340.355 574.276,-331.555"/>
<polygon fill="black" stroke="black" points="574.426,-328.052 564.113,-330.482 573.69,-335.013 574.426,-328.052"/>
</g>
<!-- 184.105.139.121 -->
<g id="node13" class="node"><title>184.105.139.121</title>
<ellipse fill="none" stroke="black" cx="825.622" cy="-589.296" rx="97.0803" ry="18.3848"/>
<text text-anchor="middle" x="825.622" y="-585.696" font-family="Times Roman,serif" font-size="14.00">184.105.139.121</text>
</g>
<!-- 184.105.139.121&#45;&gt;192.168.1.1 -->
<g id="edge38" class="edge"><title>184.105.139.121&#45;&gt;192.168.1.1</title>
<path fill="none" stroke="black" stroke-width="0.0333333" d="M803.321,-571.231C745.763,-524.607 592.182,-400.202 527.16,-347.531"/>
<polygon fill="black" stroke="black" points="529.291,-344.753 519.318,-341.179 524.885,-350.193 529.291,-344.753"/>
</g>
<!-- 195.154.93.145 -->
<g id="node14" class="node"><title>195.154.93.145</title>
<ellipse fill="none" stroke="black" cx="577.47" cy="-640.744" rx="91.2168" ry="18.3848"/>
<text text-anchor="middle" x="577.47" y="-637.144" font-family="Times Roman,serif" font-size="14.00">195.154.93.145</text>
</g>
<!-- 195.154.93.145&#45;&gt;192.168.1.1 -->
<g id="edge20" class="edge"><title>195.154.93.145&#45;&gt;192.168.1.1</title>
<path fill="none" stroke="black" stroke-width="0.166667" d="M572.702,-621.845C559.215,-568.386 520.728,-415.837 504.632,-352.036"/>
<polygon fill="black" stroke="black" points="508,-351.078 502.16,-342.238 501.213,-352.791 508,-351.078"/>
</g>
<!-- 192.168.1.1&#45;&gt;192.168.1.25 -->
<g id="edge10" class="edge"><title>192.168.1.1&#45;&gt;192.168.1.25</title>
<path fill="none" stroke="black" stroke-width="1.4" d="M427.85,-328.312C422.9,-328.658 417.879,-329.01 412.856,-329.362"/>
<polygon fill="black" stroke="black" points="412.296,-325.892 402.565,-330.083 412.785,-332.875 412.296,-325.892"/>
</g>
<!-- 192.168.1.33 -->
<g id="node17" class="node"><title>192.168.1.33</title>
<ellipse fill="none" stroke="black" cx="634.102" cy="-477.763" rx="77.9889" ry="18.3848"/>
<text text-anchor="middle" x="634.102" y="-474.163" font-family="Times Roman,serif" font-size="14.00">192.168.1.33</text>
</g>
<!-- 192.168.1.1&#45;&gt;192.168.1.33 -->
<g id="edge30" class="edge"><title>192.168.1.1&#45;&gt;192.168.1.33</title>
<path fill="none" stroke="black" stroke-width="1.26667" d="M508.075,-341.92C528.703,-369.535 574.103,-421.36 604.466,-452.451"/>
<polygon fill="black" stroke="black" points="602.31,-455.247 611.837,-459.882 607.279,-450.317 602.31,-455.247"/>
</g>
<!-- 192.168.1.35 -->
<g id="node18" class="node"><title>192.168.1.35</title>
<ellipse fill="none" stroke="black" cx="405.08" cy="-125.188" rx="77.9889" ry="18.3848"/>
<text text-anchor="middle" x="405.08" y="-121.588" font-family="Times Roman,serif" font-size="14.00">192.168.1.35</text>
</g>
<!-- 192.168.1.1&#45;&gt;192.168.1.35 -->
<g id="edge52" class="edge"><title>192.168.1.1&#45;&gt;192.168.1.35</title>
<path fill="none" stroke="black" stroke-width="0.333333" d="M493.152,-304.856C480.435,-269.655 445.214,-193.265 423.188,-152.331"/>
<polygon fill="black" stroke="black" points="426.186,-150.52 418.297,-143.447 420.053,-153.895 426.186,-150.52"/>
</g>
<!-- 192.168.1.34 -->
<g id="node19" class="node"><title>192.168.1.34</title>
<ellipse fill="none" stroke="black" cx="651.742" cy="-186.754" rx="77.9889" ry="18.3848"/>
<text text-anchor="middle" x="651.742" y="-183.154" font-family="Times Roman,serif" font-size="14.00">192.168.1.34</text>
</g>
<!-- 192.168.1.1&#45;&gt;192.168.1.34 -->
<g id="edge4" class="edge"><title>192.168.1.1&#45;&gt;192.168.1.34</title>
<path fill="none" stroke="black" stroke-width="1.2" d="M517.593,-305.57C544.743,-281.523 593.16,-238.64 623.801,-211.501"/>
<polygon fill="black" stroke="black" points="626.396,-213.878 631.562,-204.627 621.755,-208.638 626.396,-213.878"/>
</g>
<!-- 192.168.1.39 -->
<g id="node22" class="node"><title>192.168.1.39</title>
<ellipse fill="none" stroke="black" cx="602.558" cy="-19.5" rx="77.9889" ry="18.3848"/>
<text text-anchor="middle" x="602.558" y="-15.9" font-family="Times Roman,serif" font-size="14.00">192.168.1.39</text>
</g>
<!-- 192.168.1.1&#45;&gt;192.168.1.39 -->
<g id="edge8" class="edge"><title>192.168.1.1&#45;&gt;192.168.1.39</title>
<path fill="none" stroke="black" stroke-width="0.0333333" d="M503.836,-304.884C521.58,-253.59 571.386,-109.611 592.69,-48.0257"/>
<polygon fill="black" stroke="black" points="596.128,-48.7933 596.089,-38.1985 589.512,-46.5048 596.128,-48.7933"/>
</g>
<!-- 192.168.1.38 -->
<g id="node23" class="node"><title>192.168.1.38</title>
<ellipse fill="none" stroke="black" cx="820.398" cy="-71.5872" rx="77.9889" ry="18.3848"/>
<text text-anchor="middle" x="820.398" y="-67.9872" font-family="Times Roman,serif" font-size="14.00">192.168.1.38</text>
</g>
<!-- 192.168.1.1&#45;&gt;192.168.1.38 -->
<g id="edge24" class="edge"><title>192.168.1.1&#45;&gt;192.168.1.38</title>
<path fill="none" stroke="black" stroke-width="0.0666667" d="M525.687,-306.312C587.921,-262.591 735.701,-147.404 795.101,-96.376"/>
<polygon fill="black" stroke="black" points="797.627,-98.8178 802.878,-89.6156 793.035,-93.5348 797.627,-98.8178"/>
</g>
<!-- 0.0.0.0 -->
<g id="node16" class="node"><title>0.0.0.0</title>
<ellipse fill="none" stroke="black" cx="788.427" cy="-341.078" rx="46.1672" ry="18.3848"/>
<text text-anchor="middle" x="788.427" y="-337.478" font-family="Times Roman,serif" font-size="14.00">0.0.0.0</text>
</g>
<!-- 192.168.1.33&#45;&gt;192.168.1.1 -->
<g id="edge26" class="edge"><title>192.168.1.33&#45;&gt;192.168.1.1</title>
<path fill="none" stroke="black" stroke-width="2.76667" d="M623.445,-459.282C602.816,-431.667 557.416,-379.842 527.053,-348.751"/>
<polygon fill="black" stroke="black" points="529.21,-345.955 519.682,-341.32 524.24,-350.885 529.21,-345.955"/>
</g>
<!-- 192.168.1.33&#45;&gt;0.0.0.0 -->
<g id="edge14" class="edge"><title>192.168.1.33&#45;&gt;0.0.0.0</title>
<path fill="none" stroke="black" stroke-width="0.866667" d="M654.595,-459.613C682.142,-435.214 731.165,-391.795 761.616,-364.824"/>
<polygon fill="black" stroke="black" points="764.141,-367.264 769.306,-358.013 759.5,-362.023 764.141,-367.264"/>
</g>
<!-- 192.168.1.33&#45;&gt;192.168.1.33 -->
<g id="edge54" class="edge"><title>192.168.1.33&#45;&gt;192.168.1.33</title>
<path fill="none" stroke="black" stroke-width="0.266667" d="M707.351,-484.142C720.723,-483.335 730.102,-481.209 730.102,-477.763 730.102,-475.26 725.151,-473.453 717.315,-472.342"/>
<polygon fill="black" stroke="black" points="717.64,-468.857 707.351,-471.384 716.97,-475.825 717.64,-468.857"/>
</g>
<!-- 192.168.1.35&#45;&gt;192.168.1.1 -->
<g id="edge28" class="edge"><title>192.168.1.35&#45;&gt;192.168.1.1</title>
<path fill="none" stroke="black" stroke-width="5.8" d="M409.345,-143.771C422.062,-178.971 457.284,-255.362 479.31,-296.296"/>
<polygon fill="black" stroke="black" points="474.932,-298.866 484.2,-305.179 483.824,-293.972 474.932,-298.866"/>
</g>
<!-- 192.168.1.34&#45;&gt;0.0.0.0 -->
<g id="edge40" class="edge"><title>192.168.1.34&#45;&gt;0.0.0.0</title>
<path fill="none" stroke="black" stroke-width="0.2" d="M667.958,-205.063C692.236,-232.474 738.122,-284.282 765.721,-315.442"/>
<polygon fill="black" stroke="black" points="763.403,-318.104 772.653,-323.269 768.643,-313.463 763.403,-318.104"/>
</g>
<!-- 192.168.1.34&#45;&gt;192.168.1.34 -->
<g id="edge44" class="edge"><title>192.168.1.34&#45;&gt;192.168.1.34</title>
<path fill="none" stroke="black" stroke-width="0.0666667" d="M724.991,-193.133C738.363,-192.326 747.742,-190.199 747.742,-186.754 747.742,-184.251 742.791,-182.444 734.954,-181.333"/>
<polygon fill="black" stroke="black" points="735.28,-177.848 724.991,-180.375 734.61,-184.816 735.28,-177.848"/>
</g>
<!-- 192.168.1.37 -->
<g id="node20" class="node"><title>192.168.1.37</title>
<ellipse fill="none" stroke="black" cx="381.81" cy="-509.085" rx="77.9889" ry="18.3848"/>
<text text-anchor="middle" x="381.81" y="-505.485" font-family="Times Roman,serif" font-size="14.00">192.168.1.37</text>
</g>
<!-- 192.168.1.37&#45;&gt;192.168.1.1 -->
<g id="edge2" class="edge"><title>192.168.1.37&#45;&gt;192.168.1.1</title>
<path fill="none" stroke="black" stroke-width="0.3" d="M393.317,-490.606C413.832,-457.662 456.8,-388.664 480.619,-350.415"/>
<polygon fill="black" stroke="black" points="483.641,-352.182 485.956,-341.843 477.699,-348.482 483.641,-352.182"/>
</g>
<!-- 192.168.1.36 -->
<g id="node21" class="node"><title>192.168.1.36</title>
<ellipse fill="none" stroke="black" cx="330.265" cy="-291.116" rx="77.9889" ry="18.3848"/>
<text text-anchor="middle" x="330.265" y="-287.516" font-family="Times Roman,serif" font-size="14.00">192.168.1.36</text>
</g>
<!-- 192.168.1.36&#45;&gt;192.168.1.1 -->
<g id="edge56" class="edge"><title>192.168.1.36&#45;&gt;192.168.1.1</title>
<path fill="none" stroke="black" stroke-width="0.3" d="M391.084,-302.877C403.605,-305.298 416.864,-307.862 429.615,-310.328"/>
<polygon fill="black" stroke="black" points="429.226,-313.817 439.708,-312.279 430.555,-306.944 429.226,-313.817"/>
</g>
<!-- 192.168.1.38&#45;&gt;192.168.1.1 -->
<g id="edge18" class="edge"><title>192.168.1.38&#45;&gt;192.168.1.1</title>
<path fill="none" stroke="black" stroke-width="0.266667" d="M791.846,-88.9126C729.427,-132.798 581.926,-247.775 522.655,-298.7"/>
<polygon fill="black" stroke="black" points="520.146,-296.244 514.895,-305.447 524.738,-301.527 520.146,-296.244"/>
</g>
</g>
</svg>
