<?xml version="1.0" encoding="UTF-8" standalone="no"?>
<!DOCTYPE svg PUBLIC "-//W3C//DTD SVG 1.1//EN"
 "http://www.w3.org/Graphics/SVG/1.1/DTD/svg11.dtd">
<!-- Generated by graphviz version 2.38.0 (20140413.2041)
 -->
<!-- Title: G Pages: 1 -->
<svg width="2479pt" height="305pt"
 viewBox="0.00 0.00 2479.44 305.00" xmlns="http://www.w3.org/2000/svg" xmlns:xlink="http://www.w3.org/1999/xlink">
<g id="graph0" class="graph" transform="scale(1 1) rotate(0) translate(4 301)">
<title>G</title>
<polygon fill="white" stroke="none" points="-4,4 -4,-301 2475.44,-301 2475.44,4 -4,4"/>
<!-- 0.0.0.0 -->
<g id="node1" class="node"><title>0.0.0.0</title>
<ellipse fill="none" stroke="black" cx="1050.49" cy="-279" rx="37.8943" ry="18"/>
<text text-anchor="middle" x="1050.49" y="-275.3" font-family="Times,serif" font-size="14.00">0.0.0.0</text>
</g>
<!-- 192.168.1.33 -->
<g id="node7" class="node"><title>192.168.1.33</title>
<ellipse fill="none" stroke="black" cx="951.494" cy="-192" rx="61.99" ry="18"/>
<text text-anchor="middle" x="951.494" y="-188.3" font-family="Times,serif" font-size="14.00">192.168.1.33</text>
</g>
<!-- 0.0.0.0&#45;&gt;192.168.1.33 -->
<g id="edge9" class="edge"><title>0.0.0.0&#45;&gt;192.168.1.33</title>
<path fill="none" stroke="black" d="M1032.79,-262.804C1017.55,-249.718 995.338,-230.644 977.979,-215.74"/>
<polygon fill="black" stroke="black" points="980.255,-213.081 970.388,-209.222 975.695,-218.392 980.255,-213.081"/>
<text text-anchor="middle" x="1015.49" y="-231.8" font-family="Times,serif" font-size="14.00">26</text>
</g>
<!-- 192.168.1.34 -->
<g id="node8" class="node"><title>192.168.1.34</title>
<ellipse fill="none" stroke="black" cx="1118.49" cy="-192" rx="61.99" ry="18"/>
<text text-anchor="middle" x="1118.49" y="-188.3" font-family="Times,serif" font-size="14.00">192.168.1.34</text>
</g>
<!-- 0.0.0.0&#45;&gt;192.168.1.34 -->
<g id="edge22" class="edge"><title>0.0.0.0&#45;&gt;192.168.1.34</title>
<path fill="none" stroke="black" d="M1063.28,-262.012C1073.25,-249.55 1087.27,-232.024 1098.69,-217.752"/>
<polygon fill="black" stroke="black" points="1101.55,-219.784 1105.06,-209.789 1096.08,-215.411 1101.55,-219.784"/>
<text text-anchor="middle" x="1093.49" y="-231.8" font-family="Times,serif" font-size="14.00">6</text>
</g>
<!-- 162.253.66.210 -->
<g id="node2" class="node"><title>162.253.66.210</title>
<ellipse fill="none" stroke="black" cx="71.4937" cy="-18" rx="71.4873" ry="18"/>
<text text-anchor="middle" x="71.4937" y="-14.3" font-family="Times,serif" font-size="14.00">162.253.66.210</text>
</g>
<!-- 179.43.141.195 -->
<g id="node3" class="node"><title>179.43.141.195</title>
<ellipse fill="none" stroke="black" cx="232.494" cy="-18" rx="71.4873" ry="18"/>
<text text-anchor="middle" x="232.494" y="-14.3" font-family="Times,serif" font-size="14.00">179.43.141.195</text>
</g>
<!-- 184.105.139.121 -->
<g id="node4" class="node"><title>184.105.139.121</title>
<ellipse fill="none" stroke="black" cx="398.494" cy="-18" rx="76.8869" ry="18"/>
<text text-anchor="middle" x="398.494" y="-14.3" font-family="Times,serif" font-size="14.00">184.105.139.121</text>
</g>
<!-- 192.168.1.1 -->
<g id="node5" class="node"><title>192.168.1.1</title>
<ellipse fill="none" stroke="black" cx="1118.49" cy="-105" rx="57.3905" ry="18"/>
<text text-anchor="middle" x="1118.49" y="-101.3" font-family="Times,serif" font-size="14.00">192.168.1.1</text>
</g>
<!-- 192.168.1.1&#45;&gt;162.253.66.210 -->
<g id="edge13" class="edge"><title>192.168.1.1&#45;&gt;162.253.66.210</title>
<path fill="none" stroke="black" d="M1061.71,-102.737C941.049,-99.7174 650.305,-90.6532 407.494,-69 293.667,-58.8493 265.167,-55.0844 152.494,-36 146.265,-34.9449 139.786,-33.7508 133.327,-32.4965"/>
<polygon fill="black" stroke="black" points="133.723,-29.0068 123.232,-30.4873 132.356,-35.8721 133.723,-29.0068"/>
<text text-anchor="middle" x="411.494" y="-57.8" font-family="Times,serif" font-size="14.00">5</text>
</g>
<!-- 192.168.1.1&#45;&gt;179.43.141.195 -->
<g id="edge14" class="edge"><title>192.168.1.1&#45;&gt;179.43.141.195</title>
<path fill="none" stroke="black" d="M1061.86,-102.116C958.329,-98.3282 731.684,-88.4386 541.494,-69 439.197,-58.5448 413.73,-54.0302 312.494,-36 306.439,-34.9217 300.143,-33.7216 293.861,-32.4718"/>
<polygon fill="black" stroke="black" points="294.533,-29.037 284.037,-30.4774 293.141,-35.8971 294.533,-29.037"/>
<text text-anchor="middle" x="545.494" y="-57.8" font-family="Times,serif" font-size="14.00">1</text>
</g>
<!-- 192.168.1.1&#45;&gt;184.105.139.121 -->
<g id="edge12" class="edge"><title>192.168.1.1&#45;&gt;184.105.139.121</title>
<path fill="none" stroke="black" d="M1061.83,-102.274C971.924,-98.9931 791.235,-90.1907 639.494,-69 577.66,-60.3649 507.905,-45.2997 459.412,-33.9569"/>
<polygon fill="black" stroke="black" points="459.934,-30.484 449.398,-31.5966 458.328,-37.2973 459.934,-30.484"/>
<text text-anchor="middle" x="643.494" y="-57.8" font-family="Times,serif" font-size="14.00">1</text>
</g>
<!-- 192.168.1.1&#45;&gt;192.168.1.33 -->
<g id="edge15" class="edge"><title>192.168.1.1&#45;&gt;192.168.1.33</title>
<path fill="none" stroke="black" d="M1089.6,-120.708C1062.04,-134.733 1020.36,-155.948 989.997,-171.403"/>
<polygon fill="black" stroke="black" points="988.29,-168.344 980.965,-175.999 991.465,-174.582 988.29,-168.344"/>
<text text-anchor="middle" x="1053.49" y="-144.8" font-family="Times,serif" font-size="14.00">83</text>
</g>
<!-- 192.168.1.35 -->
<g id="node9" class="node"><title>192.168.1.35</title>
<ellipse fill="none" stroke="black" cx="554.494" cy="-18" rx="61.99" ry="18"/>
<text text-anchor="middle" x="554.494" y="-14.3" font-family="Times,serif" font-size="14.00">192.168.1.35</text>
</g>
<!-- 192.168.1.1&#45;&gt;192.168.1.35 -->
<g id="edge27" class="edge"><title>192.168.1.1&#45;&gt;192.168.1.35</title>
<path fill="none" stroke="black" d="M1061.44,-103.387C981.202,-101.573 830.795,-94.6809 705.494,-69 668.671,-61.4532 628.318,-47.7967 598.598,-36.6609"/>
<polygon fill="black" stroke="black" points="599.538,-33.2741 588.947,-32.9935 597.052,-39.8176 599.538,-33.2741"/>
<text text-anchor="middle" x="716.994" y="-57.8" font-family="Times,serif" font-size="14.00">174</text>
</g>
<!-- 192.168.1.36 -->
<g id="node10" class="node"><title>192.168.1.36</title>
<ellipse fill="none" stroke="black" cx="695.494" cy="-18" rx="61.99" ry="18"/>
<text text-anchor="middle" x="695.494" y="-14.3" font-family="Times,serif" font-size="14.00">192.168.1.36</text>
</g>
<!-- 192.168.1.1&#45;&gt;192.168.1.36 -->
<g id="edge20" class="edge"><title>192.168.1.1&#45;&gt;192.168.1.36</title>
<path fill="none" stroke="black" d="M1069.81,-95.3843C1001.58,-83.1373 873.741,-59.5561 765.494,-36 760.579,-34.9305 755.481,-33.7774 750.378,-32.5935"/>
<polygon fill="black" stroke="black" points="751.143,-29.1779 740.607,-30.2924 749.538,-35.9915 751.143,-29.1779"/>
<text text-anchor="middle" x="924.494" y="-57.8" font-family="Times,serif" font-size="14.00">9</text>
</g>
<!-- 192.168.1.37 -->
<g id="node11" class="node"><title>192.168.1.37</title>
<ellipse fill="none" stroke="black" cx="836.494" cy="-18" rx="61.99" ry="18"/>
<text text-anchor="middle" x="836.494" y="-14.3" font-family="Times,serif" font-size="14.00">192.168.1.37</text>
</g>
<!-- 192.168.1.1&#45;&gt;192.168.1.37 -->
<g id="edge18" class="edge"><title>192.168.1.1&#45;&gt;192.168.1.37</title>
<path fill="none" stroke="black" d="M1077.62,-92.2506C1054.4,-85.5302 1024.79,-76.8916 998.494,-69 960.937,-57.7279 918.598,-44.6475 886.625,-34.6932"/>
<polygon fill="black" stroke="black" points="887.641,-31.3436 877.052,-31.7098 885.558,-38.0266 887.641,-31.3436"/>
<text text-anchor="middle" x="1002.49" y="-57.8" font-family="Times,serif" font-size="14.00">9</text>
</g>
<!-- 192.168.1.38 -->
<g id="node12" class="node"><title>192.168.1.38</title>
<ellipse fill="none" stroke="black" cx="977.494" cy="-18" rx="61.99" ry="18"/>
<text text-anchor="middle" x="977.494" y="-14.3" font-family="Times,serif" font-size="14.00">192.168.1.38</text>
</g>
<!-- 192.168.1.1&#45;&gt;192.168.1.38 -->
<g id="edge7" class="edge"><title>192.168.1.1&#45;&gt;192.168.1.38</title>
<path fill="none" stroke="black" d="M1077.84,-92.1188C1061.76,-86.4389 1043.57,-78.7284 1028.49,-69 1017.42,-61.8552 1006.76,-52.0283 998.068,-42.9764"/>
<polygon fill="black" stroke="black" points="1000.63,-40.5907 991.267,-35.6309 995.493,-45.3465 1000.63,-40.5907"/>
<text text-anchor="middle" x="1032.49" y="-57.8" font-family="Times,serif" font-size="14.00">8</text>
</g>
<!-- 192.168.1.40 -->
<g id="node14" class="node"><title>192.168.1.40</title>
<ellipse fill="none" stroke="black" cx="1118.49" cy="-18" rx="61.99" ry="18"/>
<text text-anchor="middle" x="1118.49" y="-14.3" font-family="Times,serif" font-size="14.00">192.168.1.40</text>
</g>
<!-- 192.168.1.1&#45;&gt;192.168.1.40 -->
<g id="edge1" class="edge"><title>192.168.1.1&#45;&gt;192.168.1.40</title>
<path fill="none" stroke="black" d="M1118.49,-86.799C1118.49,-75.1626 1118.49,-59.5479 1118.49,-46.2368"/>
<polygon fill="black" stroke="black" points="1121.99,-46.1754 1118.49,-36.1754 1114.99,-46.1755 1121.99,-46.1754"/>
<text text-anchor="middle" x="1122.49" y="-57.8" font-family="Times,serif" font-size="14.00">8</text>
</g>
<!-- 192.168.1.41 -->
<g id="node15" class="node"><title>192.168.1.41</title>
<ellipse fill="none" stroke="black" cx="1259.49" cy="-18" rx="61.99" ry="18"/>
<text text-anchor="middle" x="1259.49" y="-14.3" font-family="Times,serif" font-size="14.00">192.168.1.41</text>
</g>
<!-- 192.168.1.1&#45;&gt;192.168.1.41 -->
<g id="edge5" class="edge"><title>192.168.1.1&#45;&gt;192.168.1.41</title>
<path fill="none" stroke="black" d="M1143.7,-88.8037C1166.28,-75.1944 1199.6,-55.1075 1224.71,-39.9712"/>
<polygon fill="black" stroke="black" points="1226.79,-42.8001 1233.55,-34.6398 1223.18,-36.8052 1226.79,-42.8001"/>
<text text-anchor="middle" x="1201.49" y="-57.8" font-family="Times,serif" font-size="14.00">8</text>
</g>
<!-- 192.168.1.42 -->
<g id="node16" class="node"><title>192.168.1.42</title>
<ellipse fill="none" stroke="black" cx="1400.49" cy="-18" rx="61.99" ry="18"/>
<text text-anchor="middle" x="1400.49" y="-14.3" font-family="Times,serif" font-size="14.00">192.168.1.42</text>
</g>
<!-- 192.168.1.1&#45;&gt;192.168.1.42 -->
<g id="edge17" class="edge"><title>192.168.1.1&#45;&gt;192.168.1.42</title>
<path fill="none" stroke="black" d="M1158.3,-92.0019C1208.32,-76.9235 1294.27,-51.019 1349.18,-34.467"/>
<polygon fill="black" stroke="black" points="1350.49,-37.727 1359.06,-31.49 1348.47,-31.0249 1350.49,-37.727"/>
<text text-anchor="middle" x="1280.49" y="-57.8" font-family="Times,serif" font-size="14.00">8</text>
</g>
<!-- 192.168.1.43 -->
<g id="node17" class="node"><title>192.168.1.43</title>
<ellipse fill="none" stroke="black" cx="1541.49" cy="-18" rx="61.99" ry="18"/>
<text text-anchor="middle" x="1541.49" y="-14.3" font-family="Times,serif" font-size="14.00">192.168.1.43</text>
</g>
<!-- 192.168.1.1&#45;&gt;192.168.1.43 -->
<g id="edge24" class="edge"><title>192.168.1.1&#45;&gt;192.168.1.43</title>
<path fill="none" stroke="black" d="M1167.18,-95.3843C1235.4,-83.1373 1363.25,-59.5561 1471.49,-36 1476.41,-34.9305 1481.51,-33.7774 1486.61,-32.5935"/>
<polygon fill="black" stroke="black" points="1487.45,-35.9915 1496.38,-30.2924 1485.84,-29.1779 1487.45,-35.9915"/>
<text text-anchor="middle" x="1389.49" y="-57.8" font-family="Times,serif" font-size="14.00">8</text>
</g>
<!-- 192.168.1.44 -->
<g id="node18" class="node"><title>192.168.1.44</title>
<ellipse fill="none" stroke="black" cx="1682.49" cy="-18" rx="61.99" ry="18"/>
<text text-anchor="middle" x="1682.49" y="-14.3" font-family="Times,serif" font-size="14.00">192.168.1.44</text>
</g>
<!-- 192.168.1.1&#45;&gt;192.168.1.44 -->
<g id="edge3" class="edge"><title>192.168.1.1&#45;&gt;192.168.1.44</title>
<path fill="none" stroke="black" d="M1172.2,-98.689C1263.29,-89.2169 1453.68,-67.4123 1612.49,-36 1617.5,-35.0093 1622.69,-33.9021 1627.88,-32.741"/>
<polygon fill="black" stroke="black" points="1628.85,-36.1105 1637.81,-30.4577 1627.28,-29.2886 1628.85,-36.1105"/>
<text text-anchor="middle" x="1509.49" y="-57.8" font-family="Times,serif" font-size="14.00">1</text>
</g>
<!-- 195.154.93.145 -->
<g id="node19" class="node"><title>195.154.93.145</title>
<ellipse fill="none" stroke="black" cx="1833.49" cy="-18" rx="71.4873" ry="18"/>
<text text-anchor="middle" x="1833.49" y="-14.3" font-family="Times,serif" font-size="14.00">195.154.93.145</text>
</g>
<!-- 192.168.1.1&#45;&gt;195.154.93.145 -->
<g id="edge4" class="edge"><title>192.168.1.1&#45;&gt;195.154.93.145</title>
<path fill="none" stroke="black" d="M1174.06,-100.582C1284.9,-93.2064 1541.11,-73.3673 1753.49,-36 1759.55,-34.9343 1765.85,-33.7427 1772.13,-32.4981"/>
<polygon fill="black" stroke="black" points="1772.85,-35.9238 1781.96,-30.5093 1771.46,-29.0629 1772.85,-35.9238"/>
<text text-anchor="middle" x="1637.49" y="-57.8" font-family="Times,serif" font-size="14.00">5</text>
</g>
<!-- 195.154.96.6 -->
<g id="node20" class="node"><title>195.154.96.6</title>
<ellipse fill="none" stroke="black" cx="1984.49" cy="-18" rx="61.99" ry="18"/>
<text text-anchor="middle" x="1984.49" y="-14.3" font-family="Times,serif" font-size="14.00">195.154.96.6</text>
</g>
<!-- 192.168.1.1&#45;&gt;195.154.96.6 -->
<g id="edge11" class="edge"><title>192.168.1.1&#45;&gt;195.154.96.6</title>
<path fill="none" stroke="black" d="M1175.36,-102.775C1306.5,-99.1596 1639.84,-85.4481 1913.49,-36 1918.87,-35.0281 1924.45,-33.9012 1930.02,-32.6991"/>
<polygon fill="black" stroke="black" points="1930.97,-36.0724 1939.96,-30.4714 1929.44,-29.2417 1930.97,-36.0724"/>
<text text-anchor="middle" x="1789.49" y="-57.8" font-family="Times,serif" font-size="14.00">5</text>
</g>
<!-- 198.20.69.98 -->
<g id="node21" class="node"><title>198.20.69.98</title>
<ellipse fill="none" stroke="black" cx="2125.49" cy="-18" rx="61.99" ry="18"/>
<text text-anchor="middle" x="2125.49" y="-14.3" font-family="Times,serif" font-size="14.00">198.20.69.98</text>
</g>
<!-- 192.168.1.1&#45;&gt;198.20.69.98 -->
<g id="edge26" class="edge"><title>192.168.1.1&#45;&gt;198.20.69.98</title>
<path fill="none" stroke="black" d="M1175.38,-102.523C1292.16,-99.1698 1567.36,-89.6197 1797.49,-69 1912.63,-58.6838 1941.82,-57.0064 2055.49,-36 2060.51,-35.0722 2065.71,-34.0079 2070.91,-32.8743"/>
<polygon fill="black" stroke="black" points="2071.86,-36.2474 2080.84,-30.6265 2070.32,-29.4201 2071.86,-36.2474"/>
<text text-anchor="middle" x="1947.49" y="-57.8" font-family="Times,serif" font-size="14.00">1</text>
</g>
<!-- 93.180.5.26 -->
<g id="node22" class="node"><title>93.180.5.26</title>
<ellipse fill="none" stroke="black" cx="2262.49" cy="-18" rx="57.3905" ry="18"/>
<text text-anchor="middle" x="2262.49" y="-14.3" font-family="Times,serif" font-size="14.00">93.180.5.26</text>
</g>
<!-- 192.168.1.1&#45;&gt;93.180.5.26 -->
<g id="edge23" class="edge"><title>192.168.1.1&#45;&gt;93.180.5.26</title>
<path fill="none" stroke="black" d="M1175.7,-103.465C1311.34,-101.792 1663.05,-95.0781 1955.49,-69 2063.18,-59.3976 2090.41,-56.8516 2196.49,-36 2201.25,-35.065 2206.17,-33.9939 2211.09,-32.8542"/>
<polygon fill="black" stroke="black" points="2212.21,-36.184 2221.12,-30.4401 2210.58,-29.3785 2212.21,-36.184"/>
<text text-anchor="middle" x="2096.49" y="-57.8" font-family="Times,serif" font-size="14.00">5</text>
</g>
<!-- 94.102.60.186 -->
<g id="node23" class="node"><title>94.102.60.186</title>
<ellipse fill="none" stroke="black" cx="2404.49" cy="-18" rx="66.8882" ry="18"/>
<text text-anchor="middle" x="2404.49" y="-14.3" font-family="Times,serif" font-size="14.00">94.102.60.186</text>
</g>
<!-- 192.168.1.1&#45;&gt;94.102.60.186 -->
<g id="edge19" class="edge"><title>192.168.1.1&#45;&gt;94.102.60.186</title>
<path fill="none" stroke="black" d="M1175.87,-104.181C1327.74,-104.179 1752.67,-101.061 2104.49,-69 2204.71,-59.8678 2229.55,-54.3291 2328.49,-36 2334.2,-34.943 2340.13,-33.7625 2346.05,-32.5297"/>
<polygon fill="black" stroke="black" points="2346.9,-35.9263 2355.95,-30.4182 2345.44,-29.0801 2346.9,-35.9263"/>
<text text-anchor="middle" x="2231.49" y="-57.8" font-family="Times,serif" font-size="14.00">5</text>
</g>
<!-- 192.168.1.25 -->
<g id="node6" class="node"><title>192.168.1.25</title>
<ellipse fill="none" stroke="black" cx="1285.49" cy="-192" rx="61.99" ry="18"/>
<text text-anchor="middle" x="1285.49" y="-188.3" font-family="Times,serif" font-size="14.00">192.168.1.25</text>
</g>
<!-- 192.168.1.25&#45;&gt;192.168.1.1 -->
<g id="edge16" class="edge"><title>192.168.1.25&#45;&gt;192.168.1.1</title>
<path fill="none" stroke="black" d="M1256.02,-175.999C1228.27,-161.876 1186.57,-140.651 1156.37,-125.277"/>
<polygon fill="black" stroke="black" points="1157.89,-122.125 1147.39,-120.708 1154.72,-128.364 1157.89,-122.125"/>
<text text-anchor="middle" x="1220.49" y="-144.8" font-family="Times,serif" font-size="14.00">42</text>
</g>
<!-- 192.168.1.33&#45;&gt;192.168.1.1 -->
<g id="edge8" class="edge"><title>192.168.1.33&#45;&gt;192.168.1.1</title>
<path fill="none" stroke="black" d="M963.349,-173.907C971.724,-163.027 983.854,-149.444 997.494,-141 1016.03,-129.526 1038.48,-121.68 1058.98,-116.378"/>
<polygon fill="black" stroke="black" points="1059.97,-119.738 1068.86,-113.974 1058.32,-112.936 1059.97,-119.738"/>
<text text-anchor="middle" x="1005.49" y="-144.8" font-family="Times,serif" font-size="14.00">38</text>
</g>
<!-- 192.168.1.33&#45;&gt;192.168.1.33 -->
<g id="edge28" class="edge"><title>192.168.1.33&#45;&gt;192.168.1.33</title>
<path fill="none" stroke="black" d="M1007.39,-199.752C1021.06,-199.178 1031.24,-196.594 1031.24,-192 1031.24,-188.626 1025.75,-186.337 1017.42,-185.131"/>
<polygon fill="black" stroke="black" points="1017.66,-181.639 1007.39,-184.248 1017.04,-188.612 1017.66,-181.639"/>
<text text-anchor="middle" x="1035.24" y="-188.3" font-family="Times,serif" font-size="14.00">8</text>
</g>
<!-- 192.168.1.34&#45;&gt;192.168.1.1 -->
<g id="edge21" class="edge"><title>192.168.1.34&#45;&gt;192.168.1.1</title>
<path fill="none" stroke="black" d="M1118.49,-173.799C1118.49,-162.163 1118.49,-146.548 1118.49,-133.237"/>
<polygon fill="black" stroke="black" points="1121.99,-133.175 1118.49,-123.175 1114.99,-133.175 1121.99,-133.175"/>
<text text-anchor="middle" x="1126.49" y="-144.8" font-family="Times,serif" font-size="14.00">36</text>
</g>
<!-- 192.168.1.34&#45;&gt;192.168.1.34 -->
<g id="edge25" class="edge"><title>192.168.1.34&#45;&gt;192.168.1.34</title>
<path fill="none" stroke="black" d="M1174.39,-199.752C1188.06,-199.178 1198.24,-196.594 1198.24,-192 1198.24,-188.626 1192.75,-186.337 1184.42,-185.131"/>
<polygon fill="black" stroke="black" points="1184.66,-181.639 1174.39,-184.248 1184.04,-188.612 1184.66,-181.639"/>
<text text-anchor="middle" x="1202.24" y="-188.3" font-family="Times,serif" font-size="14.00">2</text>
</g>
<!-- 192.168.1.35&#45;&gt;192.168.1.1 -->
<g id="edge10" class="edge"><title>192.168.1.35&#45;&gt;192.168.1.1</title>
<path fill="none" stroke="black" d="M599.185,-30.4238C607.568,-32.4043 616.278,-34.3535 624.494,-36 777.647,-66.6942 960.302,-87.9 1054.8,-97.7454"/>
<polygon fill="black" stroke="black" points="1054.46,-101.229 1064.77,-98.7762 1055.18,-94.2665 1054.46,-101.229"/>
<text text-anchor="middle" x="822.494" y="-57.8" font-family="Times,serif" font-size="14.00">10</text>
</g>
<!-- 192.168.1.38&#45;&gt;192.168.1.1 -->
<g id="edge6" class="edge"><title>192.168.1.38&#45;&gt;192.168.1.1</title>
<path fill="none" stroke="black" d="M1003.44,-34.6398C1026.24,-48.3878 1059.59,-68.4899 1084.52,-83.5178"/>
<polygon fill="black" stroke="black" points="1082.91,-86.6383 1093.29,-88.8037 1086.53,-80.6434 1082.91,-86.6383"/>
<text text-anchor="middle" x="1060.49" y="-57.8" font-family="Times,serif" font-size="14.00">2</text>
</g>
<!-- 192.168.1.39 -->
<g id="node13" class="node"><title>192.168.1.39</title>
<ellipse fill="none" stroke="black" cx="1426.49" cy="-192" rx="61.99" ry="18"/>
<text text-anchor="middle" x="1426.49" y="-188.3" font-family="Times,serif" font-size="14.00">192.168.1.39</text>
</g>
<!-- 192.168.1.39&#45;&gt;192.168.1.1 -->
<g id="edge2" class="edge"><title>192.168.1.39&#45;&gt;192.168.1.1</title>
<path fill="none" stroke="black" d="M1383.34,-179.092C1327.47,-163.672 1230.19,-136.825 1170.36,-120.313"/>
<polygon fill="black" stroke="black" points="1170.94,-116.842 1160.37,-117.556 1169.07,-123.59 1170.94,-116.842"/>
<text text-anchor="middle" x="1295.49" y="-144.8" font-family="Times,serif" font-size="14.00">1</text>
</g>
</g>
</svg>
