<?xml version="1.0" encoding="UTF-8" standalone="no"?>
<!DOCTYPE svg PUBLIC "-//W3C//DTD SVG 1.1//EN"
 "http://www.w3.org/Graphics/SVG/1.1/DTD/svg11.dtd">
<!-- Generated by graphviz version 2.38.0 (20140413.2041)
 -->
<!-- Title: G Pages: 1 -->
<svg width="3049pt" height="827pt"
 viewBox="0.00 0.00 3048.69 827.00" xmlns="http://www.w3.org/2000/svg" xmlns:xlink="http://www.w3.org/1999/xlink">
<g id="graph0" class="graph" transform="scale(1 1) rotate(0) translate(4 823)">
<title>G</title>
<polygon fill="white" stroke="none" points="-4,4 -4,-823 3044.69,-823 3044.69,4 -4,4"/>
<!-- 169.254.255.255 -->
<g id="node1" class="node"><title>169.254.255.255</title>
<ellipse fill="none" stroke="black" cx="2964" cy="-105" rx="76.8869" ry="18"/>
<text text-anchor="middle" x="2964" y="-101.3" font-family="Times,serif" font-size="14.00">169.254.255.255</text>
</g>
<!-- 192.168.0.1 -->
<g id="node2" class="node"><title>192.168.0.1</title>
<ellipse fill="none" stroke="black" cx="1509" cy="-279" rx="57.3905" ry="18"/>
<text text-anchor="middle" x="1509" y="-275.3" font-family="Times,serif" font-size="14.00">192.168.0.1</text>
</g>
<!-- 192.168.0.100 -->
<g id="node3" class="node"><title>192.168.0.100</title>
<ellipse fill="none" stroke="black" cx="1843" cy="-192" rx="66.8882" ry="18"/>
<text text-anchor="middle" x="1843" y="-188.3" font-family="Times,serif" font-size="14.00">192.168.0.100</text>
</g>
<!-- 192.168.0.1&#45;&gt;192.168.0.100 -->
<g id="edge64" class="edge"><title>192.168.0.1&#45;&gt;192.168.0.100</title>
<path fill="none" stroke="black" d="M1551.98,-267.062C1611.72,-251.857 1719.98,-224.307 1786.29,-207.433"/>
<polygon fill="black" stroke="black" points="1787.33,-210.78 1796.16,-204.922 1785.6,-203.996 1787.33,-210.78"/>
<text text-anchor="middle" x="1700" y="-231.8" font-family="Times,serif" font-size="14.00">4</text>
</g>
<!-- 192.168.0.103 -->
<g id="node6" class="node"><title>192.168.0.103</title>
<ellipse fill="none" stroke="black" cx="2667" cy="-192" rx="66.8882" ry="18"/>
<text text-anchor="middle" x="2667" y="-188.3" font-family="Times,serif" font-size="14.00">192.168.0.103</text>
</g>
<!-- 192.168.0.1&#45;&gt;192.168.0.103 -->
<g id="edge42" class="edge"><title>192.168.0.1&#45;&gt;192.168.0.103</title>
<path fill="none" stroke="black" d="M1566.39,-278.402C1708.47,-278.823 2087.84,-276.431 2402,-243 2473.73,-235.367 2555.1,-218.811 2608.53,-206.838"/>
<polygon fill="black" stroke="black" points="2609.52,-210.202 2618.51,-204.583 2607.98,-203.374 2609.52,-210.202"/>
<text text-anchor="middle" x="2502" y="-231.8" font-family="Times,serif" font-size="14.00">3</text>
</g>
<!-- 192.168.0.105 -->
<g id="node8" class="node"><title>192.168.0.105</title>
<ellipse fill="none" stroke="black" cx="1995" cy="-192" rx="66.8882" ry="18"/>
<text text-anchor="middle" x="1995" y="-188.3" font-family="Times,serif" font-size="14.00">192.168.0.105</text>
</g>
<!-- 192.168.0.1&#45;&gt;192.168.0.105 -->
<g id="edge32" class="edge"><title>192.168.0.1&#45;&gt;192.168.0.105</title>
<path fill="none" stroke="black" d="M1559.66,-270.527C1637.25,-258.872 1790.1,-235.086 1919,-210 1924.47,-208.935 1930.16,-207.771 1935.84,-206.569"/>
<polygon fill="black" stroke="black" points="1936.99,-209.903 1946.02,-204.376 1935.51,-203.06 1936.99,-209.903"/>
<text text-anchor="middle" x="1823" y="-231.8" font-family="Times,serif" font-size="14.00">1</text>
</g>
<!-- 192.168.0.107 -->
<g id="node10" class="node"><title>192.168.0.107</title>
<ellipse fill="none" stroke="black" cx="917" cy="-18" rx="66.8882" ry="18"/>
<text text-anchor="middle" x="917" y="-14.3" font-family="Times,serif" font-size="14.00">192.168.0.107</text>
</g>
<!-- 192.168.0.1&#45;&gt;192.168.0.107 -->
<g id="edge49" class="edge"><title>192.168.0.1&#45;&gt;192.168.0.107</title>
<path fill="none" stroke="black" d="M1451.74,-277.884C1374.11,-275.553 1233,-263.48 1127,-210 1106.23,-199.52 1106.09,-189.788 1089,-174 1037.75,-126.647 976.922,-72.2463 943.067,-42.1271"/>
<polygon fill="black" stroke="black" points="945.263,-39.3959 935.464,-35.3675 940.612,-44.6275 945.263,-39.3959"/>
<text text-anchor="middle" x="1076" y="-144.8" font-family="Times,serif" font-size="14.00">23</text>
</g>
<!-- 192.168.0.108 -->
<g id="node11" class="node"><title>192.168.0.108</title>
<ellipse fill="none" stroke="black" cx="2147" cy="-192" rx="66.8882" ry="18"/>
<text text-anchor="middle" x="2147" y="-188.3" font-family="Times,serif" font-size="14.00">192.168.0.108</text>
</g>
<!-- 192.168.0.1&#45;&gt;192.168.0.108 -->
<g id="edge51" class="edge"><title>192.168.0.1&#45;&gt;192.168.0.108</title>
<path fill="none" stroke="black" d="M1563.57,-273.516C1664.35,-264.764 1886.26,-243.303 2071,-210 2076.71,-208.97 2082.64,-207.808 2088.56,-206.587"/>
<polygon fill="black" stroke="black" points="2089.41,-209.985 2098.47,-204.488 2087.96,-203.137 2089.41,-209.985"/>
<text text-anchor="middle" x="1953" y="-231.8" font-family="Times,serif" font-size="14.00">3</text>
</g>
<!-- 192.168.0.109 -->
<g id="node12" class="node"><title>192.168.0.109</title>
<ellipse fill="none" stroke="black" cx="709" cy="-192" rx="66.8882" ry="18"/>
<text text-anchor="middle" x="709" y="-188.3" font-family="Times,serif" font-size="14.00">192.168.0.109</text>
</g>
<!-- 192.168.0.1&#45;&gt;192.168.0.109 -->
<g id="edge2" class="edge"><title>192.168.0.1&#45;&gt;192.168.0.109</title>
<path fill="none" stroke="black" d="M1452.34,-276.456C1353.63,-273.293 1143.87,-264.476 968,-243 898.604,-234.526 819.87,-218.378 767.614,-206.722"/>
<polygon fill="black" stroke="black" points="768.374,-203.306 757.85,-204.528 766.839,-210.135 768.374,-203.306"/>
<text text-anchor="middle" x="972" y="-231.8" font-family="Times,serif" font-size="14.00">4</text>
</g>
<!-- 192.168.0.112 -->
<g id="node14" class="node"><title>192.168.0.112</title>
<ellipse fill="none" stroke="black" cx="323" cy="-192" rx="66.8882" ry="18"/>
<text text-anchor="middle" x="323" y="-188.3" font-family="Times,serif" font-size="14.00">192.168.0.112</text>
</g>
<!-- 192.168.0.1&#45;&gt;192.168.0.112 -->
<g id="edge46" class="edge"><title>192.168.0.1&#45;&gt;192.168.0.112</title>
<path fill="none" stroke="black" d="M1451.86,-277.415C1271.23,-275.333 713.909,-267.076 535,-243 480.18,-235.623 418.794,-220.352 376.242,-208.617"/>
<polygon fill="black" stroke="black" points="376.957,-205.183 366.384,-205.869 375.077,-211.926 376.957,-205.183"/>
<text text-anchor="middle" x="539" y="-231.8" font-family="Times,serif" font-size="14.00">5</text>
</g>
<!-- 192.168.0.116 -->
<g id="node17" class="node"><title>192.168.0.116</title>
<ellipse fill="none" stroke="black" cx="861" cy="-192" rx="66.8882" ry="18"/>
<text text-anchor="middle" x="861" y="-188.3" font-family="Times,serif" font-size="14.00">192.168.0.116</text>
</g>
<!-- 192.168.0.1&#45;&gt;192.168.0.116 -->
<g id="edge52" class="edge"><title>192.168.0.1&#45;&gt;192.168.0.116</title>
<path fill="none" stroke="black" d="M1451.92,-277.137C1364.09,-275.035 1190.8,-267.813 1046,-243 999.839,-235.09 948.508,-220.761 911.649,-209.464"/>
<polygon fill="black" stroke="black" points="912.241,-205.984 901.653,-206.366 910.168,-212.67 912.241,-205.984"/>
<text text-anchor="middle" x="1050" y="-231.8" font-family="Times,serif" font-size="14.00">2</text>
</g>
<!-- 192.168.0.117 -->
<g id="node18" class="node"><title>192.168.0.117</title>
<ellipse fill="none" stroke="black" cx="1013" cy="-192" rx="66.8882" ry="18"/>
<text text-anchor="middle" x="1013" y="-188.3" font-family="Times,serif" font-size="14.00">192.168.0.117</text>
</g>
<!-- 192.168.0.1&#45;&gt;192.168.0.117 -->
<g id="edge38" class="edge"><title>192.168.0.1&#45;&gt;192.168.0.117</title>
<path fill="none" stroke="black" d="M1451.91,-276.886C1352.49,-274.349 1151.87,-266.417 1086,-243 1069.14,-237.007 1052.51,-226.115 1039.39,-216.024"/>
<polygon fill="black" stroke="black" points="1041.31,-213.075 1031.31,-209.568 1036.94,-218.544 1041.31,-213.075"/>
<text text-anchor="middle" x="1090" y="-231.8" font-family="Times,serif" font-size="14.00">6</text>
</g>
<!-- 192.168.0.119 -->
<g id="node20" class="node"><title>192.168.0.119</title>
<ellipse fill="none" stroke="black" cx="2819" cy="-192" rx="66.8882" ry="18"/>
<text text-anchor="middle" x="2819" y="-188.3" font-family="Times,serif" font-size="14.00">192.168.0.119</text>
</g>
<!-- 192.168.0.1&#45;&gt;192.168.0.119 -->
<g id="edge48" class="edge"><title>192.168.0.1&#45;&gt;192.168.0.119</title>
<path fill="none" stroke="black" d="M1566.4,-278.113C1719.83,-277.957 2152.08,-274.514 2510,-243 2614.19,-233.826 2640.11,-228.763 2743,-210 2748.71,-208.959 2754.64,-207.789 2760.56,-206.563"/>
<polygon fill="black" stroke="black" points="2761.41,-209.96 2770.46,-204.459 2759.96,-203.113 2761.41,-209.96"/>
<text text-anchor="middle" x="2643" y="-231.8" font-family="Times,serif" font-size="14.00">3</text>
</g>
<!-- 192.168.0.123 -->
<g id="node22" class="node"><title>192.168.0.123</title>
<ellipse fill="none" stroke="black" cx="1203" cy="-192" rx="66.8882" ry="18"/>
<text text-anchor="middle" x="1203" y="-188.3" font-family="Times,serif" font-size="14.00">192.168.0.123</text>
</g>
<!-- 192.168.0.1&#45;&gt;192.168.0.123 -->
<g id="edge19" class="edge"><title>192.168.0.1&#45;&gt;192.168.0.123</title>
<path fill="none" stroke="black" d="M1467.73,-266.537C1413.41,-251.448 1317.78,-224.885 1257.55,-208.152"/>
<polygon fill="black" stroke="black" points="1258.4,-204.757 1247.83,-205.453 1256.53,-211.501 1258.4,-204.757"/>
<text text-anchor="middle" x="1379" y="-231.8" font-family="Times,serif" font-size="14.00">4</text>
</g>
<!-- 192.168.0.125 -->
<g id="node23" class="node"><title>192.168.0.125</title>
<ellipse fill="none" stroke="black" cx="1296" cy="-105" rx="66.8882" ry="18"/>
<text text-anchor="middle" x="1296" y="-101.3" font-family="Times,serif" font-size="14.00">192.168.0.125</text>
</g>
<!-- 192.168.0.1&#45;&gt;192.168.0.125 -->
<g id="edge3" class="edge"><title>192.168.0.1&#45;&gt;192.168.0.125</title>
<path fill="none" stroke="black" d="M1499.61,-260.968C1486.61,-238.642 1461.29,-199.352 1431,-174 1405.17,-152.377 1371.3,-135.342 1343.95,-123.73"/>
<polygon fill="black" stroke="black" points="1345.15,-120.438 1334.57,-119.85 1342.47,-126.907 1345.15,-120.438"/>
<text text-anchor="middle" x="1473" y="-188.3" font-family="Times,serif" font-size="14.00">37</text>
</g>
<!-- 192.168.0.126 -->
<g id="node24" class="node"><title>192.168.0.126</title>
<ellipse fill="none" stroke="black" cx="1355" cy="-192" rx="66.8882" ry="18"/>
<text text-anchor="middle" x="1355" y="-188.3" font-family="Times,serif" font-size="14.00">192.168.0.126</text>
</g>
<!-- 192.168.0.1&#45;&gt;192.168.0.126 -->
<g id="edge61" class="edge"><title>192.168.0.1&#45;&gt;192.168.0.126</title>
<path fill="none" stroke="black" d="M1477.73,-263.898C1464.67,-257.781 1449.44,-250.345 1436,-243 1419.91,-234.207 1402.55,-223.642 1388.04,-214.494"/>
<polygon fill="black" stroke="black" points="1389.73,-211.421 1379.41,-209.009 1385.97,-217.328 1389.73,-211.421"/>
<text text-anchor="middle" x="1440" y="-231.8" font-family="Times,serif" font-size="14.00">2</text>
</g>
<!-- 192.168.0.130 -->
<g id="node27" class="node"><title>192.168.0.130</title>
<ellipse fill="none" stroke="black" cx="475" cy="-192" rx="66.8882" ry="18"/>
<text text-anchor="middle" x="475" y="-188.3" font-family="Times,serif" font-size="14.00">192.168.0.130</text>
</g>
<!-- 192.168.0.1&#45;&gt;192.168.0.130 -->
<g id="edge58" class="edge"><title>192.168.0.1&#45;&gt;192.168.0.130</title>
<path fill="none" stroke="black" d="M1451.78,-278.483C1278.05,-279.531 758.52,-279.445 594,-243 565.54,-236.696 535.279,-223.889 512.394,-212.815"/>
<polygon fill="black" stroke="black" points="513.894,-209.653 503.379,-208.358 510.792,-215.928 513.894,-209.653"/>
<text text-anchor="middle" x="598" y="-231.8" font-family="Times,serif" font-size="14.00">1</text>
</g>
<!-- 192.168.0.140 -->
<g id="node32" class="node"><title>192.168.0.140</title>
<ellipse fill="none" stroke="black" cx="2489" cy="-192" rx="66.8882" ry="18"/>
<text text-anchor="middle" x="2489" y="-188.3" font-family="Times,serif" font-size="14.00">192.168.0.140</text>
</g>
<!-- 192.168.0.1&#45;&gt;192.168.0.140 -->
<g id="edge18" class="edge"><title>192.168.0.1&#45;&gt;192.168.0.140</title>
<path fill="none" stroke="black" d="M1566.29,-277.54C1727.79,-275.929 2184.58,-269.127 2332,-243 2370.63,-236.153 2412.94,-222.291 2443.89,-210.895"/>
<polygon fill="black" stroke="black" points="2445.38,-214.075 2453.52,-207.294 2442.92,-207.518 2445.38,-214.075"/>
<text text-anchor="middle" x="2394" y="-231.8" font-family="Times,serif" font-size="14.00">1</text>
</g>
<!-- 192.168.0.142 -->
<g id="node33" class="node"><title>192.168.0.142</title>
<ellipse fill="none" stroke="black" cx="2299" cy="-192" rx="66.8882" ry="18"/>
<text text-anchor="middle" x="2299" y="-188.3" font-family="Times,serif" font-size="14.00">192.168.0.142</text>
</g>
<!-- 192.168.0.1&#45;&gt;192.168.0.142 -->
<g id="edge47" class="edge"><title>192.168.0.1&#45;&gt;192.168.0.142</title>
<path fill="none" stroke="black" d="M1565.4,-275.612C1686.57,-269.829 1980.43,-252.309 2223,-210 2228.72,-209.003 2234.65,-207.862 2240.57,-206.654"/>
<polygon fill="black" stroke="black" points="2241.42,-210.053 2250.48,-204.571 2239.98,-203.203 2241.42,-210.053"/>
<text text-anchor="middle" x="2092" y="-231.8" font-family="Times,serif" font-size="14.00">4</text>
</g>
<!-- 192.168.0.150 -->
<g id="node35" class="node"><title>192.168.0.150</title>
<ellipse fill="none" stroke="black" cx="1559" cy="-192" rx="66.8882" ry="18"/>
<text text-anchor="middle" x="1559" y="-188.3" font-family="Times,serif" font-size="14.00">192.168.0.150</text>
</g>
<!-- 192.168.0.1&#45;&gt;192.168.0.150 -->
<g id="edge21" class="edge"><title>192.168.0.1&#45;&gt;192.168.0.150</title>
<path fill="none" stroke="black" d="M1518.88,-261.207C1525.95,-249.178 1535.62,-232.748 1543.69,-219.028"/>
<polygon fill="black" stroke="black" points="1546.92,-220.443 1548.97,-210.049 1540.88,-216.894 1546.92,-220.443"/>
<text text-anchor="middle" x="1541" y="-231.8" font-family="Times,serif" font-size="14.00">1</text>
</g>
<!-- 192.168.0.212 -->
<g id="node38" class="node"><title>192.168.0.212</title>
<ellipse fill="none" stroke="black" cx="133" cy="-192" rx="66.8882" ry="18"/>
<text text-anchor="middle" x="133" y="-188.3" font-family="Times,serif" font-size="14.00">192.168.0.212</text>
</g>
<!-- 192.168.0.1&#45;&gt;192.168.0.212 -->
<g id="edge16" class="edge"><title>192.168.0.1&#45;&gt;192.168.0.212</title>
<path fill="none" stroke="black" d="M1451.57,-278.624C1291.88,-279.816 829.192,-279.583 447,-243 359.163,-234.592 258.592,-217.19 195.437,-205.303"/>
<polygon fill="black" stroke="black" points="195.723,-201.795 185.246,-203.372 194.419,-208.673 195.723,-201.795"/>
<text text-anchor="middle" x="451" y="-231.8" font-family="Times,serif" font-size="14.00">1</text>
</g>
<!-- 192.168.0.4 -->
<g id="node39" class="node"><title>192.168.0.4</title>
<ellipse fill="none" stroke="black" cx="1701" cy="-192" rx="57.3905" ry="18"/>
<text text-anchor="middle" x="1701" y="-188.3" font-family="Times,serif" font-size="14.00">192.168.0.4</text>
</g>
<!-- 192.168.0.1&#45;&gt;192.168.0.4 -->
<g id="edge10" class="edge"><title>192.168.0.1&#45;&gt;192.168.0.4</title>
<path fill="none" stroke="black" d="M1540.7,-263.964C1573.36,-249.507 1624.39,-226.917 1660.07,-211.119"/>
<polygon fill="black" stroke="black" points="1661.52,-214.305 1669.25,-207.057 1658.69,-207.905 1661.52,-214.305"/>
<text text-anchor="middle" x="1625" y="-231.8" font-family="Times,serif" font-size="14.00">10</text>
</g>
<!-- 192.168.0.101 -->
<g id="node4" class="node"><title>192.168.0.101</title>
<ellipse fill="none" stroke="black" cx="2940" cy="-714" rx="66.8882" ry="18"/>
<text text-anchor="middle" x="2940" y="-710.3" font-family="Times,serif" font-size="14.00">192.168.0.101</text>
</g>
<!-- 192.168.0.101&#45;&gt;169.254.255.255 -->
<g id="edge44" class="edge"><title>192.168.0.101&#45;&gt;169.254.255.255</title>
<path fill="none" stroke="black" d="M2955.91,-696.265C2969.55,-680.115 2987,-654.306 2987,-628 2987,-628 2987,-628 2987,-191 2987,-170.997 2980.99,-149.237 2975.12,-132.741"/>
<polygon fill="black" stroke="black" points="2978.33,-131.339 2971.53,-123.213 2971.78,-133.805 2978.33,-131.339"/>
<text text-anchor="middle" x="2991" y="-405.8" font-family="Times,serif" font-size="14.00">1</text>
</g>
<!-- 192.168.0.121 -->
<g id="node21" class="node"><title>192.168.0.121</title>
<ellipse fill="none" stroke="black" cx="2651" cy="-105" rx="66.8882" ry="18"/>
<text text-anchor="middle" x="2651" y="-101.3" font-family="Times,serif" font-size="14.00">192.168.0.121</text>
</g>
<!-- 192.168.0.101&#45;&gt;192.168.0.121 -->
<g id="edge41" class="edge"><title>192.168.0.101&#45;&gt;192.168.0.121</title>
<path fill="none" stroke="black" d="M2940,-695.744C2940,-678.57 2940,-651.464 2940,-628 2940,-628 2940,-628 2940,-234.5 2940,-206.316 2941.49,-193.347 2921,-174 2892.19,-146.801 2789.55,-126.551 2719.46,-115.505"/>
<polygon fill="black" stroke="black" points="2719.79,-112.013 2709.37,-113.942 2718.72,-118.931 2719.79,-112.013"/>
<text text-anchor="middle" x="2944" y="-405.8" font-family="Times,serif" font-size="14.00">1</text>
</g>
<!-- 192.168.0.127 -->
<g id="node25" class="node"><title>192.168.0.127</title>
<ellipse fill="none" stroke="black" cx="2667" cy="-627" rx="66.8882" ry="18"/>
<text text-anchor="middle" x="2667" y="-623.3" font-family="Times,serif" font-size="14.00">192.168.0.127</text>
</g>
<!-- 192.168.0.101&#45;&gt;192.168.0.127 -->
<g id="edge4" class="edge"><title>192.168.0.101&#45;&gt;192.168.0.127</title>
<path fill="none" stroke="black" d="M2897.94,-699.905C2849.75,-684.899 2770.74,-660.3 2718.8,-644.127"/>
<polygon fill="black" stroke="black" points="2719.69,-640.741 2709.11,-641.11 2717.61,-647.424 2719.69,-640.741"/>
<text text-anchor="middle" x="2824" y="-666.8" font-family="Times,serif" font-size="14.00">1</text>
</g>
<!-- 192.168.0.102 -->
<g id="node5" class="node"><title>192.168.0.102</title>
<ellipse fill="none" stroke="black" cx="1402" cy="-540" rx="66.8882" ry="18"/>
<text text-anchor="middle" x="1402" y="-536.3" font-family="Times,serif" font-size="14.00">192.168.0.102</text>
</g>
<!-- 192.168.0.2 -->
<g id="node36" class="node"><title>192.168.0.2</title>
<ellipse fill="none" stroke="black" cx="1402" cy="-453" rx="57.3905" ry="18"/>
<text text-anchor="middle" x="1402" y="-449.3" font-family="Times,serif" font-size="14.00">192.168.0.2</text>
</g>
<!-- 192.168.0.102&#45;&gt;192.168.0.2 -->
<g id="edge1" class="edge"><title>192.168.0.102&#45;&gt;192.168.0.2</title>
<path fill="none" stroke="black" d="M1402,-521.799C1402,-510.163 1402,-494.548 1402,-481.237"/>
<polygon fill="black" stroke="black" points="1405.5,-481.175 1402,-471.175 1398.5,-481.175 1405.5,-481.175"/>
<text text-anchor="middle" x="1406" y="-492.8" font-family="Times,serif" font-size="14.00">1</text>
</g>
<!-- 192.168.0.104 -->
<g id="node7" class="node"><title>192.168.0.104</title>
<ellipse fill="none" stroke="black" cx="467" cy="-627" rx="66.8882" ry="18"/>
<text text-anchor="middle" x="467" y="-623.3" font-family="Times,serif" font-size="14.00">192.168.0.104</text>
</g>
<!-- 192.168.0.106 -->
<g id="node9" class="node"><title>192.168.0.106</title>
<ellipse fill="none" stroke="black" cx="436" cy="-540" rx="66.8882" ry="18"/>
<text text-anchor="middle" x="436" y="-536.3" font-family="Times,serif" font-size="14.00">192.168.0.106</text>
</g>
<!-- 192.168.0.104&#45;&gt;192.168.0.106 -->
<g id="edge5" class="edge"><title>192.168.0.104&#45;&gt;192.168.0.106</title>
<path fill="none" stroke="black" d="M449.438,-609.301C444.88,-603.926 440.541,-597.632 438,-591 435.295,-583.942 434.198,-575.907 433.928,-568.374"/>
<polygon fill="black" stroke="black" points="437.429,-568.242 434.016,-558.212 430.429,-568.182 437.429,-568.242"/>
<text text-anchor="middle" x="442" y="-579.8" font-family="Times,serif" font-size="14.00">1</text>
</g>
<!-- 192.168.0.104&#45;&gt;192.168.0.2 -->
<g id="edge45" class="edge"><title>192.168.0.104&#45;&gt;192.168.0.2</title>
<path fill="none" stroke="black" d="M520.628,-616.135C684.049,-586.072 1174.95,-495.767 1344.03,-464.664"/>
<polygon fill="black" stroke="black" points="1344.78,-468.085 1353.98,-462.833 1343.51,-461.2 1344.78,-468.085"/>
<text text-anchor="middle" x="1032" y="-536.3" font-family="Times,serif" font-size="14.00">3</text>
</g>
<!-- 192.168.0.106&#45;&gt;192.168.0.104 -->
<g id="edge33" class="edge"><title>192.168.0.106&#45;&gt;192.168.0.104</title>
<path fill="none" stroke="black" d="M442.264,-558.175C446.548,-569.921 452.313,-585.729 457.2,-599.129"/>
<polygon fill="black" stroke="black" points="454.012,-600.604 460.727,-608.799 460.588,-598.205 454.012,-600.604"/>
<text text-anchor="middle" x="458" y="-579.8" font-family="Times,serif" font-size="14.00">1</text>
</g>
<!-- 192.168.0.106&#45;&gt;192.168.0.107 -->
<g id="edge17" class="edge"><title>192.168.0.106&#45;&gt;192.168.0.107</title>
<path fill="none" stroke="black" d="M368.831,-539.606C246.529,-538.886 0,-528.228 0,-454 0,-454 0,-454 0,-104 0,-61.8747 621.649,-31.4948 841.269,-22.0764"/>
<polygon fill="black" stroke="black" points="841.578,-25.5666 851.42,-21.6438 841.28,-18.5729 841.578,-25.5666"/>
<text text-anchor="middle" x="4" y="-275.3" font-family="Times,serif" font-size="14.00">5</text>
</g>
<!-- 192.168.0.106&#45;&gt;192.168.0.112 -->
<g id="edge13" class="edge"><title>192.168.0.106&#45;&gt;192.168.0.112</title>
<path fill="none" stroke="black" d="M390.088,-526.79C362.199,-516.743 328.825,-499.415 312,-471 287.276,-429.243 308.141,-281.768 318.26,-220.257"/>
<polygon fill="black" stroke="black" points="321.753,-220.59 319.955,-210.149 314.85,-219.432 321.753,-220.59"/>
<text text-anchor="middle" x="307" y="-362.3" font-family="Times,serif" font-size="14.00">1</text>
</g>
<!-- 192.168.0.115 -->
<g id="node16" class="node"><title>192.168.0.115</title>
<ellipse fill="none" stroke="black" cx="433" cy="-105" rx="66.8882" ry="18"/>
<text text-anchor="middle" x="433" y="-101.3" font-family="Times,serif" font-size="14.00">192.168.0.115</text>
</g>
<!-- 192.168.0.106&#45;&gt;192.168.0.115 -->
<g id="edge14" class="edge"><title>192.168.0.106&#45;&gt;192.168.0.115</title>
<path fill="none" stroke="black" d="M368.935,-538.313C255.508,-535.318 38,-520.858 38,-454 38,-454 38,-454 38,-191 38,-165.387 75.1056,-156.043 129,-141 204.616,-119.894 294.23,-111.492 356.485,-108.16"/>
<polygon fill="black" stroke="black" points="356.81,-111.649 366.621,-107.65 356.457,-104.658 356.81,-111.649"/>
<text text-anchor="middle" x="42" y="-318.8" font-family="Times,serif" font-size="14.00">2</text>
</g>
<!-- 192.168.0.106&#45;&gt;192.168.0.125 -->
<g id="edge59" class="edge"><title>192.168.0.106&#45;&gt;192.168.0.125</title>
<path fill="none" stroke="black" d="M463.655,-523.564C471.39,-518.188 479.245,-511.575 485,-504 494.44,-491.573 492.137,-485.829 497,-471 502.357,-454.663 570.745,-184.951 584,-174 632.248,-134.136 1046.09,-114.886 1219.77,-108.506"/>
<polygon fill="black" stroke="black" points="1219.99,-112 1229.86,-108.14 1219.74,-105.005 1219.99,-112"/>
<text text-anchor="middle" x="543" y="-318.8" font-family="Times,serif" font-size="14.00">1</text>
</g>
<!-- 192.168.0.128 -->
<g id="node26" class="node"><title>192.168.0.128</title>
<ellipse fill="none" stroke="black" cx="388" cy="-453" rx="66.8882" ry="18"/>
<text text-anchor="middle" x="388" y="-449.3" font-family="Times,serif" font-size="14.00">192.168.0.128</text>
</g>
<!-- 192.168.0.106&#45;&gt;192.168.0.128 -->
<g id="edge54" class="edge"><title>192.168.0.106&#45;&gt;192.168.0.128</title>
<path fill="none" stroke="black" d="M426.286,-521.799C419.476,-509.738 410.251,-493.403 402.564,-479.79"/>
<polygon fill="black" stroke="black" points="405.5,-477.872 397.535,-470.885 399.405,-481.314 405.5,-477.872"/>
<text text-anchor="middle" x="419" y="-492.8" font-family="Times,serif" font-size="14.00">2</text>
</g>
<!-- 192.168.0.106&#45;&gt;192.168.0.130 -->
<g id="edge25" class="edge"><title>192.168.0.106&#45;&gt;192.168.0.130</title>
<path fill="none" stroke="black" d="M451.912,-522.265C465.547,-506.115 483,-480.306 483,-454 483,-454 483,-454 483,-278 483,-258.668 480.923,-236.97 478.886,-220.336"/>
<polygon fill="black" stroke="black" points="482.33,-219.68 477.575,-210.212 475.388,-220.578 482.33,-219.68"/>
<text text-anchor="middle" x="487" y="-362.3" font-family="Times,serif" font-size="14.00">2</text>
</g>
<!-- 192.168.0.106&#45;&gt;192.168.0.2 -->
<g id="edge56" class="edge"><title>192.168.0.106&#45;&gt;192.168.0.2</title>
<path fill="none" stroke="black" d="M496.777,-532.376C590.394,-522.288 775.555,-502.792 933,-489 1076.91,-476.393 1245.93,-464.494 1336.6,-458.346"/>
<polygon fill="black" stroke="black" points="1336.99,-461.828 1346.73,-457.661 1336.52,-454.844 1336.99,-461.828"/>
<text text-anchor="middle" x="937" y="-492.8" font-family="Times,serif" font-size="14.00">2</text>
</g>
<!-- 192.168.0.110 -->
<g id="node13" class="node"><title>192.168.0.110</title>
<ellipse fill="none" stroke="black" cx="433" cy="-18" rx="66.8882" ry="18"/>
<text text-anchor="middle" x="433" y="-14.3" font-family="Times,serif" font-size="14.00">192.168.0.110</text>
</g>
<!-- 192.168.0.113 -->
<g id="node15" class="node"><title>192.168.0.113</title>
<ellipse fill="none" stroke="black" cx="133" cy="-105" rx="66.8882" ry="18"/>
<text text-anchor="middle" x="133" y="-101.3" font-family="Times,serif" font-size="14.00">192.168.0.113</text>
</g>
<!-- 192.168.0.115&#45;&gt;192.168.0.1 -->
<g id="edge20" class="edge"><title>192.168.0.115&#45;&gt;192.168.0.1</title>
<path fill="none" stroke="black" d="M460.519,-121.625C509.382,-149.261 607.788,-204.394 625,-210 776.736,-259.424 1262.61,-273.395 1441.8,-276.921"/>
<polygon fill="black" stroke="black" points="1441.82,-280.422 1451.88,-277.114 1441.95,-273.423 1441.82,-280.422"/>
<text text-anchor="middle" x="629" y="-188.3" font-family="Times,serif" font-size="14.00">1</text>
</g>
<!-- 192.168.0.115&#45;&gt;192.168.0.102 -->
<g id="edge29" class="edge"><title>192.168.0.115&#45;&gt;192.168.0.102</title>
<path fill="none" stroke="black" d="M369.574,-111.008C327.244,-118.031 274.482,-134.691 247,-174 179.921,-269.944 304.299,-326.019 406,-384 564.286,-474.242 1124.07,-520.23 1327.45,-534.25"/>
<polygon fill="black" stroke="black" points="1327.22,-537.743 1337.44,-534.933 1327.7,-530.759 1327.22,-537.743"/>
<text text-anchor="middle" x="316" y="-318.8" font-family="Times,serif" font-size="14.00">1</text>
</g>
<!-- 192.168.0.115&#45;&gt;192.168.0.107 -->
<g id="edge15" class="edge"><title>192.168.0.115&#45;&gt;192.168.0.107</title>
<path fill="none" stroke="black" d="M487.58,-94.4146C577.598,-78.6058 756.76,-47.1413 852.749,-30.2838"/>
<polygon fill="black" stroke="black" points="853.376,-33.7274 862.619,-28.5503 852.165,-26.8329 853.376,-33.7274"/>
<text text-anchor="middle" x="708" y="-57.8" font-family="Times,serif" font-size="14.00">3</text>
</g>
<!-- 192.168.0.115&#45;&gt;192.168.0.110 -->
<g id="edge9" class="edge"><title>192.168.0.115&#45;&gt;192.168.0.110</title>
<path fill="none" stroke="black" d="M433,-86.799C433,-75.1626 433,-59.5479 433,-46.2368"/>
<polygon fill="black" stroke="black" points="436.5,-46.1754 433,-36.1754 429.5,-46.1755 436.5,-46.1754"/>
<text text-anchor="middle" x="437" y="-57.8" font-family="Times,serif" font-size="14.00">1</text>
</g>
<!-- 192.168.0.118 -->
<g id="node19" class="node"><title>192.168.0.118</title>
<ellipse fill="none" stroke="black" cx="1205" cy="-366" rx="66.8882" ry="18"/>
<text text-anchor="middle" x="1205" y="-362.3" font-family="Times,serif" font-size="14.00">192.168.0.118</text>
</g>
<!-- 192.168.0.119&#45;&gt;169.254.255.255 -->
<g id="edge35" class="edge"><title>192.168.0.119&#45;&gt;169.254.255.255</title>
<path fill="none" stroke="black" d="M2845.6,-175.41C2868.71,-161.862 2902.39,-142.117 2927.93,-127.147"/>
<polygon fill="black" stroke="black" points="2929.73,-130.146 2936.59,-122.069 2926.19,-124.107 2929.73,-130.146"/>
<text text-anchor="middle" x="2905" y="-144.8" font-family="Times,serif" font-size="14.00">2</text>
</g>
<!-- 192.168.0.119&#45;&gt;192.168.0.119 -->
<g id="edge55" class="edge"><title>192.168.0.119&#45;&gt;192.168.0.119</title>
<path fill="none" stroke="black" d="M2879.7,-199.701C2893.68,-199.038 2903.94,-196.471 2903.94,-192 2903.94,-188.717 2898.41,-186.46 2889.93,-185.23"/>
<polygon fill="black" stroke="black" points="2889.98,-181.72 2879.7,-184.299 2889.34,-188.691 2889.98,-181.72"/>
<text text-anchor="middle" x="2907.94" y="-188.3" font-family="Times,serif" font-size="14.00">1</text>
</g>
<!-- 192.168.0.119&#45;&gt;192.168.0.2 -->
<g id="edge53" class="edge"><title>192.168.0.119&#45;&gt;192.168.0.2</title>
<path fill="none" stroke="black" d="M2803.95,-209.599C2762.85,-253.551 2643.24,-372.611 2515,-417 2416.6,-451.059 1695.57,-452.58 1469.56,-452.208"/>
<polygon fill="black" stroke="black" points="1469.5,-448.708 1459.49,-452.189 1469.48,-455.708 1469.5,-448.708"/>
<text text-anchor="middle" x="2692" y="-318.8" font-family="Times,serif" font-size="14.00">1</text>
</g>
<!-- 192.168.0.125&#45;&gt;192.168.0.107 -->
<g id="edge57" class="edge"><title>192.168.0.125&#45;&gt;192.168.0.107</title>
<path fill="none" stroke="black" d="M1254.85,-90.7792C1219.8,-79.8563 1167.96,-64.4938 1122,-54 1076.57,-43.6282 1024.84,-34.8184 984.715,-28.6318"/>
<polygon fill="black" stroke="black" points="985.187,-25.1634 974.774,-27.1162 984.132,-32.0835 985.187,-25.1634"/>
<text text-anchor="middle" x="1184" y="-57.8" font-family="Times,serif" font-size="14.00">1</text>
</g>
<!-- 192.168.0.134 -->
<g id="node31" class="node"><title>192.168.0.134</title>
<ellipse fill="none" stroke="black" cx="1220" cy="-18" rx="66.8882" ry="18"/>
<text text-anchor="middle" x="1220" y="-14.3" font-family="Times,serif" font-size="14.00">192.168.0.134</text>
</g>
<!-- 192.168.0.125&#45;&gt;192.168.0.134 -->
<g id="edge26" class="edge"><title>192.168.0.125&#45;&gt;192.168.0.134</title>
<path fill="none" stroke="black" d="M1280.98,-87.2067C1269.85,-74.7499 1254.49,-57.5734 1241.97,-43.5741"/>
<polygon fill="black" stroke="black" points="1244.26,-40.8802 1234.98,-35.7584 1239.04,-45.546 1244.26,-40.8802"/>
<text text-anchor="middle" x="1267" y="-57.8" font-family="Times,serif" font-size="14.00">2</text>
</g>
<!-- 192.168.0.147 -->
<g id="node34" class="node"><title>192.168.0.147</title>
<ellipse fill="none" stroke="black" cx="1372" cy="-18" rx="66.8882" ry="18"/>
<text text-anchor="middle" x="1372" y="-14.3" font-family="Times,serif" font-size="14.00">192.168.0.147</text>
</g>
<!-- 192.168.0.125&#45;&gt;192.168.0.147 -->
<g id="edge24" class="edge"><title>192.168.0.125&#45;&gt;192.168.0.147</title>
<path fill="none" stroke="black" d="M1311.02,-87.2067C1322.15,-74.7499 1337.51,-57.5734 1350.03,-43.5741"/>
<polygon fill="black" stroke="black" points="1352.96,-45.546 1357.02,-35.7584 1347.74,-40.8802 1352.96,-45.546"/>
<text text-anchor="middle" x="1343" y="-57.8" font-family="Times,serif" font-size="14.00">2</text>
</g>
<!-- 192.168.0.127&#45;&gt;192.168.0.102 -->
<g id="edge39" class="edge"><title>192.168.0.127&#45;&gt;192.168.0.102</title>
<path fill="none" stroke="black" d="M2602.97,-621.697C2389.65,-607.364 1703.82,-561.28 1476.2,-545.986"/>
<polygon fill="black" stroke="black" points="1476.25,-542.481 1466.03,-545.303 1475.78,-549.465 1476.25,-542.481"/>
<text text-anchor="middle" x="2115" y="-579.8" font-family="Times,serif" font-size="14.00">7</text>
</g>
<!-- 192.168.0.127&#45;&gt;192.168.0.103 -->
<g id="edge34" class="edge"><title>192.168.0.127&#45;&gt;192.168.0.103</title>
<path fill="none" stroke="black" d="M2667,-608.744C2667,-591.57 2667,-564.464 2667,-541 2667,-541 2667,-541 2667,-278 2667,-258.753 2667,-237.054 2667,-220.397"/>
<polygon fill="black" stroke="black" points="2670.5,-220.256 2667,-210.256 2663.5,-220.256 2670.5,-220.256"/>
<text text-anchor="middle" x="2671" y="-405.8" font-family="Times,serif" font-size="14.00">2</text>
</g>
<!-- 192.168.0.131 -->
<g id="node28" class="node"><title>192.168.0.131</title>
<ellipse fill="none" stroke="black" cx="1509" cy="-366" rx="66.8882" ry="18"/>
<text text-anchor="middle" x="1509" y="-362.3" font-family="Times,serif" font-size="14.00">192.168.0.131</text>
</g>
<!-- 192.168.0.131&#45;&gt;192.168.0.1 -->
<g id="edge43" class="edge"><title>192.168.0.131&#45;&gt;192.168.0.1</title>
<path fill="none" stroke="black" d="M1509,-347.799C1509,-336.163 1509,-320.548 1509,-307.237"/>
<polygon fill="black" stroke="black" points="1512.5,-307.175 1509,-297.175 1505.5,-307.175 1512.5,-307.175"/>
<text text-anchor="middle" x="1513" y="-318.8" font-family="Times,serif" font-size="14.00">6</text>
</g>
<!-- 192.168.0.132 -->
<g id="node29" class="node"><title>192.168.0.132</title>
<ellipse fill="none" stroke="black" cx="2347" cy="-105" rx="66.8882" ry="18"/>
<text text-anchor="middle" x="2347" y="-101.3" font-family="Times,serif" font-size="14.00">192.168.0.132</text>
</g>
<!-- 192.168.0.132&#45;&gt;192.168.0.2 -->
<g id="edge50" class="edge"><title>192.168.0.132&#45;&gt;192.168.0.2</title>
<path fill="none" stroke="black" d="M2365.62,-122.453C2370.89,-127.91 2376.22,-134.311 2380,-141 2391.36,-161.089 2394,-167.923 2394,-191 2394,-367 2394,-367 2394,-367 2394,-413.553 1691.34,-441.954 1468.77,-449.782"/>
<polygon fill="black" stroke="black" points="1468.41,-446.292 1458.54,-450.139 1468.65,-453.288 1468.41,-446.292"/>
<text text-anchor="middle" x="2398" y="-275.3" font-family="Times,serif" font-size="14.00">1</text>
</g>
<!-- 192.168.0.133 -->
<g id="node30" class="node"><title>192.168.0.133</title>
<ellipse fill="none" stroke="black" cx="1661" cy="-366" rx="66.8882" ry="18"/>
<text text-anchor="middle" x="1661" y="-362.3" font-family="Times,serif" font-size="14.00">192.168.0.133</text>
</g>
<!-- 192.168.0.133&#45;&gt;192.168.0.1 -->
<g id="edge11" class="edge"><title>192.168.0.133&#45;&gt;192.168.0.1</title>
<path fill="none" stroke="black" d="M1633.12,-349.41C1608.17,-335.458 1571.47,-314.935 1544.45,-299.822"/>
<polygon fill="black" stroke="black" points="1546.12,-296.747 1535.68,-294.921 1542.7,-302.857 1546.12,-296.747"/>
<text text-anchor="middle" x="1599" y="-318.8" font-family="Times,serif" font-size="14.00">2</text>
</g>
<!-- 192.168.0.140&#45;&gt;169.254.255.255 -->
<g id="edge28" class="edge"><title>192.168.0.140&#45;&gt;169.254.255.255</title>
<path fill="none" stroke="black" d="M2543.03,-181.332C2629.6,-165.841 2799.33,-135.468 2894.7,-118.401"/>
<polygon fill="black" stroke="black" points="2895.6,-121.796 2904.82,-116.589 2894.36,-114.906 2895.6,-121.796"/>
<text text-anchor="middle" x="2759" y="-144.8" font-family="Times,serif" font-size="14.00">1</text>
</g>
<!-- 192.168.0.140&#45;&gt;192.168.0.1 -->
<g id="edge31" class="edge"><title>192.168.0.140&#45;&gt;192.168.0.1</title>
<path fill="none" stroke="black" d="M2432.51,-201.75C2414.18,-204.502 2393.74,-207.479 2375,-210 2253,-226.413 2222.61,-232.023 2100,-243 1910.08,-260.003 1685.06,-270.743 1575.54,-275.368"/>
<polygon fill="black" stroke="black" points="1575.16,-271.881 1565.31,-275.797 1575.45,-278.875 1575.16,-271.881"/>
<text text-anchor="middle" x="2242" y="-231.8" font-family="Times,serif" font-size="14.00">2</text>
</g>
<!-- 192.168.0.140&#45;&gt;192.168.0.140 -->
<g id="edge63" class="edge"><title>192.168.0.140&#45;&gt;192.168.0.140</title>
<path fill="none" stroke="black" d="M2549.7,-199.701C2563.68,-199.038 2573.94,-196.471 2573.94,-192 2573.94,-188.717 2568.41,-186.46 2559.93,-185.23"/>
<polygon fill="black" stroke="black" points="2559.98,-181.72 2549.7,-184.299 2559.34,-188.691 2559.98,-181.72"/>
<text text-anchor="middle" x="2577.94" y="-188.3" font-family="Times,serif" font-size="14.00">1</text>
</g>
<!-- 192.168.0.140&#45;&gt;192.168.0.2 -->
<g id="edge8" class="edge"><title>192.168.0.140&#45;&gt;192.168.0.2</title>
<path fill="none" stroke="black" d="M2496.48,-209.915C2513.62,-251.598 2550.21,-359.992 2495,-417 2459.25,-453.913 1702.02,-453.422 1469.38,-452.393"/>
<polygon fill="black" stroke="black" points="1469.37,-448.893 1459.36,-452.347 1469.34,-455.893 1469.37,-448.893"/>
<text text-anchor="middle" x="2529" y="-318.8" font-family="Times,serif" font-size="14.00">1</text>
</g>
<!-- 192.168.0.142&#45;&gt;192.168.0.115 -->
<g id="edge6" class="edge"><title>192.168.0.142&#45;&gt;192.168.0.115</title>
<path fill="none" stroke="black" d="M2251.8,-179.046C2242.32,-177.04 2232.39,-175.218 2223,-174 2051.67,-151.773 829.097,-116.898 509.36,-108.079"/>
<polygon fill="black" stroke="black" points="509.359,-104.578 499.266,-107.801 509.166,-111.575 509.359,-104.578"/>
<text text-anchor="middle" x="1926" y="-144.8" font-family="Times,serif" font-size="14.00">1</text>
</g>
<!-- 192.168.0.142&#45;&gt;192.168.0.121 -->
<g id="edge30" class="edge"><title>192.168.0.142&#45;&gt;192.168.0.121</title>
<path fill="none" stroke="black" d="M2347.21,-179.359C2411.27,-163.888 2524.36,-136.58 2593.02,-120.002"/>
<polygon fill="black" stroke="black" points="2593.91,-123.386 2602.81,-117.636 2592.27,-116.581 2593.91,-123.386"/>
<text text-anchor="middle" x="2501" y="-144.8" font-family="Times,serif" font-size="14.00">1</text>
</g>
<!-- 192.168.0.142&#45;&gt;192.168.0.125 -->
<g id="edge23" class="edge"><title>192.168.0.142&#45;&gt;192.168.0.125</title>
<path fill="none" stroke="black" d="M2250.93,-179.293C2241.7,-177.317 2232.08,-175.442 2223,-174 1910.32,-124.361 1532.44,-110.868 1372.95,-107.272"/>
<polygon fill="black" stroke="black" points="1372.84,-103.769 1362.76,-107.05 1372.68,-110.767 1372.84,-103.769"/>
<text text-anchor="middle" x="2077" y="-144.8" font-family="Times,serif" font-size="14.00">1</text>
</g>
<!-- 192.168.0.142&#45;&gt;192.168.0.132 -->
<g id="edge7" class="edge"><title>192.168.0.142&#45;&gt;192.168.0.132</title>
<path fill="none" stroke="black" d="M2308.71,-173.799C2315.52,-161.738 2324.75,-145.403 2332.44,-131.79"/>
<polygon fill="black" stroke="black" points="2335.6,-133.314 2337.46,-122.885 2329.5,-129.872 2335.6,-133.314"/>
<text text-anchor="middle" x="2330" y="-144.8" font-family="Times,serif" font-size="14.00">1</text>
</g>
<!-- 192.168.0.2&#45;&gt;192.168.0.118 -->
<g id="edge37" class="edge"><title>192.168.0.2&#45;&gt;192.168.0.118</title>
<path fill="none" stroke="black" d="M1369.47,-437.964C1336.36,-423.68 1284.86,-401.457 1248.32,-385.689"/>
<polygon fill="black" stroke="black" points="1249.47,-382.375 1238.9,-381.627 1246.7,-388.802 1249.47,-382.375"/>
<text text-anchor="middle" x="1327.5" y="-405.8" font-family="Times,serif" font-size="14.00">212</text>
</g>
<!-- 192.168.0.2&#45;&gt;192.168.0.131 -->
<g id="edge62" class="edge"><title>192.168.0.2&#45;&gt;192.168.0.131</title>
<path fill="none" stroke="black" d="M1422.13,-436.012C1438.61,-422.917 1462.13,-404.231 1480.54,-389.605"/>
<polygon fill="black" stroke="black" points="1482.95,-392.166 1488.6,-383.205 1478.59,-386.685 1482.95,-392.166"/>
<text text-anchor="middle" x="1466" y="-405.8" font-family="Times,serif" font-size="14.00">1</text>
</g>
<!-- 192.168.0.2&#45;&gt;192.168.0.140 -->
<g id="edge36" class="edge"><title>192.168.0.2&#45;&gt;192.168.0.140</title>
<path fill="none" stroke="black" d="M1459.37,-451.768C1667.06,-450.702 2369.5,-445.029 2408,-417 2471.72,-370.612 2485.46,-269.143 2488.32,-220.316"/>
<polygon fill="black" stroke="black" points="2491.82,-220.342 2488.8,-210.187 2484.83,-220.011 2491.82,-220.342"/>
<text text-anchor="middle" x="2477" y="-318.8" font-family="Times,serif" font-size="14.00">1</text>
</g>
<!-- 192.168.0.211 -->
<g id="node37" class="node"><title>192.168.0.211</title>
<ellipse fill="none" stroke="black" cx="1357" cy="-366" rx="66.8882" ry="18"/>
<text text-anchor="middle" x="1357" y="-362.3" font-family="Times,serif" font-size="14.00">192.168.0.211</text>
</g>
<!-- 192.168.0.2&#45;&gt;192.168.0.211 -->
<g id="edge40" class="edge"><title>192.168.0.2&#45;&gt;192.168.0.211</title>
<path fill="none" stroke="black" d="M1393.11,-435.207C1386.74,-423.178 1378.04,-406.748 1370.78,-393.028"/>
<polygon fill="black" stroke="black" points="1373.8,-391.25 1366.03,-384.049 1367.61,-394.525 1373.8,-391.25"/>
<text text-anchor="middle" x="1387" y="-405.8" font-family="Times,serif" font-size="14.00">1</text>
</g>
<!-- 192.168.0.212&#45;&gt;192.168.0.113 -->
<g id="edge12" class="edge"><title>192.168.0.212&#45;&gt;192.168.0.113</title>
<path fill="none" stroke="black" d="M133,-173.799C133,-162.163 133,-146.548 133,-133.237"/>
<polygon fill="black" stroke="black" points="136.5,-133.175 133,-123.175 129.5,-133.175 136.5,-133.175"/>
<text text-anchor="middle" x="137" y="-144.8" font-family="Times,serif" font-size="14.00">1</text>
</g>
<!-- 192.168.0.212&#45;&gt;192.168.0.115 -->
<g id="edge27" class="edge"><title>192.168.0.212&#45;&gt;192.168.0.115</title>
<path fill="none" stroke="black" d="M151.766,-174.62C165.76,-163.327 185.86,-148.969 206,-141 254.088,-121.974 311.712,-113.242 356.869,-109.258"/>
<polygon fill="black" stroke="black" points="357.212,-112.742 366.891,-108.433 356.637,-105.765 357.212,-112.742"/>
<text text-anchor="middle" x="210" y="-144.8" font-family="Times,serif" font-size="14.00">1</text>
</g>
<!-- 192.168.0.212&#45;&gt;192.168.0.2 -->
<g id="edge22" class="edge"><title>192.168.0.212&#45;&gt;192.168.0.2</title>
<path fill="none" stroke="black" d="M166.186,-207.849C212.946,-229.266 300.299,-271.1 370,-315 412.948,-342.05 413.505,-366.099 461,-384 542.256,-414.627 1134.6,-441.174 1335.54,-449.385"/>
<polygon fill="black" stroke="black" points="1335.53,-452.887 1345.66,-449.796 1335.81,-445.893 1335.53,-452.887"/>
<text text-anchor="middle" x="395" y="-318.8" font-family="Times,serif" font-size="14.00">1</text>
</g>
<!-- 192.168.0.56 -->
<g id="node40" class="node"><title>192.168.0.56</title>
<ellipse fill="none" stroke="black" cx="2940" cy="-801" rx="61.99" ry="18"/>
<text text-anchor="middle" x="2940" y="-797.3" font-family="Times,serif" font-size="14.00">192.168.0.56</text>
</g>
<!-- 192.168.0.56&#45;&gt;192.168.0.101 -->
<g id="edge60" class="edge"><title>192.168.0.56&#45;&gt;192.168.0.101</title>
<path fill="none" stroke="black" d="M2940,-782.799C2940,-771.163 2940,-755.548 2940,-742.237"/>
<polygon fill="black" stroke="black" points="2943.5,-742.175 2940,-732.175 2936.5,-742.175 2943.5,-742.175"/>
<text text-anchor="middle" x="2944" y="-753.8" font-family="Times,serif" font-size="14.00">1</text>
</g>
</g>
</svg>
