<?xml version="1.0" encoding="UTF-8" standalone="no"?>
<!DOCTYPE svg PUBLIC "-//W3C//DTD SVG 1.1//EN"
 "http://www.w3.org/Graphics/SVG/1.1/DTD/svg11.dtd">
<!-- Generated by graphviz version 2.26.3 (20100126.1600)
 -->
<!-- Title: G Pages: 1 -->
<svg width="2139pt" height="1897pt"
 viewBox="0.00 0.00 2139.41 1897.41" xmlns="http://www.w3.org/2000/svg" xmlns:xlink="http://www.w3.org/1999/xlink">
<g id="graph1" class="graph" transform="scale(1 1) rotate(0) translate(4 1893.41)">
<title>G</title>
<polygon fill="white" stroke="white" points="-4,5 -4,-1893.41 2136.41,-1893.41 2136.41,5 -4,5"/>
<!-- 192.168.0.125 -->
<g id="node1" class="node"><title>192.168.0.125</title>
<ellipse fill="none" stroke="black" cx="1043.96" cy="-1720.3" rx="84.8528" ry="18.3848"/>
<text text-anchor="middle" x="1043.96" y="-1716.7" font-family="Times Roman,serif" font-size="14.00">192.168.0.125</text>
</g>
<!-- 192.168.0.142 -->
<g id="node3" class="node"><title>192.168.0.142</title>
<ellipse fill="none" stroke="black" cx="1543.81" cy="-1557.89" rx="84.8528" ry="18.3848"/>
<text text-anchor="middle" x="1543.81" y="-1554.29" font-family="Times Roman,serif" font-size="14.00">192.168.0.142</text>
</g>
<!-- 192.168.0.125&#45;&gt;192.168.0.142 -->
<g id="edge82" class="edge"><title>192.168.0.125&#45;&gt;192.168.0.142</title>
<path fill="none" stroke="black" stroke-width="0.0333333" d="M1091.43,-1704.88C1183.76,-1674.88 1387.17,-1608.79 1486.7,-1576.45"/>
<polygon fill="black" stroke="black" points="1487.86,-1579.75 1496.29,-1573.33 1485.69,-1573.09 1487.86,-1579.75"/>
</g>
<!-- 192.168.0.106 -->
<g id="node8" class="node"><title>192.168.0.106</title>
<ellipse fill="none" stroke="black" cx="355.966" cy="-1369.75" rx="84.8528" ry="18.3848"/>
<text text-anchor="middle" x="355.966" y="-1366.15" font-family="Times Roman,serif" font-size="14.00">192.168.0.106</text>
</g>
<!-- 192.168.0.125&#45;&gt;192.168.0.106 -->
<g id="edge66" class="edge"><title>192.168.0.125&#45;&gt;192.168.0.106</title>
<path fill="none" stroke="black" stroke-width="0.0333333" d="M1010.31,-1703.16C896.344,-1645.09 525.012,-1455.89 398.575,-1391.46"/>
<polygon fill="black" stroke="black" points="400.05,-1388.29 389.551,-1386.87 396.872,-1394.53 400.05,-1388.29"/>
</g>
<!-- 192.168.0.1 -->
<g id="node24" class="node"><title>192.168.0.1</title>
<ellipse fill="none" stroke="black" cx="1894.36" cy="-869.901" rx="72.1249" ry="18.3848"/>
<text text-anchor="middle" x="1894.36" y="-866.301" font-family="Times Roman,serif" font-size="14.00">192.168.0.1</text>
</g>
<!-- 192.168.0.125&#45;&gt;192.168.0.1 -->
<g id="edge92" class="edge"><title>192.168.0.125&#45;&gt;192.168.0.1</title>
<path fill="none" stroke="black" stroke-width="1.23333" d="M1062.11,-1702.15C1171.39,-1592.87 1741.23,-1023.03 1868.94,-895.319"/>
<polygon fill="black" stroke="black" points="1871.78,-897.433 1876.37,-887.887 1866.83,-892.483 1871.78,-897.433"/>
</g>
<!-- 192.168.0.140 -->
<g id="node2" class="node"><title>192.168.0.140</title>
<ellipse fill="none" stroke="black" cx="544.102" cy="-181.912" rx="84.8528" ry="18.3848"/>
<text text-anchor="middle" x="544.102" y="-178.312" font-family="Times Roman,serif" font-size="14.00">192.168.0.140</text>
</g>
<!-- 192.168.0.140&#45;&gt;192.168.0.140 -->
<g id="edge98" class="edge"><title>192.168.0.140&#45;&gt;192.168.0.140</title>
<path fill="none" stroke="black" stroke-width="0.0333333" d="M624.427,-188.186C637.844,-187.308 647.102,-185.217 647.102,-181.912 647.102,-179.511 642.215,-177.751 634.396,-176.631"/>
<polygon fill="black" stroke="black" points="634.725,-173.146 624.427,-175.638 634.031,-180.112 634.725,-173.146"/>
</g>
<!-- 192.168.0.2 -->
<g id="node22" class="node"><title>192.168.0.2</title>
<ellipse fill="none" stroke="black" cx="235.176" cy="-607.113" rx="72.1249" ry="18.3848"/>
<text text-anchor="middle" x="235.176" y="-603.513" font-family="Times Roman,serif" font-size="14.00">192.168.0.2</text>
</g>
<!-- 192.168.0.140&#45;&gt;192.168.0.2 -->
<g id="edge14" class="edge"><title>192.168.0.140&#45;&gt;192.168.0.2</title>
<path fill="none" stroke="black" stroke-width="0.0333333" d="M527.132,-200.045C472.603,-266.949 303.349,-499.715 250.786,-579.826"/>
<polygon fill="black" stroke="black" points="247.738,-578.093 245.242,-588.39 253.614,-581.897 247.738,-578.093"/>
</g>
<!-- 192.168.0.140&#45;&gt;192.168.0.1 -->
<g id="edge50" class="edge"><title>192.168.0.140&#45;&gt;192.168.0.1</title>
<path fill="none" stroke="black" stroke-width="0.0333333" d="M573.521,-199.368C747.019,-294.421 1636.05,-747.564 1848.65,-849.554"/>
<polygon fill="black" stroke="black" points="1847.15,-852.714 1857.68,-853.867 1850.17,-846.398 1847.15,-852.714"/>
</g>
<!-- 192.168.0.142&#45;&gt;192.168.0.1 -->
<g id="edge86" class="edge"><title>192.168.0.142&#45;&gt;192.168.0.1</title>
<path fill="none" stroke="black" stroke-width="0.133333" d="M1553.19,-1539.49C1601.48,-1444.7 1822.17,-1011.58 1880.29,-897.506"/>
<polygon fill="black" stroke="black" points="1883.53,-898.859 1884.95,-888.36 1877.29,-895.681 1883.53,-898.859"/>
</g>
<!-- 192.168.0.147 -->
<g id="node4" class="node"><title>192.168.0.147</title>
<ellipse fill="none" stroke="black" cx="1164.52" cy="-1869.91" rx="84.8528" ry="18.3848"/>
<text text-anchor="middle" x="1164.52" y="-1866.31" font-family="Times Roman,serif" font-size="14.00">192.168.0.147</text>
</g>
<!-- 192.168.0.147&#45;&gt;192.168.0.125 -->
<g id="edge32" class="edge"><title>192.168.0.147&#45;&gt;192.168.0.125</title>
<path fill="none" stroke="black" stroke-width="0.0666667" d="M1149.74,-1851.57C1128.58,-1825.32 1089.57,-1776.9 1065.29,-1746.78"/>
<polygon fill="black" stroke="black" points="1067.86,-1744.39 1058.86,-1738.8 1062.41,-1748.78 1067.86,-1744.39"/>
</g>
<!-- 192.168.0.123 -->
<g id="node5" class="node"><title>192.168.0.123</title>
<ellipse fill="none" stroke="black" cx="1882.45" cy="-311.786" rx="84.8528" ry="18.3848"/>
<text text-anchor="middle" x="1882.45" y="-308.186" font-family="Times Roman,serif" font-size="14.00">192.168.0.123</text>
</g>
<!-- 192.168.0.123&#45;&gt;192.168.0.1 -->
<g id="edge30" class="edge"><title>192.168.0.123&#45;&gt;192.168.0.1</title>
<path fill="none" stroke="black" stroke-width="0.133333" d="M1882.84,-330.356C1884.59,-412.213 1891.61,-741.18 1893.74,-841.024"/>
<polygon fill="black" stroke="black" points="1890.25,-841.339 1893.96,-851.262 1897.25,-841.19 1890.25,-841.339"/>
</g>
<!-- 192.168.0.104 -->
<g id="node6" class="node"><title>192.168.0.104</title>
<ellipse fill="none" stroke="black" cx="193.554" cy="-869.901" rx="84.8528" ry="18.3848"/>
<text text-anchor="middle" x="193.554" y="-866.301" font-family="Times Roman,serif" font-size="14.00">192.168.0.104</text>
</g>
<!-- 192.168.0.104&#45;&gt;192.168.0.106 -->
<g id="edge16" class="edge"><title>192.168.0.104&#45;&gt;192.168.0.106</title>
<path fill="none" stroke="black" stroke-width="0.0333333" d="M196.755,-888.53C216.01,-964.466 308.805,-1250.77 343.336,-1341.8"/>
<polygon fill="black" stroke="black" points="340.096,-1343.13 346.967,-1351.19 346.625,-1340.6 340.096,-1343.13"/>
</g>
<!-- 192.168.0.107 -->
<g id="node7" class="node"><title>192.168.0.107</title>
<ellipse fill="none" stroke="black" cx="781.167" cy="-1678.68" rx="84.8528" ry="18.3848"/>
<text text-anchor="middle" x="781.167" y="-1675.08" font-family="Times Roman,serif" font-size="14.00">192.168.0.107</text>
</g>
<!-- 192.168.0.107&#45;&gt;192.168.0.125 -->
<g id="edge2" class="edge"><title>192.168.0.107&#45;&gt;192.168.0.125</title>
<path fill="none" stroke="black" stroke-width="0.0333333" d="M850.212,-1689.62C885.379,-1695.19 928.304,-1701.99 964.804,-1707.77"/>
<polygon fill="black" stroke="black" points="964.492,-1711.26 974.916,-1709.37 965.587,-1704.35 964.492,-1711.26"/>
</g>
<!-- 192.168.0.107&#45;&gt;192.168.0.106 -->
<g id="edge18" class="edge"><title>192.168.0.107&#45;&gt;192.168.0.106</title>
<path fill="none" stroke="black" stroke-width="0.166667" d="M756.469,-1660.74C683.874,-1607.99 471.133,-1453.43 388.921,-1393.7"/>
<polygon fill="black" stroke="black" points="390.615,-1390.6 380.468,-1387.56 386.501,-1396.27 390.615,-1390.6"/>
</g>
<!-- 192.168.0.107&#45;&gt;192.168.0.1 -->
<g id="edge102" class="edge"><title>192.168.0.107&#45;&gt;192.168.0.1</title>
<path fill="none" stroke="black" stroke-width="0.766667" d="M805.715,-1660.85C950.831,-1555.41 1695.75,-1014.2 1861.6,-893.701"/>
<polygon fill="black" stroke="black" points="1863.91,-896.351 1869.94,-887.641 1859.79,-890.688 1863.91,-896.351"/>
</g>
<!-- 192.168.0.115 -->
<g id="node29" class="node"><title>192.168.0.115</title>
<ellipse fill="none" stroke="black" cx="1731.94" cy="-1369.75" rx="84.8528" ry="18.3848"/>
<text text-anchor="middle" x="1731.94" y="-1366.15" font-family="Times Roman,serif" font-size="14.00">192.168.0.115</text>
</g>
<!-- 192.168.0.107&#45;&gt;192.168.0.115 -->
<g id="edge74" class="edge"><title>192.168.0.107&#45;&gt;192.168.0.115</title>
<path fill="none" stroke="black" stroke-width="0.1" d="M828.642,-1663.26C987.826,-1611.53 1502.32,-1444.37 1674.9,-1388.29"/>
<polygon fill="black" stroke="black" points="1676.13,-1391.57 1684.56,-1385.15 1673.97,-1384.91 1676.13,-1391.57"/>
</g>
<!-- 192.168.0.106&#45;&gt;192.168.0.104 -->
<g id="edge68" class="edge"><title>192.168.0.106&#45;&gt;192.168.0.104</title>
<path fill="none" stroke="black" stroke-width="0.0333333" d="M352.766,-1351.13C333.511,-1275.19 240.716,-988.884 206.185,-897.857"/>
<polygon fill="black" stroke="black" points="209.425,-896.53 202.554,-888.464 202.895,-899.054 209.425,-896.53"/>
</g>
<!-- 192.168.0.127 -->
<g id="node9" class="node"><title>192.168.0.127</title>
<ellipse fill="none" stroke="black" cx="1543.81" cy="-181.912" rx="84.8528" ry="18.3848"/>
<text text-anchor="middle" x="1543.81" y="-178.312" font-family="Times Roman,serif" font-size="14.00">192.168.0.127</text>
</g>
<!-- 192.168.0.101 -->
<g id="node30" class="node"><title>192.168.0.101</title>
<ellipse fill="none" stroke="black" cx="1306.74" cy="-61.1216" rx="84.8528" ry="18.3848"/>
<text text-anchor="middle" x="1306.74" y="-57.5216" font-family="Times Roman,serif" font-size="14.00">192.168.0.101</text>
</g>
<!-- 192.168.0.127&#45;&gt;192.168.0.101 -->
<g id="edge8" class="edge"><title>192.168.0.127&#45;&gt;192.168.0.101</title>
<path fill="none" stroke="black" stroke-width="0.0333333" d="M1510.35,-164.862C1468.2,-143.386 1395.71,-106.454 1349.56,-82.9396"/>
<polygon fill="black" stroke="black" points="1350.92,-79.7016 1340.42,-78.2802 1347.74,-85.9386 1350.92,-79.7016"/>
</g>
<!-- 192.168.0.100 -->
<g id="node10" class="node"><title>192.168.0.100</title>
<ellipse fill="none" stroke="black" cx="1991.07" cy="-527.062" rx="84.8528" ry="18.3848"/>
<text text-anchor="middle" x="1991.07" y="-523.462" font-family="Times Roman,serif" font-size="14.00">192.168.0.100</text>
</g>
<!-- 192.168.0.100&#45;&gt;192.168.0.1 -->
<g id="edge106" class="edge"><title>192.168.0.100&#45;&gt;192.168.0.1</title>
<path fill="none" stroke="black" stroke-width="0.133333" d="M1985.73,-545.983C1969.65,-602.996 1921.58,-773.387 1902.4,-841.403"/>
<polygon fill="black" stroke="black" points="1899.02,-840.464 1899.68,-851.039 1905.76,-842.365 1899.02,-840.464"/>
</g>
<!-- 192.168.0.103 -->
<g id="node11" class="node"><title>192.168.0.103</title>
<ellipse fill="none" stroke="black" cx="1852.74" cy="-607.113" rx="84.8528" ry="18.3848"/>
<text text-anchor="middle" x="1852.74" y="-603.513" font-family="Times Roman,serif" font-size="14.00">192.168.0.103</text>
</g>
<!-- 192.168.0.103&#45;&gt;192.168.0.127 -->
<g id="edge36" class="edge"><title>192.168.0.103&#45;&gt;192.168.0.127</title>
<path fill="none" stroke="black" stroke-width="0.0666667" d="M1839.26,-588.569C1790.28,-521.157 1621.52,-288.878 1563.55,-209.082"/>
<polygon fill="black" stroke="black" points="1566.06,-206.587 1557.35,-200.554 1560.4,-210.701 1566.06,-206.587"/>
</g>
<!-- 192.168.0.103&#45;&gt;192.168.0.1 -->
<g id="edge72" class="edge"><title>192.168.0.103&#45;&gt;192.168.0.1</title>
<path fill="none" stroke="black" stroke-width="0.1" d="M1855.73,-626.012C1862.93,-671.468 1881.25,-787.141 1889.81,-841.218"/>
<polygon fill="black" stroke="black" points="1886.37,-841.844 1891.39,-851.174 1893.28,-840.749 1886.37,-841.844"/>
</g>
<!-- 192.168.0.102 -->
<g id="node12" class="node"><title>192.168.0.102</title>
<ellipse fill="none" stroke="black" cx="1731.94" cy="-370.048" rx="84.8528" ry="18.3848"/>
<text text-anchor="middle" x="1731.94" y="-366.448" font-family="Times Roman,serif" font-size="14.00">192.168.0.102</text>
</g>
<!-- 192.168.0.102&#45;&gt;192.168.0.127 -->
<g id="edge48" class="edge"><title>192.168.0.102&#45;&gt;192.168.0.127</title>
<path fill="none" stroke="black" stroke-width="0.233333" d="M1713.56,-351.666C1679.76,-317.86 1607.67,-245.77 1569.21,-207.313"/>
<polygon fill="black" stroke="black" points="1571.53,-204.688 1561.99,-200.092 1566.58,-209.638 1571.53,-204.688"/>
</g>
<!-- 192.168.0.102&#45;&gt;192.168.0.115 -->
<g id="edge52" class="edge"><title>192.168.0.102&#45;&gt;192.168.0.115</title>
<path fill="none" stroke="black" stroke-width="0.0333333" d="M1731.94,-388.687C1731.94,-510.466 1731.94,-1192.34 1731.94,-1341.1"/>
<polygon fill="black" stroke="black" points="1728.44,-1341.24 1731.94,-1351.24 1735.44,-1341.24 1728.44,-1341.24"/>
</g>
<!-- 192.168.0.128 -->
<g id="node13" class="node"><title>192.168.0.128</title>
<ellipse fill="none" stroke="black" cx="229.07" cy="-1461.95" rx="84.8528" ry="18.3848"/>
<text text-anchor="middle" x="229.07" y="-1458.35" font-family="Times Roman,serif" font-size="14.00">192.168.0.128</text>
</g>
<!-- 192.168.0.128&#45;&gt;192.168.0.106 -->
<g id="edge70" class="edge"><title>192.168.0.128&#45;&gt;192.168.0.106</title>
<path fill="none" stroke="black" stroke-width="0.0666667" d="M253.537,-1444.17C273.247,-1429.85 301.151,-1409.58 322.858,-1393.81"/>
<polygon fill="black" stroke="black" points="325.109,-1396.5 331.142,-1387.79 320.994,-1390.84 325.109,-1396.5"/>
</g>
<!-- 192.168.0.109 -->
<g id="node14" class="node"><title>192.168.0.109</title>
<ellipse fill="none" stroke="black" cx="2045.41" cy="-761.984" rx="84.8528" ry="18.3848"/>
<text text-anchor="middle" x="2045.41" y="-758.384" font-family="Times Roman,serif" font-size="14.00">192.168.0.109</text>
</g>
<!-- 192.168.0.109&#45;&gt;192.168.0.1 -->
<g id="edge88" class="edge"><title>192.168.0.109&#45;&gt;192.168.0.1</title>
<path fill="none" stroke="black" stroke-width="0.133333" d="M2020.47,-779.804C1994.95,-798.034 1955.18,-826.447 1927.14,-846.484"/>
<polygon fill="black" stroke="black" points="1924.94,-843.752 1918.84,-852.413 1929.01,-849.447 1924.94,-843.752"/>
</g>
<!-- 192.168.0.108 -->
<g id="node15" class="node"><title>192.168.0.108</title>
<ellipse fill="none" stroke="black" cx="2042.37" cy="-1003.09" rx="84.8528" ry="18.3848"/>
<text text-anchor="middle" x="2042.37" y="-999.491" font-family="Times Roman,serif" font-size="14.00">192.168.0.108</text>
</g>
<!-- 192.168.0.108&#45;&gt;192.168.0.1 -->
<g id="edge60" class="edge"><title>192.168.0.108&#45;&gt;192.168.0.1</title>
<path fill="none" stroke="black" stroke-width="0.1" d="M2022.1,-984.851C1996.19,-961.537 1951.22,-921.069 1922.13,-894.898"/>
<polygon fill="black" stroke="black" points="1924.16,-892.009 1914.38,-887.921 1919.47,-897.212 1924.16,-892.009"/>
</g>
<!-- 192.168.0.212 -->
<g id="node16" class="node"><title>192.168.0.212</title>
<ellipse fill="none" stroke="black" cx="1852.74" cy="-1132.69" rx="84.8528" ry="18.3848"/>
<text text-anchor="middle" x="1852.74" y="-1129.09" font-family="Times Roman,serif" font-size="14.00">192.168.0.212</text>
</g>
<!-- 192.168.0.212&#45;&gt;192.168.0.1 -->
<g id="edge64" class="edge"><title>192.168.0.212&#45;&gt;192.168.0.1</title>
<path fill="none" stroke="black" stroke-width="0.0333333" d="M1855.73,-1113.79C1862.93,-1068.33 1881.25,-952.662 1889.81,-898.584"/>
<polygon fill="black" stroke="black" points="1893.28,-899.054 1891.39,-888.629 1886.37,-897.959 1893.28,-899.054"/>
</g>
<!-- 169.254.255.255 -->
<g id="node17" class="node"><title>169.254.255.255</title>
<ellipse fill="none" stroke="black" cx="781.167" cy="-61.1216" rx="97.0803" ry="18.3848"/>
<text text-anchor="middle" x="781.167" y="-57.5216" font-family="Times Roman,serif" font-size="14.00">169.254.255.255</text>
</g>
<!-- 169.254.255.255&#45;&gt;192.168.0.140 -->
<g id="edge84" class="edge"><title>169.254.255.255&#45;&gt;192.168.0.140</title>
<path fill="none" stroke="black" stroke-width="0.0333333" d="M746.949,-78.5566C704.603,-100.133 632.492,-136.876 586.631,-160.243"/>
<polygon fill="black" stroke="black" points="584.865,-157.214 577.544,-164.873 588.043,-163.451 584.865,-157.214"/>
</g>
<!-- 192.168.0.119 -->
<g id="node28" class="node"><title>192.168.0.119</title>
<ellipse fill="none" stroke="black" cx="1043.96" cy="-19.5" rx="84.8528" ry="18.3848"/>
<text text-anchor="middle" x="1043.96" y="-15.9" font-family="Times Roman,serif" font-size="14.00">192.168.0.119</text>
</g>
<!-- 169.254.255.255&#45;&gt;192.168.0.119 -->
<g id="edge24" class="edge"><title>169.254.255.255&#45;&gt;192.168.0.119</title>
<path fill="none" stroke="black" stroke-width="0.0666667" d="M856.12,-49.2502C890.225,-43.8486 930.593,-37.4549 965.149,-31.9817"/>
<polygon fill="black" stroke="black" points="965.872,-35.4109 975.201,-30.3896 964.777,-28.4971 965.872,-35.4109"/>
</g>
<!-- 169.254.255.255&#45;&gt;192.168.0.101 -->
<g id="edge94" class="edge"><title>169.254.255.255&#45;&gt;192.168.0.101</title>
<path fill="none" stroke="black" stroke-width="0.0333333" d="M878.179,-61.1216C973.19,-61.1216 1117.07,-61.1216 1211.48,-61.1216"/>
<polygon fill="black" stroke="black" points="1211.59,-64.6217 1221.59,-61.1216 1211.59,-57.6217 1211.59,-64.6217"/>
</g>
<!-- 192.168.0.134 -->
<g id="node18" class="node"><title>192.168.0.134</title>
<ellipse fill="none" stroke="black" cx="923.393" cy="-1869.91" rx="84.8528" ry="18.3848"/>
<text text-anchor="middle" x="923.393" y="-1866.31" font-family="Times Roman,serif" font-size="14.00">192.168.0.134</text>
</g>
<!-- 192.168.0.134&#45;&gt;192.168.0.125 -->
<g id="edge42" class="edge"><title>192.168.0.134&#45;&gt;192.168.0.125</title>
<path fill="none" stroke="black" stroke-width="0.0666667" d="M938.176,-1851.57C959.327,-1825.32 998.343,-1776.9 1022.62,-1746.78"/>
<polygon fill="black" stroke="black" points="1025.5,-1748.78 1029.05,-1738.8 1020.05,-1744.39 1025.5,-1748.78"/>
</g>
<!-- 192.168.0.130 -->
<g id="node19" class="node"><title>192.168.0.130</title>
<ellipse fill="none" stroke="black" cx="235.176" cy="-1132.69" rx="84.8528" ry="18.3848"/>
<text text-anchor="middle" x="235.176" y="-1129.09" font-family="Times Roman,serif" font-size="14.00">192.168.0.130</text>
</g>
<!-- 192.168.0.130&#45;&gt;192.168.0.106 -->
<g id="edge44" class="edge"><title>192.168.0.130&#45;&gt;192.168.0.106</title>
<path fill="none" stroke="black" stroke-width="0.0666667" d="M244.654,-1151.29C265.823,-1192.84 317.035,-1293.35 341.922,-1342.19"/>
<polygon fill="black" stroke="black" points="338.874,-1343.92 346.532,-1351.24 345.111,-1340.74 338.874,-1343.92"/>
</g>
<!-- 192.168.0.130&#45;&gt;192.168.0.1 -->
<g id="edge100" class="edge"><title>192.168.0.130&#45;&gt;192.168.0.1</title>
<path fill="none" stroke="black" stroke-width="0.0333333" d="M304.094,-1121.77C572.864,-1079.21 1549.24,-924.562 1822.72,-881.247"/>
<polygon fill="black" stroke="black" points="1823.59,-884.653 1832.92,-879.632 1822.5,-877.74 1823.59,-884.653"/>
</g>
<!-- 192.168.0.131 -->
<g id="node20" class="node"><title>192.168.0.131</title>
<ellipse fill="none" stroke="black" cx="355.966" cy="-370.048" rx="84.8528" ry="18.3848"/>
<text text-anchor="middle" x="355.966" y="-366.448" font-family="Times Roman,serif" font-size="14.00">192.168.0.131</text>
</g>
<!-- 192.168.0.131&#45;&gt;192.168.0.2 -->
<g id="edge20" class="edge"><title>192.168.0.131&#45;&gt;192.168.0.2</title>
<path fill="none" stroke="black" stroke-width="0.0333333" d="M346.488,-388.65C325.32,-430.196 274.107,-530.706 249.22,-579.55"/>
<polygon fill="black" stroke="black" points="246.032,-578.098 244.61,-588.597 252.269,-581.276 246.032,-578.098"/>
</g>
<!-- 192.168.0.132 -->
<g id="node21" class="node"><title>192.168.0.132</title>
<ellipse fill="none" stroke="black" cx="1306.74" cy="-1678.68" rx="84.8528" ry="18.3848"/>
<text text-anchor="middle" x="1306.74" y="-1675.08" font-family="Times Roman,serif" font-size="14.00">192.168.0.132</text>
</g>
<!-- 192.168.0.132&#45;&gt;192.168.0.142 -->
<g id="edge34" class="edge"><title>192.168.0.132&#45;&gt;192.168.0.142</title>
<path fill="none" stroke="black" stroke-width="0.0333333" d="M1340.21,-1661.63C1382.36,-1640.15 1454.84,-1603.22 1500.99,-1579.71"/>
<polygon fill="black" stroke="black" points="1502.81,-1582.71 1510.13,-1575.05 1499.63,-1576.47 1502.81,-1582.71"/>
</g>
<!-- 192.168.0.2&#45;&gt;192.168.0.140 -->
<g id="edge62" class="edge"><title>192.168.0.2&#45;&gt;192.168.0.140</title>
<path fill="none" stroke="black" stroke-width="0.0333333" d="M252.146,-588.98C306.675,-522.076 475.929,-289.31 528.493,-209.199"/>
<polygon fill="black" stroke="black" points="531.54,-210.932 534.037,-200.635 525.664,-207.128 531.54,-210.932"/>
</g>
<!-- 192.168.0.2&#45;&gt;192.168.0.104 -->
<g id="edge90" class="edge"><title>192.168.0.2&#45;&gt;192.168.0.104</title>
<path fill="none" stroke="black" stroke-width="0.1" d="M232.183,-626.012C224.983,-671.468 206.662,-787.141 198.097,-841.218"/>
<polygon fill="black" stroke="black" points="194.628,-840.749 196.52,-851.174 201.542,-841.844 194.628,-840.749"/>
</g>
<!-- 192.168.0.2&#45;&gt;192.168.0.106 -->
<g id="edge28" class="edge"><title>192.168.0.2&#45;&gt;192.168.0.106</title>
<path fill="none" stroke="black" stroke-width="0.0666667" d="M238.162,-625.965C254.366,-728.275 331.743,-1216.81 351.411,-1340.99"/>
<polygon fill="black" stroke="black" points="348.01,-1341.89 353.031,-1351.22 354.924,-1340.8 348.01,-1341.89"/>
</g>
<!-- 192.168.0.2&#45;&gt;192.168.0.102 -->
<g id="edge10" class="edge"><title>192.168.0.2&#45;&gt;192.168.0.102</title>
<path fill="none" stroke="black" stroke-width="0.0333333" d="M296.641,-597.378C533.713,-559.829 1388.58,-424.431 1653.27,-382.509"/>
<polygon fill="black" stroke="black" points="1653.85,-385.96 1663.18,-380.939 1652.76,-379.046 1653.85,-385.96"/>
</g>
<!-- 192.168.0.2&#45;&gt;192.168.0.212 -->
<g id="edge40" class="edge"><title>192.168.0.2&#45;&gt;192.168.0.212</title>
<path fill="none" stroke="black" stroke-width="0.0333333" d="M280.127,-621.718C508.6,-695.954 1540.23,-1031.15 1795.48,-1114.09"/>
<polygon fill="black" stroke="black" points="1794.7,-1117.51 1805.29,-1117.27 1796.86,-1110.86 1794.7,-1117.51"/>
</g>
<!-- 192.168.0.2&#45;&gt;192.168.0.132 -->
<g id="edge26" class="edge"><title>192.168.0.2&#45;&gt;192.168.0.132</title>
<path fill="none" stroke="black" stroke-width="0.0333333" d="M253.325,-625.262C380.044,-751.981 1131.8,-1503.73 1281.01,-1652.94"/>
<polygon fill="black" stroke="black" points="1278.89,-1655.77 1288.43,-1660.37 1283.83,-1650.82 1278.89,-1655.77"/>
</g>
<!-- 192.168.0.2&#45;&gt;192.168.0.119 -->
<g id="edge96" class="edge"><title>192.168.0.2&#45;&gt;192.168.0.119</title>
<path fill="none" stroke="black" stroke-width="0.0333333" d="M259.381,-589.527C375.758,-504.974 877.618,-140.351 1011.19,-43.3041"/>
<polygon fill="black" stroke="black" points="1013.42,-46.014 1019.45,-37.3045 1009.3,-40.3508 1013.42,-46.014"/>
</g>
<!-- 192.168.0.117 -->
<g id="node23" class="node"><title>192.168.0.117</title>
<ellipse fill="none" stroke="black" cx="1982.1" cy="-1236.57" rx="84.8528" ry="18.3848"/>
<text text-anchor="middle" x="1982.1" y="-1232.97" font-family="Times Roman,serif" font-size="14.00">192.168.0.117</text>
</g>
<!-- 192.168.0.117&#45;&gt;192.168.0.1 -->
<g id="edge56" class="edge"><title>192.168.0.117&#45;&gt;192.168.0.1</title>
<path fill="none" stroke="black" stroke-width="0.2" d="M1977.63,-1217.88C1963.28,-1157.93 1918.35,-970.17 1901.15,-898.287"/>
<polygon fill="black" stroke="black" points="1904.55,-897.462 1898.82,-888.551 1897.74,-899.091 1904.55,-897.462"/>
</g>
<!-- 192.168.0.1&#45;&gt;192.168.0.140 -->
<g id="edge38" class="edge"><title>192.168.0.1&#45;&gt;192.168.0.140</title>
<path fill="none" stroke="black" stroke-width="0.0666667" d="M1865.57,-852.792C1694.01,-758.717 806.815,-306.489 591.305,-202.98"/>
<polygon fill="black" stroke="black" points="592.675,-199.755 582.144,-198.597 589.654,-206.07 592.675,-199.755"/>
</g>
<!-- 192.168.0.1&#45;&gt;192.168.0.131 -->
<g id="edge80" class="edge"><title>192.168.0.1&#45;&gt;192.168.0.131</title>
<path fill="none" stroke="black" stroke-width="0.2" d="M1849.56,-855.347C1629.11,-783.719 660.14,-468.88 413.329,-388.686"/>
<polygon fill="black" stroke="black" points="414.077,-385.249 403.485,-385.488 411.914,-391.907 414.077,-385.249"/>
</g>
<!-- 192.168.0.1&#45;&gt;192.168.0.115 -->
<g id="edge4" class="edge"><title>192.168.0.1&#45;&gt;192.168.0.115</title>
<path fill="none" stroke="black" stroke-width="0.0333333" d="M1888.29,-888.584C1863.61,-964.526 1770.74,-1250.36 1741.1,-1341.59"/>
<polygon fill="black" stroke="black" points="1737.72,-1340.65 1737.96,-1351.24 1744.38,-1342.81 1737.72,-1340.65"/>
</g>
<!-- 192.168.0.112 -->
<g id="node25" class="node"><title>192.168.0.112</title>
<ellipse fill="none" stroke="black" cx="544.102" cy="-1557.89" rx="84.8528" ry="18.3848"/>
<text text-anchor="middle" x="544.102" y="-1554.29" font-family="Times Roman,serif" font-size="14.00">192.168.0.112</text>
</g>
<!-- 192.168.0.112&#45;&gt;192.168.0.106 -->
<g id="edge22" class="edge"><title>192.168.0.112&#45;&gt;192.168.0.106</title>
<path fill="none" stroke="black" stroke-width="0.0333333" d="M525.72,-1539.51C491.915,-1505.7 419.824,-1433.61 381.367,-1395.16"/>
<polygon fill="black" stroke="black" points="383.692,-1392.53 374.146,-1387.93 378.742,-1397.48 383.692,-1392.53"/>
</g>
<!-- 192.168.0.112&#45;&gt;192.168.0.1 -->
<g id="edge78" class="edge"><title>192.168.0.112&#45;&gt;192.168.0.1</title>
<path fill="none" stroke="black" stroke-width="0.166667" d="M577.816,-1540.71C762.366,-1446.68 1649.29,-994.769 1852.72,-891.119"/>
<polygon fill="black" stroke="black" points="1854.56,-894.108 1861.88,-886.449 1851.38,-887.871 1854.56,-894.108"/>
</g>
<!-- 192.168.0.4 -->
<g id="node26" class="node"><title>192.168.0.4</title>
<ellipse fill="none" stroke="black" cx="1875.33" cy="-1438.57" rx="72.1249" ry="18.3848"/>
<text text-anchor="middle" x="1875.33" y="-1434.97" font-family="Times Roman,serif" font-size="14.00">192.168.0.4</text>
</g>
<!-- 192.168.0.4&#45;&gt;192.168.0.1 -->
<g id="edge12" class="edge"><title>192.168.0.4&#45;&gt;192.168.0.1</title>
<path fill="none" stroke="black" stroke-width="0.333333" d="M1875.95,-1419.97C1878.73,-1336.95 1890.01,-999.893 1893.39,-898.738"/>
<polygon fill="black" stroke="black" points="1896.89,-898.755 1893.73,-888.644 1889.9,-898.521 1896.89,-898.755"/>
</g>
<!-- 192.168.0.118 -->
<g id="node27" class="node"><title>192.168.0.118</title>
<ellipse fill="none" stroke="black" cx="86" cy="-558.643" rx="84.8528" ry="18.3848"/>
<text text-anchor="middle" x="86" y="-555.043" font-family="Times Roman,serif" font-size="14.00">192.168.0.118</text>
</g>
<!-- 192.168.0.118&#45;&gt;192.168.0.2 -->
<g id="edge76" class="edge"><title>192.168.0.118&#45;&gt;192.168.0.2</title>
<path fill="none" stroke="black" stroke-width="7.06667" d="M133.61,-574.112C148.509,-578.953 165.067,-584.333 180.417,-589.321"/>
<polygon fill="black" stroke="black" points="178.879,-595.322 190.3,-592.532 182.701,-583.561 178.879,-595.322"/>
</g>
<!-- 192.168.0.119&#45;&gt;192.168.0.1 -->
<g id="edge6" class="edge"><title>192.168.0.119&#45;&gt;192.168.0.1</title>
<path fill="none" stroke="black" stroke-width="0.1" d="M1062.11,-37.6553C1171.39,-146.937 1741.23,-716.772 1868.94,-844.484"/>
<polygon fill="black" stroke="black" points="1866.83,-847.32 1876.37,-851.916 1871.78,-842.37 1866.83,-847.32"/>
</g>
<!-- 192.168.0.119&#45;&gt;192.168.0.119 -->
<g id="edge104" class="edge"><title>192.168.0.119&#45;&gt;192.168.0.119</title>
<path fill="none" stroke="black" stroke-width="0.0333333" d="M1124.28,-25.7737C1137.7,-24.8959 1146.96,-22.8047 1146.96,-19.5 1146.96,-17.0989 1142.07,-15.3384 1134.25,-14.2185"/>
<polygon fill="black" stroke="black" points="1134.58,-10.734 1124.28,-13.2263 1133.88,-17.6996 1134.58,-10.734"/>
</g>
<!-- 192.168.0.115&#45;&gt;192.168.0.142 -->
<g id="edge46" class="edge"><title>192.168.0.115&#45;&gt;192.168.0.142</title>
<path fill="none" stroke="black" stroke-width="0.0333333" d="M1713.56,-1388.14C1679.76,-1421.94 1607.67,-1494.03 1569.21,-1532.49"/>
<polygon fill="black" stroke="black" points="1566.58,-1530.17 1561.99,-1539.71 1571.53,-1535.11 1566.58,-1530.17"/>
</g>
<!-- 192.168.0.115&#45;&gt;192.168.0.106 -->
<g id="edge58" class="edge"><title>192.168.0.115&#45;&gt;192.168.0.106</title>
<path fill="none" stroke="black" stroke-width="0.0666667" d="M1646.91,-1369.75C1403.78,-1369.75 706.79,-1369.75 451.313,-1369.75"/>
<polygon fill="black" stroke="black" points="451.312,-1366.25 441.312,-1369.75 451.312,-1373.25 451.312,-1366.25"/>
</g>
<!-- 192.168.0.115&#45;&gt;192.168.0.212 -->
<g id="edge54" class="edge"><title>192.168.0.115&#45;&gt;192.168.0.212</title>
<path fill="none" stroke="black" stroke-width="0.0333333" d="M1741.42,-1351.15C1762.59,-1309.61 1813.8,-1209.1 1838.69,-1160.25"/>
<polygon fill="black" stroke="black" points="1841.88,-1161.7 1843.3,-1151.21 1835.64,-1158.53 1841.88,-1161.7"/>
</g>
</g>
</svg>
