<?xml version="1.0" encoding="UTF-8" standalone="no"?>
<!DOCTYPE svg PUBLIC "-//W3C//DTD SVG 1.1//EN"
 "http://www.w3.org/Graphics/SVG/1.1/DTD/svg11.dtd">
<!-- Generated by graphviz version 2.26.3 (20100126.1600)
 -->
<!-- Title: G Pages: 1 -->
<svg width="2472pt" height="1998pt"
 viewBox="0.00 0.00 2471.57 1998.36" xmlns="http://www.w3.org/2000/svg" xmlns:xlink="http://www.w3.org/1999/xlink">
<g id="graph1" class="graph" transform="scale(1 1) rotate(0) translate(4 1994.36)">
<title>G</title>
<polygon fill="white" stroke="white" points="-4,5 -4,-1994.36 2468.57,-1994.36 2468.57,5 -4,5"/>
<!-- 10.1.200.75 -->
<g id="node1" class="node"><title>10.1.200.75</title>
<ellipse fill="none" stroke="black" cx="1715.86" cy="-280.452" rx="72.1249" ry="18.3848"/>
<text text-anchor="middle" x="1715.86" y="-276.852" font-family="Times Roman,serif" font-size="14.00">10.1.200.75</text>
</g>
<!-- 10.1.200.75&#45;&gt;10.1.200.75 -->
<g id="edge38" class="edge"><title>10.1.200.75&#45;&gt;10.1.200.75</title>
<path fill="none" stroke="black" stroke-width="0.1" d="M1783.37,-286.902C1796.52,-286.153 1805.86,-284.003 1805.86,-280.452 1805.86,-277.9 1801.04,-276.072 1793.44,-274.967"/>
<polygon fill="black" stroke="black" points="1793.66,-271.472 1783.37,-274.003 1792.99,-278.44 1793.66,-271.472"/>
</g>
<!-- 10.1.200.254 -->
<g id="node10" class="node"><title>10.1.200.254</title>
<ellipse fill="none" stroke="black" cx="1498.28" cy="-126.864" rx="77.9889" ry="18.3848"/>
<text text-anchor="middle" x="1498.28" y="-123.264" font-family="Times Roman,serif" font-size="14.00">10.1.200.254</text>
</g>
<!-- 10.1.200.75&#45;&gt;10.1.200.254 -->
<g id="edge104" class="edge"><title>10.1.200.75&#45;&gt;10.1.200.254</title>
<path fill="none" stroke="black" stroke-width="0.4" d="M1697.41,-262.312C1662.6,-234.05 1586.71,-180.039 1539.3,-149.366"/>
<polygon fill="black" stroke="black" points="1541.1,-146.365 1530.79,-143.922 1537.33,-152.26 1541.1,-146.365"/>
</g>
<!-- 0.0.0.0 -->
<g id="node19" class="node"><title>0.0.0.0</title>
<ellipse fill="none" stroke="black" cx="1883.94" cy="-487.049" rx="46.1672" ry="18.3848"/>
<text text-anchor="middle" x="1883.94" y="-483.449" font-family="Times Roman,serif" font-size="14.00">0.0.0.0</text>
</g>
<!-- 10.1.200.75&#45;&gt;0.0.0.0 -->
<g id="edge60" class="edge"><title>10.1.200.75&#45;&gt;0.0.0.0</title>
<path fill="none" stroke="black" stroke-width="0.0666667" d="M1730.78,-298.786C1760.83,-335.726 1828.73,-419.178 1863.13,-461.462"/>
<polygon fill="black" stroke="black" points="1860.51,-463.795 1869.54,-469.344 1865.94,-459.378 1860.51,-463.795"/>
</g>
<!-- 10.1.100.165 -->
<g id="node2" class="node"><title>10.1.100.165</title>
<ellipse fill="none" stroke="black" cx="981.614" cy="-1970.86" rx="77.9889" ry="18.3848"/>
<text text-anchor="middle" x="981.614" y="-1967.26" font-family="Times Roman,serif" font-size="14.00">10.1.100.165</text>
</g>
<!-- 10.1.100.165&#45;&gt;10.1.100.165 -->
<g id="edge40" class="edge"><title>10.1.100.165&#45;&gt;10.1.100.165</title>
<path fill="none" stroke="black" stroke-width="0.1" d="M1054.86,-1977.24C1068.24,-1976.44 1077.61,-1974.31 1077.61,-1970.86 1077.61,-1968.36 1072.66,-1966.55 1064.83,-1965.44"/>
<polygon fill="black" stroke="black" points="1065.15,-1961.96 1054.86,-1964.48 1064.48,-1968.93 1065.15,-1961.96"/>
</g>
<!-- 10.1.100.143 -->
<g id="node4" class="node"><title>10.1.100.143</title>
<ellipse fill="none" stroke="black" cx="1247.32" cy="-1952.69" rx="77.9889" ry="18.3848"/>
<text text-anchor="middle" x="1247.32" y="-1949.09" font-family="Times Roman,serif" font-size="14.00">10.1.100.143</text>
</g>
<!-- 10.1.100.165&#45;&gt;10.1.100.143 -->
<g id="edge68" class="edge"><title>10.1.100.165&#45;&gt;10.1.100.143</title>
<path fill="none" stroke="black" stroke-width="0.0333333" d="M1056.69,-1965.73C1089.37,-1963.49 1127.85,-1960.86 1161.65,-1958.55"/>
<polygon fill="black" stroke="black" points="1162.24,-1962.02 1171.97,-1957.84 1161.76,-1955.03 1162.24,-1962.02"/>
</g>
<!-- 10.1.100.254 -->
<g id="node11" class="node"><title>10.1.100.254</title>
<ellipse fill="none" stroke="black" cx="2026.31" cy="-995.182" rx="77.9889" ry="18.3848"/>
<text text-anchor="middle" x="2026.31" y="-991.582" font-family="Times Roman,serif" font-size="14.00">10.1.100.254</text>
</g>
<!-- 10.1.100.165&#45;&gt;10.1.100.254 -->
<g id="edge96" class="edge"><title>10.1.100.165&#45;&gt;10.1.100.254</title>
<path fill="none" stroke="black" stroke-width="1.1" d="M1003.9,-1952.89C1140.34,-1833.9 1860.85,-1161.09 2002.25,-1020.79"/>
<polygon fill="black" stroke="black" points="2005.04,-1022.95 2009.64,-1013.41 2000.09,-1018 2005.04,-1022.95"/>
</g>
<!-- 10.1.100.165&#45;&gt;0.0.0.0 -->
<g id="edge28" class="edge"><title>10.1.100.165&#45;&gt;0.0.0.0</title>
<path fill="none" stroke="black" stroke-width="0.0333333" d="M992.86,-1952.37C1087.75,-1796.33 1753.95,-700.807 1867.5,-514.08"/>
<polygon fill="black" stroke="black" points="1870.57,-515.772 1872.78,-505.409 1864.59,-512.135 1870.57,-515.772"/>
</g>
<!-- 10.1.100.223 -->
<g id="node28" class="node"><title>10.1.100.223</title>
<ellipse fill="none" stroke="black" cx="484.382" cy="-1794.15" rx="77.9889" ry="18.3848"/>
<text text-anchor="middle" x="484.382" y="-1790.55" font-family="Times Roman,serif" font-size="14.00">10.1.100.223</text>
</g>
<!-- 10.1.100.165&#45;&gt;10.1.100.223 -->
<g id="edge48" class="edge"><title>10.1.100.165&#45;&gt;10.1.100.223</title>
<path fill="none" stroke="black" stroke-width="0.0333333" d="M937.924,-1955.34C846.645,-1922.9 636.024,-1848.04 537.279,-1812.95"/>
<polygon fill="black" stroke="black" points="538.39,-1809.63 527.795,-1809.58 536.046,-1816.22 538.39,-1809.63"/>
</g>
<!-- 10.1.11.34 -->
<g id="node3" class="node"><title>10.1.11.34</title>
<ellipse fill="none" stroke="black" cx="757.228" cy="-1262.18" rx="65.7609" ry="18.3848"/>
<text text-anchor="middle" x="757.228" y="-1258.58" font-family="Times Roman,serif" font-size="14.00">10.1.11.34</text>
</g>
<!-- 10.1.100.128 -->
<g id="node13" class="node"><title>10.1.100.128</title>
<ellipse fill="none" stroke="black" cx="1498.28" cy="-1863.5" rx="77.9889" ry="18.3848"/>
<text text-anchor="middle" x="1498.28" y="-1859.9" font-family="Times Roman,serif" font-size="14.00">10.1.100.128</text>
</g>
<!-- 10.1.100.143&#45;&gt;10.1.100.128 -->
<g id="edge126" class="edge"><title>10.1.100.143&#45;&gt;10.1.100.128</title>
<path fill="none" stroke="black" stroke-width="0.166667" d="M1290.75,-1937.25C1333.71,-1921.99 1399.52,-1898.6 1445.47,-1882.27"/>
<polygon fill="black" stroke="black" points="1446.71,-1885.54 1454.96,-1878.89 1444.37,-1878.94 1446.71,-1885.54"/>
</g>
<!-- 10.1.100.157 -->
<g id="node23" class="node"><title>10.1.100.157</title>
<ellipse fill="none" stroke="black" cx="1883.94" cy="-1503.31" rx="77.9889" ry="18.3848"/>
<text text-anchor="middle" x="1883.94" y="-1499.71" font-family="Times Roman,serif" font-size="14.00">10.1.100.157</text>
</g>
<!-- 10.1.100.143&#45;&gt;10.1.100.157 -->
<g id="edge116" class="edge"><title>10.1.100.143&#45;&gt;10.1.100.157</title>
<path fill="none" stroke="black" stroke-width="0.6" d="M1272.28,-1935.07C1371.42,-1865.09 1737.52,-1606.67 1850.51,-1526.92"/>
<polygon fill="black" stroke="black" points="1852.66,-1529.68 1858.81,-1521.05 1848.63,-1523.96 1852.66,-1529.68"/>
</g>
<!-- 10.1.100.132 -->
<g id="node25" class="node"><title>10.1.100.132</title>
<ellipse fill="none" stroke="black" cx="1990.05" cy="-1259.03" rx="77.9889" ry="18.3848"/>
<text text-anchor="middle" x="1990.05" y="-1255.43" font-family="Times Roman,serif" font-size="14.00">10.1.100.132</text>
</g>
<!-- 10.1.100.143&#45;&gt;10.1.100.132 -->
<g id="edge52" class="edge"><title>10.1.100.143&#45;&gt;10.1.100.132</title>
<path fill="none" stroke="black" stroke-width="0.1" d="M1266.81,-1934.49C1369.17,-1838.89 1844.52,-1394.94 1963.16,-1284.14"/>
<polygon fill="black" stroke="black" points="1965.85,-1286.42 1970.77,-1277.04 1961.07,-1281.31 1965.85,-1286.42"/>
</g>
<!-- 169.254.255.255 -->
<g id="node5" class="node"><title>169.254.255.255</title>
<ellipse fill="none" stroke="black" cx="720.853" cy="-1916.68" rx="97.0803" ry="18.3848"/>
<text text-anchor="middle" x="720.853" y="-1913.08" font-family="Times Roman,serif" font-size="14.00">169.254.255.255</text>
</g>
<!-- 169.254.255.255&#45;&gt;10.1.200.75 -->
<g id="edge70" class="edge"><title>169.254.255.255&#45;&gt;10.1.200.75</title>
<path fill="none" stroke="black" stroke-width="0.133333" d="M732.199,-1898.02C833.287,-1731.79 1578.58,-506.208 1699.35,-307.605"/>
<polygon fill="black" stroke="black" points="1702.42,-309.295 1704.63,-298.932 1696.44,-305.658 1702.42,-309.295"/>
</g>
<!-- 169.254.255.255&#45;&gt;10.1.100.165 -->
<g id="edge88" class="edge"><title>169.254.255.255&#45;&gt;10.1.100.165</title>
<path fill="none" stroke="black" stroke-width="0.133333" d="M786.654,-1930.35C825.019,-1938.32 873.363,-1948.37 912.312,-1956.46"/>
<polygon fill="black" stroke="black" points="912.012,-1959.97 922.515,-1958.58 913.436,-1953.12 912.012,-1959.97"/>
</g>
<!-- 10.1.100.147 -->
<g id="node6" class="node"><title>10.1.100.147</title>
<ellipse fill="none" stroke="black" cx="2384.07" cy="-1237" rx="77.9889" ry="18.3848"/>
<text text-anchor="middle" x="2384.07" y="-1233.4" font-family="Times Roman,serif" font-size="14.00">10.1.100.147</text>
</g>
<!-- 10.1.200.103 -->
<g id="node7" class="node"><title>10.1.200.103</title>
<ellipse fill="none" stroke="black" cx="484.382" cy="-196.217" rx="77.9889" ry="18.3848"/>
<text text-anchor="middle" x="484.382" y="-192.617" font-family="Times Roman,serif" font-size="14.00">10.1.200.103</text>
</g>
<!-- 10.1.200.55 -->
<g id="node16" class="node"><title>10.1.200.55</title>
<ellipse fill="none" stroke="black" cx="289.737" cy="-378.002" rx="72.1249" ry="18.3848"/>
<text text-anchor="middle" x="289.737" y="-374.402" font-family="Times Roman,serif" font-size="14.00">10.1.200.55</text>
</g>
<!-- 10.1.200.103&#45;&gt;10.1.200.55 -->
<g id="edge92" class="edge"><title>10.1.200.103&#45;&gt;10.1.200.55</title>
<path fill="none" stroke="black" stroke-width="0.0333333" d="M458.986,-213.785C420.045,-246.097 346.568,-314.661 310.559,-352.231"/>
<polygon fill="black" stroke="black" points="307.781,-350.075 303.469,-359.753 312.875,-354.876 307.781,-350.075"/>
</g>
<!-- 10.1.200.194 -->
<g id="node18" class="node"><title>10.1.200.194</title>
<ellipse fill="none" stroke="black" cx="720.853" cy="-73.6867" rx="77.9889" ry="18.3848"/>
<text text-anchor="middle" x="720.853" y="-70.0867" font-family="Times Roman,serif" font-size="14.00">10.1.200.194</text>
</g>
<!-- 10.1.200.103&#45;&gt;10.1.200.194 -->
<g id="edge42" class="edge"><title>10.1.200.103&#45;&gt;10.1.200.194</title>
<path fill="none" stroke="black" stroke-width="0.1" d="M526.078,-180.444C572.096,-159.027 645.196,-121.079 687.553,-96.5646"/>
<polygon fill="black" stroke="black" points="689.505,-99.4773 696.358,-91.397 685.962,-93.4403 689.505,-99.4773"/>
</g>
<!-- 10.1.200.30 -->
<g id="node30" class="node"><title>10.1.200.30</title>
<ellipse fill="none" stroke="black" cx="1247.32" cy="-37.6751" rx="72.1249" ry="18.3848"/>
<text text-anchor="middle" x="1247.32" y="-34.0751" font-family="Times Roman,serif" font-size="14.00">10.1.200.30</text>
</g>
<!-- 10.1.200.103&#45;&gt;10.1.200.30 -->
<g id="edge84" class="edge"><title>10.1.200.103&#45;&gt;10.1.200.30</title>
<path fill="none" stroke="black" stroke-width="0.133333" d="M550.903,-186.475C698,-159.712 1048.87,-86.7452 1188.52,-53.8117"/>
<polygon fill="black" stroke="black" points="1189.68,-57.1333 1198.6,-51.4158 1188.06,-50.323 1189.68,-57.1333"/>
</g>
<!-- 10.1.100.105 -->
<g id="node8" class="node"><title>10.1.100.105</title>
<ellipse fill="none" stroke="black" cx="289.737" cy="-1612.36" rx="77.9889" ry="18.3848"/>
<text text-anchor="middle" x="289.737" y="-1608.76" font-family="Times Roman,serif" font-size="14.00">10.1.100.105</text>
</g>
<!-- 10.1.100.105&#45;&gt;10.1.100.157 -->
<g id="edge98" class="edge"><title>10.1.100.105&#45;&gt;10.1.100.157</title>
<path fill="none" stroke="black" stroke-width="0.1" d="M367.38,-1610.18C636.589,-1596.59 1528.41,-1535.61 1802.86,-1512.06"/>
<polygon fill="black" stroke="black" points="1803.47,-1515.52 1813.13,-1511.17 1802.87,-1508.54 1803.47,-1515.52"/>
</g>
<!-- 10.1.100.221 -->
<g id="node27" class="node"><title>10.1.100.221</title>
<ellipse fill="none" stroke="black" cx="79.5" cy="-862.016" rx="77.9889" ry="18.3848"/>
<text text-anchor="middle" x="79.5" y="-858.416" font-family="Times Roman,serif" font-size="14.00">10.1.100.221</text>
</g>
<!-- 10.1.100.105&#45;&gt;10.1.100.221 -->
<g id="edge114" class="edge"><title>10.1.100.105&#45;&gt;10.1.100.221</title>
<path fill="none" stroke="black" stroke-width="0.133333" d="M284.54,-1593.81C256.339,-1493.16 121.684,-1012.57 87.4369,-890.343"/>
<polygon fill="black" stroke="black" points="90.7717,-889.272 84.7034,-880.587 84.0313,-891.161 90.7717,-889.272"/>
</g>
<!-- 10.1.100.105&#45;&gt;10.1.100.223 -->
<g id="edge82" class="edge"><title>10.1.100.105&#45;&gt;10.1.100.223</title>
<path fill="none" stroke="black" stroke-width="0.166667" d="M303.616,-1630.77C334.248,-1663.9 407.862,-1733.13 451.159,-1769.99"/>
<polygon fill="black" stroke="black" points="448.968,-1772.72 458.873,-1776.48 453.475,-1767.37 448.968,-1772.72"/>
</g>
<!-- 10.1.100.222 -->
<g id="node29" class="node"><title>10.1.100.222</title>
<ellipse fill="none" stroke="black" cx="151.355" cy="-1384.8" rx="77.9889" ry="18.3848"/>
<text text-anchor="middle" x="151.355" y="-1381.2" font-family="Times Roman,serif" font-size="14.00">10.1.100.222</text>
</g>
<!-- 10.1.100.105&#45;&gt;10.1.100.222 -->
<g id="edge10" class="edge"><title>10.1.100.105&#45;&gt;10.1.100.222</title>
<path fill="none" stroke="black" stroke-width="0.2" d="M282.755,-1593.69C262.495,-1553.31 204.909,-1458 172.993,-1411.37"/>
<polygon fill="black" stroke="black" points="175.744,-1409.19 167.159,-1402.99 169.999,-1413.19 175.744,-1409.19"/>
</g>
<!-- 10.1.100.106 -->
<g id="node9" class="node"><title>10.1.100.106</title>
<ellipse fill="none" stroke="black" cx="79.5" cy="-1128.35" rx="77.9889" ry="18.3848"/>
<text text-anchor="middle" x="79.5" y="-1124.75" font-family="Times Roman,serif" font-size="14.00">10.1.100.106</text>
</g>
<!-- 10.1.100.106&#45;&gt;10.1.100.221 -->
<g id="edge106" class="edge"><title>10.1.100.106&#45;&gt;10.1.100.221</title>
<path fill="none" stroke="black" stroke-width="0.5" d="M79.5,-1109.62C79.5,-1063.78 79.5,-945.669 79.5,-890.811"/>
<polygon fill="black" stroke="black" points="83.0001,-890.723 79.5,-880.723 76.0001,-890.723 83.0001,-890.723"/>
</g>
<!-- 10.1.100.106&#45;&gt;10.1.100.223 -->
<g id="edge76" class="edge"><title>10.1.100.106&#45;&gt;10.1.100.223</title>
<path fill="none" stroke="black" stroke-width="9.3" d="M90.7514,-1146.85C147.336,-1239.9 400.736,-1656.6 467.965,-1767.15"/>
<polygon fill="black" stroke="black" points="461.036,-1771.42 473.185,-1775.73 474.942,-1762.96 461.036,-1771.42"/>
</g>
<!-- 10.1.100.106&#45;&gt;10.1.100.222 -->
<g id="edge22" class="edge"><title>10.1.100.106&#45;&gt;10.1.100.222</title>
<path fill="none" stroke="black" stroke-width="0.366667" d="M84.7837,-1147.21C97.2718,-1191.78 128.667,-1303.83 143.439,-1356.55"/>
<polygon fill="black" stroke="black" points="140.093,-1357.58 146.161,-1366.26 146.833,-1355.69 140.093,-1357.58"/>
</g>
<!-- 10.1.200.254&#45;&gt;10.1.200.75 -->
<g id="edge78" class="edge"><title>10.1.200.254&#45;&gt;10.1.200.75</title>
<path fill="none" stroke="black" stroke-width="0.0333333" d="M1516.73,-145.005C1551.64,-173.344 1627.84,-227.574 1675.23,-258.202"/>
<polygon fill="black" stroke="black" points="1673.42,-261.197 1683.73,-263.635 1677.19,-255.299 1673.42,-261.197"/>
</g>
<!-- 10.1.200.254&#45;&gt;10.1.200.103 -->
<g id="edge94" class="edge"><title>10.1.200.254&#45;&gt;10.1.200.103</title>
<path fill="none" stroke="black" stroke-width="0.466667" d="M1423.31,-131.992C1239.01,-144.599 764.644,-177.046 569.835,-190.371"/>
<polygon fill="black" stroke="black" points="569.388,-186.894 559.65,-191.068 569.866,-193.877 569.388,-186.894"/>
</g>
<!-- 10.1.200.254&#45;&gt;10.1.200.55 -->
<g id="edge46" class="edge"><title>10.1.200.254&#45;&gt;10.1.200.55</title>
<path fill="none" stroke="black" d="M1439.58,-139.062C1237.17,-181.124 569.06,-319.958 355.79,-364.276"/>
<polygon fill="black" stroke="black" points="355.06,-360.853 345.982,-366.314 356.485,-367.706 355.06,-360.853"/>
</g>
<!-- 10.1.200.80 -->
<g id="node26" class="node"><title>10.1.200.80</title>
<ellipse fill="none" stroke="black" cx="981.614" cy="-19.5" rx="72.1249" ry="18.3848"/>
<text text-anchor="middle" x="981.614" y="-15.9" font-family="Times Roman,serif" font-size="14.00">10.1.200.80</text>
</g>
<!-- 10.1.200.254&#45;&gt;10.1.200.80 -->
<g id="edge112" class="edge"><title>10.1.200.254&#45;&gt;10.1.200.80</title>
<path fill="none" stroke="black" stroke-width="0.866667" d="M1439.51,-114.653C1342.5,-94.4937 1149.49,-54.3854 1047.81,-33.2559"/>
<polygon fill="black" stroke="black" points="1048.47,-29.8175 1037.96,-31.2096 1047.04,-36.6711 1048.47,-29.8175"/>
</g>
<!-- 10.1.200.254&#45;&gt;10.1.200.30 -->
<g id="edge56" class="edge"><title>10.1.200.254&#45;&gt;10.1.200.30</title>
<path fill="none" stroke="black" stroke-width="0.166667" d="M1454.85,-111.43C1411.63,-96.07 1345.28,-72.49 1299.29,-56.144"/>
<polygon fill="black" stroke="black" points="1300.4,-52.8222 1289.8,-52.7713 1298.05,-59.4181 1300.4,-52.8222"/>
</g>
<!-- 10.1.100.254&#45;&gt;10.1.100.165 -->
<g id="edge130" class="edge"><title>10.1.100.254&#45;&gt;10.1.100.165</title>
<path fill="none" stroke="black" stroke-width="0.0333333" d="M2004.03,-1013.15C1867.59,-1132.15 1147.08,-1804.96 1005.68,-1945.26"/>
<polygon fill="black" stroke="black" points="1002.89,-1943.1 998.289,-1952.64 1007.84,-1948.05 1002.89,-1943.1"/>
</g>
<!-- 10.1.100.254&#45;&gt;10.1.100.132 -->
<g id="edge132" class="edge"><title>10.1.100.254&#45;&gt;10.1.100.132</title>
<path fill="none" stroke="black" stroke-width="0.366667" d="M2023.76,-1013.74C2017.52,-1059.15 2001.44,-1176.16 1993.97,-1230.51"/>
<polygon fill="black" stroke="black" points="1990.49,-1230.12 1992.6,-1240.5 1997.43,-1231.07 1990.49,-1230.12"/>
</g>
<!-- 10.1.100.215 -->
<g id="node12" class="node"><title>10.1.100.215</title>
<ellipse fill="none" stroke="black" cx="2245.86" cy="-662.197" rx="77.9889" ry="18.3848"/>
<text text-anchor="middle" x="2245.86" y="-658.597" font-family="Times Roman,serif" font-size="14.00">10.1.100.215</text>
</g>
<!-- 10.1.100.215&#45;&gt;10.1.100.254 -->
<g id="edge120" class="edge"><title>10.1.100.215&#45;&gt;10.1.100.254</title>
<path fill="none" stroke="black" stroke-width="3.8" d="M2233.74,-680.574C2197.08,-736.176 2087.22,-902.803 2044.03,-968.311"/>
<polygon fill="black" stroke="black" points="2040.98,-966.586 2038.39,-976.861 2046.82,-970.439 2040.98,-966.586"/>
</g>
<!-- 10.1.100.128&#45;&gt;10.1.100.157 -->
<g id="edge18" class="edge"><title>10.1.100.128&#45;&gt;10.1.100.157</title>
<path fill="none" stroke="black" stroke-width="0.0333333" d="M1517.67,-1845.39C1581.33,-1785.93 1784.08,-1596.58 1857.27,-1528.22"/>
<polygon fill="black" stroke="black" points="1859.82,-1530.63 1864.74,-1521.25 1855.05,-1525.51 1859.82,-1530.63"/>
</g>
<!-- 10.1.100.79 -->
<g id="node14" class="node"><title>10.1.100.79</title>
<ellipse fill="none" stroke="black" cx="2286.02" cy="-880.855" rx="72.1249" ry="18.3848"/>
<text text-anchor="middle" x="2286.02" y="-877.255" font-family="Times Roman,serif" font-size="14.00">10.1.100.79</text>
</g>
<!-- 10.1.100.79&#45;&gt;10.1.100.254 -->
<g id="edge102" class="edge"><title>10.1.100.79&#45;&gt;10.1.100.254</title>
<path fill="none" stroke="black" stroke-width="3.46667" d="M2249.64,-896.872C2203.47,-917.194 2123.78,-952.275 2073.13,-974.573"/>
<polygon fill="black" stroke="black" points="2071.46,-971.485 2063.71,-978.718 2074.28,-977.892 2071.46,-971.485"/>
</g>
<!-- 10.1.11.254 -->
<g id="node15" class="node"><title>10.1.11.254</title>
<ellipse fill="none" stroke="black" cx="967.114" cy="-1262.18" rx="72.1249" ry="18.3848"/>
<text text-anchor="middle" x="967.114" y="-1258.58" font-family="Times Roman,serif" font-size="14.00">10.1.11.254</text>
</g>
<!-- 10.1.11.254&#45;&gt;10.1.11.34 -->
<g id="edge26" class="edge"><title>10.1.11.254&#45;&gt;10.1.11.34</title>
<path fill="none" stroke="black" stroke-width="0.266667" d="M894.883,-1262.18C875.001,-1262.18 853.378,-1262.18 833.286,-1262.18"/>
<polygon fill="black" stroke="black" points="833.25,-1258.68 823.25,-1262.18 833.25,-1265.68 833.25,-1258.68"/>
</g>
<!-- 10.1.200.55&#45;&gt;10.1.200.103 -->
<g id="edge66" class="edge"><title>10.1.200.55&#45;&gt;10.1.200.103</title>
<path fill="none" stroke="black" stroke-width="0.0333333" d="M315.133,-360.433C354.073,-328.121 427.551,-259.557 463.56,-221.988"/>
<polygon fill="black" stroke="black" points="466.338,-224.143 470.649,-214.466 461.243,-219.342 466.338,-224.143"/>
</g>
<!-- 10.1.200.55&#45;&gt;10.1.200.194 -->
<g id="edge58" class="edge"><title>10.1.200.55&#45;&gt;10.1.200.194</title>
<path fill="none" stroke="black" stroke-width="0.0666667" d="M319.734,-361.163C399.41,-310.108 615.283,-157.777 692.751,-98.0061"/>
<polygon fill="black" stroke="black" points="694.916,-100.756 700.655,-91.8504 690.615,-95.2338 694.916,-100.756"/>
</g>
<!-- 10.1.200.55&#45;&gt;0.0.0.0 -->
<g id="edge4" class="edge"><title>10.1.200.55&#45;&gt;0.0.0.0</title>
<path fill="none" stroke="black" stroke-width="0.133333" d="M359.52,-382.775C627.245,-401.088 1585.77,-466.653 1828.01,-483.223"/>
<polygon fill="black" stroke="black" points="1828.12,-486.739 1838.34,-483.929 1828.6,-479.755 1828.12,-486.739"/>
</g>
<!-- 169.254.58.39 -->
<g id="node17" class="node"><title>169.254.58.39</title>
<ellipse fill="none" stroke="black" cx="151.355" cy="-605.561" rx="84.8528" ry="18.3848"/>
<text text-anchor="middle" x="151.355" y="-601.961" font-family="Times Roman,serif" font-size="14.00">169.254.58.39</text>
</g>
<!-- 169.254.58.39&#45;&gt;10.1.100.221 -->
<g id="edge34" class="edge"><title>169.254.58.39&#45;&gt;10.1.100.221</title>
<path fill="none" stroke="black" stroke-width="0.333333" d="M146.072,-624.419C133.584,-668.989 102.189,-781.039 87.4167,-833.761"/>
<polygon fill="black" stroke="black" points="84.0224,-832.903 84.6945,-843.476 90.7628,-834.792 84.0224,-832.903"/>
</g>
<!-- 169.254.58.39&#45;&gt;10.1.100.222 -->
<g id="edge64" class="edge"><title>169.254.58.39&#45;&gt;10.1.100.222</title>
<path fill="none" stroke="black" stroke-width="0.366667" d="M151.355,-624.437C151.355,-728.326 151.355,-1230.31 151.355,-1356.15"/>
<polygon fill="black" stroke="black" points="147.855,-1356.17 151.355,-1366.17 154.855,-1356.17 147.855,-1356.17"/>
</g>
<!-- 10.1.200.194&#45;&gt;10.1.200.103 -->
<g id="edge86" class="edge"><title>10.1.200.194&#45;&gt;10.1.200.103</title>
<path fill="none" stroke="black" stroke-width="0.1" d="M679.157,-89.4592C633.139,-110.877 560.039,-148.824 517.682,-173.339"/>
<polygon fill="black" stroke="black" points="515.73,-170.426 508.877,-178.506 519.273,-176.463 515.73,-170.426"/>
</g>
<!-- 10.1.200.194&#45;&gt;10.1.200.55 -->
<g id="edge90" class="edge"><title>10.1.200.194&#45;&gt;10.1.200.55</title>
<path fill="none" stroke="black" stroke-width="0.0333333" d="M690.514,-90.7457C610.704,-141.926 395.95,-293.465 318.247,-353.368"/>
<polygon fill="black" stroke="black" points="315.63,-350.97 309.889,-359.875 319.93,-356.494 315.63,-350.97"/>
</g>
<!-- 10.1.200.194&#45;&gt;169.254.58.39 -->
<g id="edge100" class="edge"><title>10.1.200.194&#45;&gt;169.254.58.39</title>
<path fill="none" stroke="black" stroke-width="0.0666667" d="M701.579,-91.6879C616.829,-170.839 277.138,-488.088 178.399,-580.303"/>
<polygon fill="black" stroke="black" points="175.837,-577.907 170.918,-587.291 180.615,-583.023 175.837,-577.907"/>
</g>
<!-- 10.1.200.194&#45;&gt;10.1.200.80 -->
<g id="edge2" class="edge"><title>10.1.200.194&#45;&gt;10.1.200.80</title>
<path fill="none" stroke="black" stroke-width="0.1" d="M790.591,-65.3471C833.517,-57.534 887.726,-46.1379 927.422,-36.5189"/>
<polygon fill="black" stroke="black" points="928.313,-39.9042 937.186,-34.115 926.639,-33.1072 928.313,-39.9042"/>
</g>
<!-- 10.1.200.194&#45;&gt;10.1.200.30 -->
<g id="edge80" class="edge"><title>10.1.200.194&#45;&gt;10.1.200.30</title>
<path fill="none" stroke="black" stroke-width="0.0333333" d="M798.874,-73.3169C900.01,-68.8294 1075.09,-56.8216 1173.91,-47.5665"/>
<polygon fill="black" stroke="black" points="1174.49,-51.0276 1184.11,-46.5947 1173.83,-44.0591 1174.49,-51.0276"/>
</g>
<!-- 10.1.100.98 -->
<g id="node20" class="node"><title>10.1.100.98</title>
<ellipse fill="none" stroke="black" cx="1715.86" cy="-1709.91" rx="72.1249" ry="18.3848"/>
<text text-anchor="middle" x="1715.86" y="-1706.31" font-family="Times Roman,serif" font-size="14.00">10.1.100.98</text>
</g>
<!-- 10.1.100.98&#45;&gt;10.1.100.128 -->
<g id="edge20" class="edge"><title>10.1.100.98&#45;&gt;10.1.100.128</title>
<path fill="none" stroke="black" stroke-width="0.333333" d="M1690.9,-1727.53C1651.66,-1755.23 1575.49,-1809 1531.61,-1839.97"/>
<polygon fill="black" stroke="black" points="1529.43,-1837.22 1523.28,-1845.85 1533.47,-1842.94 1529.43,-1837.22"/>
</g>
<!-- 10.1.100.98&#45;&gt;10.1.100.157 -->
<g id="edge118" class="edge"><title>10.1.100.98&#45;&gt;10.1.100.157</title>
<path fill="none" stroke="black" stroke-width="0.366667" d="M1730.78,-1691.58C1760.68,-1654.82 1828.05,-1572.02 1862.61,-1529.54"/>
<polygon fill="black" stroke="black" points="1865.46,-1531.57 1869.06,-1521.61 1860.03,-1527.16 1865.46,-1531.57"/>
</g>
<!-- 10.1.100.98&#45;&gt;10.1.100.132 -->
<g id="edge12" class="edge"><title>10.1.100.98&#45;&gt;10.1.100.132</title>
<path fill="none" stroke="black" stroke-width="0.1" d="M1727.12,-1691.4C1769.96,-1620.96 1922.89,-1369.47 1973.59,-1286.1"/>
<polygon fill="black" stroke="black" points="1976.64,-1287.82 1978.85,-1277.45 1970.66,-1284.18 1976.64,-1287.82"/>
</g>
<!-- 10.1.100.175 -->
<g id="node21" class="node"><title>10.1.100.175</title>
<ellipse fill="none" stroke="black" cx="2158.75" cy="-1196.21" rx="77.9889" ry="18.3848"/>
<text text-anchor="middle" x="2158.75" y="-1192.61" font-family="Times Roman,serif" font-size="14.00">10.1.100.175</text>
</g>
<!-- 10.1.100.175&#45;&gt;10.1.100.147 -->
<g id="edge16" class="edge"><title>10.1.100.175&#45;&gt;10.1.100.147</title>
<path fill="none" stroke="black" stroke-width="14.4" d="M2220.92,-1207.47C2249,-1212.55 2282.36,-1218.59 2311.57,-1223.88"/>
<polygon fill="black" stroke="black" points="2309.63,-1236.33 2321.71,-1225.71 2314.12,-1211.53 2309.63,-1236.33"/>
</g>
<!-- 10.1.100.175&#45;&gt;10.1.100.254 -->
<g id="edge36" class="edge"><title>10.1.100.175&#45;&gt;10.1.100.254</title>
<path fill="none" stroke="black" stroke-width="0.1" d="M2146.53,-1177.66C2123.03,-1141.98 2071.43,-1063.67 2044.11,-1022.19"/>
<polygon fill="black" stroke="black" points="2046.93,-1020.11 2038.51,-1013.69 2041.09,-1023.97 2046.93,-1020.11"/>
</g>
<!-- 10.1.0.185 -->
<g id="node22" class="node"><title>10.1.0.185</title>
<ellipse fill="none" stroke="black" cx="895.353" cy="-710.182" rx="65.7609" ry="18.3848"/>
<text text-anchor="middle" x="895.353" y="-706.582" font-family="Times Roman,serif" font-size="14.00">10.1.0.185</text>
</g>
<!-- 10.1.0.185&#45;&gt;10.1.0.185 -->
<g id="edge134" class="edge"><title>10.1.0.185&#45;&gt;10.1.0.185</title>
<path fill="none" stroke="black" stroke-width="4.9" d="M957.258,-716.694C970.111,-716.009 979.353,-713.838 979.353,-710.182 979.353,-707.611 974.784,-705.774 967.603,-704.672"/>
<polygon fill="black" stroke="black" points="967.625,-700.367 957.258,-703.669 966.798,-708.902 967.625,-700.367"/>
</g>
<!-- 10.1.100.157&#45;&gt;10.1.100.105 -->
<g id="edge74" class="edge"><title>10.1.100.157&#45;&gt;10.1.100.105</title>
<path fill="none" stroke="black" stroke-width="0.0666667" d="M1806.3,-1505.5C1537.09,-1519.08 645.265,-1580.06 370.822,-1603.62"/>
<polygon fill="black" stroke="black" points="370.205,-1600.16 360.545,-1604.51 370.809,-1607.13 370.205,-1600.16"/>
</g>
<!-- 10.1.100.157&#45;&gt;169.254.58.39 -->
<g id="edge128" class="edge"><title>10.1.100.157&#45;&gt;169.254.58.39</title>
<path fill="none" stroke="black" stroke-width="0.133333" d="M1851.26,-1486.38C1637.06,-1375.39 435.076,-752.573 193.608,-627.454"/>
<polygon fill="black" stroke="black" points="194.938,-624.201 184.449,-622.708 191.717,-630.417 194.938,-624.201"/>
</g>
<!-- 10.1.100.157&#45;&gt;10.1.100.132 -->
<g id="edge6" class="edge"><title>10.1.100.157&#45;&gt;10.1.100.132</title>
<path fill="none" stroke="black" stroke-width="0.0666667" d="M1896.21,-1484.88C1918.56,-1442.51 1964.1,-1338.07 1982.51,-1287.43"/>
<polygon fill="black" stroke="black" points="1985.9,-1288.37 1985.92,-1277.77 1979.29,-1286.04 1985.9,-1288.37"/>
</g>
<!-- 10.1.100.130 -->
<g id="node24" class="node"><title>10.1.100.130</title>
<ellipse fill="none" stroke="black" cx="1990.05" cy="-731.331" rx="77.9889" ry="18.3848"/>
<text text-anchor="middle" x="1990.05" y="-727.731" font-family="Times Roman,serif" font-size="14.00">10.1.100.130</text>
</g>
<!-- 10.1.100.130&#45;&gt;10.1.100.254 -->
<g id="edge62" class="edge"><title>10.1.100.130&#45;&gt;10.1.100.254</title>
<path fill="none" stroke="black" stroke-width="0.0333333" d="M1992.6,-749.884C1998.84,-795.302 2014.92,-912.308 2022.39,-966.655"/>
<polygon fill="black" stroke="black" points="2018.94,-967.219 2023.77,-976.649 2025.87,-966.265 2018.94,-967.219"/>
</g>
<!-- 10.1.100.130&#45;&gt;10.1.100.132 -->
<g id="edge14" class="edge"><title>10.1.100.130&#45;&gt;10.1.100.132</title>
<path fill="none" stroke="black" stroke-width="13.7667" d="M1990.05,-750.112C1990.05,-829.137 1990.05,-1134.95 1990.05,-1230.4"/>
<polygon fill="black" stroke="black" points="1978,-1230.48 1990.05,-1240.48 2002.09,-1230.48 1978,-1230.48"/>
</g>
<!-- 10.1.100.130&#45;&gt;10.1.100.221 -->
<g id="edge54" class="edge"><title>10.1.100.130&#45;&gt;10.1.100.221</title>
<path fill="none" stroke="black" stroke-width="0.666667" d="M1914.86,-736.474C1612.32,-757.168 484.883,-834.287 164.755,-856.184"/>
<polygon fill="black" stroke="black" points="164.352,-852.704 154.614,-856.878 164.829,-859.687 164.352,-852.704"/>
</g>
<!-- 10.1.100.130&#45;&gt;10.1.100.223 -->
<g id="edge44" class="edge"><title>10.1.100.130&#45;&gt;10.1.100.223</title>
<path fill="none" stroke="black" stroke-width="0.5" d="M1965.17,-748.891C1788.1,-873.879 719.913,-1627.89 517.48,-1770.78"/>
<polygon fill="black" stroke="black" points="515.45,-1767.93 509.298,-1776.56 519.487,-1773.65 515.45,-1767.93"/>
</g>
<!-- 10.1.100.132&#45;&gt;10.1.100.157 -->
<g id="edge30" class="edge"><title>10.1.100.132&#45;&gt;10.1.100.157</title>
<path fill="none" stroke="black" stroke-width="0.0333333" d="M1977.78,-1277.46C1955.43,-1319.84 1909.89,-1424.28 1891.48,-1474.92"/>
<polygon fill="black" stroke="black" points="1888.09,-1473.98 1888.07,-1484.58 1894.7,-1476.31 1888.09,-1473.98"/>
</g>
<!-- 10.1.200.80&#45;&gt;10.1.200.194 -->
<g id="edge124" class="edge"><title>10.1.200.80&#45;&gt;10.1.200.194</title>
<path fill="none" stroke="black" stroke-width="0.133333" d="M915.953,-27.1025C872.938,-34.8314 817.333,-46.4646 776.495,-56.3172"/>
<polygon fill="black" stroke="black" points="775.59,-52.9354 766.71,-58.7149 777.256,-59.7343 775.59,-52.9354"/>
</g>
<!-- 10.1.200.80&#45;&gt;10.1.200.30 -->
<g id="edge24" class="edge"><title>10.1.200.80&#45;&gt;10.1.200.30</title>
<path fill="none" stroke="black" stroke-width="0.233333" d="M1042.51,-29.4699C1078.81,-33.0383 1125.38,-36.3899 1164.94,-38.3432"/>
<polygon fill="black" stroke="black" points="1164.94,-41.8472 1175.09,-38.8207 1165.27,-34.8549 1164.94,-41.8472"/>
</g>
<!-- 10.1.100.223&#45;&gt;10.1.100.105 -->
<g id="edge8" class="edge"><title>10.1.100.223&#45;&gt;10.1.100.105</title>
<path fill="none" stroke="black" stroke-width="0.0333333" d="M470.503,-1775.74C439.87,-1742.61 366.257,-1673.38 322.96,-1636.52"/>
<polygon fill="black" stroke="black" points="325.15,-1633.78 315.245,-1630.02 320.643,-1639.14 325.15,-1633.78"/>
</g>
<!-- 10.1.100.222&#45;&gt;10.1.100.105 -->
<g id="edge108" class="edge"><title>10.1.100.222&#45;&gt;10.1.100.105</title>
<path fill="none" stroke="black" stroke-width="0.1" d="M158.337,-1403.48C178.597,-1443.86 236.183,-1539.16 268.099,-1585.8"/>
<polygon fill="black" stroke="black" points="265.348,-1587.97 273.933,-1594.18 271.093,-1583.97 265.348,-1587.97"/>
</g>
<!-- 10.1.200.30&#45;&gt;10.1.200.103 -->
<g id="edge72" class="edge"><title>10.1.200.30&#45;&gt;10.1.200.103</title>
<path fill="none" stroke="black" stroke-width="0.166667" d="M1184.42,-46.7604C1040.17,-72.8538 687.071,-146.234 545.027,-179.646"/>
<polygon fill="black" stroke="black" points="544.094,-176.27 535.17,-181.981 545.708,-183.081 544.094,-176.27"/>
</g>
<!-- 10.1.200.30&#45;&gt;10.1.200.194 -->
<g id="edge110" class="edge"><title>10.1.200.30&#45;&gt;10.1.200.194</title>
<path fill="none" stroke="black" stroke-width="0.166667" d="M1175.17,-37.7895C1076.52,-41.9982 900.237,-54.0037 798.698,-63.3831"/>
<polygon fill="black" stroke="black" points="798.136,-59.9203 788.507,-64.3397 798.79,-66.8897 798.136,-59.9203"/>
</g>
<!-- 10.1.200.30&#45;&gt;0.0.0.0 -->
<g id="edge32" class="edge"><title>10.1.200.30&#45;&gt;0.0.0.0</title>
<path fill="none" stroke="black" stroke-width="0.1" d="M1272.28,-55.2911C1371.99,-125.677 1741.75,-386.679 1852.44,-464.811"/>
<polygon fill="black" stroke="black" points="1850.66,-467.841 1860.85,-470.749 1854.7,-462.122 1850.66,-467.841"/>
</g>
<!-- 10.1.200.30&#45;&gt;10.1.200.80 -->
<g id="edge122" class="edge"><title>10.1.200.30&#45;&gt;10.1.200.80</title>
<path fill="none" stroke="black" stroke-width="1.03333" d="M1186.43,-27.7052C1150.13,-24.1368 1103.56,-20.7852 1064,-18.8319"/>
<polygon fill="black" stroke="black" points="1064,-15.3279 1053.84,-18.3544 1063.67,-22.3202 1064,-15.3279"/>
</g>
<!-- 10.1.200.30&#45;&gt;10.1.200.30 -->
<g id="edge50" class="edge"><title>10.1.200.30&#45;&gt;10.1.200.30</title>
<path fill="none" stroke="black" stroke-width="0.0333333" d="M1314.83,-44.1248C1327.99,-43.3758 1337.32,-41.2259 1337.32,-37.6751 1337.32,-35.123 1332.5,-33.2946 1324.9,-32.1898"/>
<polygon fill="black" stroke="black" points="1325.12,-28.6949 1314.83,-31.2254 1324.45,-35.663 1325.12,-28.6949"/>
</g>
</g>
</svg>
