<?xml version="1.0" encoding="UTF-8" standalone="no"?>
<!DOCTYPE svg PUBLIC "-//W3C//DTD SVG 1.1//EN"
 "http://www.w3.org/Graphics/SVG/1.1/DTD/svg11.dtd">
<!-- Generated by graphviz version 2.26.3 (20100126.1600)
 -->
<!-- Title: G Pages: 1 -->
<svg width="1995pt" height="1476pt"
 viewBox="0.00 0.00 1994.69 1475.85" xmlns="http://www.w3.org/2000/svg" xmlns:xlink="http://www.w3.org/1999/xlink">
<g id="graph1" class="graph" transform="scale(1 1) rotate(0) translate(4 1471.85)">
<title>G</title>
<polygon fill="white" stroke="white" points="-4,5 -4,-1471.85 1991.69,-1471.85 1991.69,5 -4,5"/>
<!-- 172.17.0.1 -->
<g id="node1" class="node"><title>172.17.0.1</title>
<ellipse fill="none" stroke="black" cx="1194.75" cy="-113.582" rx="65.7609" ry="18.3848"/>
<text text-anchor="middle" x="1194.75" y="-109.982" font-family="Times Roman,serif" font-size="14.00">172.17.0.1</text>
</g>
<!-- 172.17.21.48 -->
<g id="node8" class="node"><title>172.17.21.48</title>
<ellipse fill="none" stroke="black" cx="1411" cy="-113.582" rx="77.9889" ry="18.3848"/>
<text text-anchor="middle" x="1411" y="-109.982" font-family="Times Roman,serif" font-size="14.00">172.17.21.48</text>
</g>
<!-- 172.17.0.1&#45;&gt;172.17.21.48 -->
<g id="edge36" class="edge"><title>172.17.0.1&#45;&gt;172.17.21.48</title>
<path fill="none" stroke="black" stroke-width="0.133333" d="M1260.81,-113.582C1280.34,-113.582 1302.05,-113.582 1322.75,-113.582"/>
<polygon fill="black" stroke="black" points="1322.81,-117.082 1332.81,-113.582 1322.81,-110.082 1322.81,-117.082"/>
</g>
<!-- 10.254.88.88 -->
<g id="node2" class="node"><title>10.254.88.88</title>
<ellipse fill="none" stroke="black" cx="141.359" cy="-926.702" rx="77.9889" ry="18.3848"/>
<text text-anchor="middle" x="141.359" y="-923.102" font-family="Times Roman,serif" font-size="14.00">10.254.88.88</text>
</g>
<!-- 10.254.88.88&#45;&gt;10.254.88.88 -->
<g id="edge122" class="edge"><title>10.254.88.88&#45;&gt;10.254.88.88</title>
<path fill="none" stroke="black" stroke-width="0.1" d="M214.608,-933.082C227.98,-932.274 237.359,-930.148 237.359,-926.702 237.359,-924.199 232.408,-922.392 224.572,-921.281"/>
<polygon fill="black" stroke="black" points="224.897,-917.797 214.608,-920.323 224.227,-924.765 224.897,-917.797"/>
</g>
<!-- 10.254.88.1 -->
<g id="node7" class="node"><title>10.254.88.1</title>
<ellipse fill="none" stroke="black" cx="1093.48" cy="-671.582" rx="72.1249" ry="18.3848"/>
<text text-anchor="middle" x="1093.48" y="-667.982" font-family="Times Roman,serif" font-size="14.00">10.254.88.1</text>
</g>
<!-- 10.254.88.88&#45;&gt;10.254.88.1 -->
<g id="edge108" class="edge"><title>10.254.88.88&#45;&gt;10.254.88.1</title>
<path fill="none" stroke="black" stroke-width="0.0333333" d="M200.378,-914.46C372.962,-872.807 874.899,-738.278 1040.09,-689.354"/>
<polygon fill="black" stroke="black" points="1041.43,-692.606 1050.01,-686.396 1039.43,-685.898 1041.43,-692.606"/>
</g>
<!-- 0.0.0.0 -->
<g id="node25" class="node"><title>0.0.0.0</title>
<ellipse fill="none" stroke="black" cx="583.241" cy="-161.341" rx="46.1672" ry="18.3848"/>
<text text-anchor="middle" x="583.241" y="-157.741" font-family="Times Roman,serif" font-size="14.00">0.0.0.0</text>
</g>
<!-- 10.254.88.88&#45;&gt;0.0.0.0 -->
<g id="edge120" class="edge"><title>10.254.88.88&#45;&gt;0.0.0.0</title>
<path fill="none" stroke="black" stroke-width="0.1" d="M152.063,-908.162C211.153,-805.817 497.354,-310.101 567.632,-188.376"/>
<polygon fill="black" stroke="black" points="570.709,-190.047 572.678,-179.637 564.647,-186.547 570.709,-190.047"/>
</g>
<!-- 10.254.88.84 -->
<g id="node3" class="node"><title>10.254.88.84</title>
<ellipse fill="none" stroke="black" cx="476.691" cy="-1323.66" rx="77.9889" ry="18.3848"/>
<text text-anchor="middle" x="476.691" y="-1320.06" font-family="Times Roman,serif" font-size="14.00">10.254.88.84</text>
</g>
<!-- 10.254.88.84&#45;&gt;10.254.88.1 -->
<g id="edge34" class="edge"><title>10.254.88.84&#45;&gt;10.254.88.1</title>
<path fill="none" stroke="black" stroke-width="0.0333333" d="M497.323,-1305.53C591.377,-1214.17 978.187,-805.344 1072.65,-697.623"/>
<polygon fill="black" stroke="black" points="1075.51,-699.671 1079.43,-689.828 1070.23,-695.078 1075.51,-699.671"/>
</g>
<!-- 10.254.88.233 -->
<g id="node4" class="node"><title>10.254.88.233</title>
<ellipse fill="none" stroke="black" cx="328.12" cy="-229.7" rx="84.8528" ry="18.3848"/>
<text text-anchor="middle" x="328.12" y="-226.1" font-family="Times Roman,serif" font-size="14.00">10.254.88.233</text>
</g>
<!-- 10.254.88.231 -->
<g id="node6" class="node"><title>10.254.88.231</title>
<ellipse fill="none" stroke="black" cx="141.359" cy="-416.462" rx="84.8528" ry="18.3848"/>
<text text-anchor="middle" x="141.359" y="-412.862" font-family="Times Roman,serif" font-size="14.00">10.254.88.231</text>
</g>
<!-- 10.254.88.233&#45;&gt;10.254.88.231 -->
<g id="edge86" class="edge"><title>10.254.88.233&#45;&gt;10.254.88.231</title>
<path fill="none" stroke="black" stroke-width="0.133333" d="M303.904,-247.605C266.425,-280.842 195.392,-351.806 160.934,-390.369"/>
<polygon fill="black" stroke="black" points="158.13,-388.258 154.161,-398.081 163.39,-392.877 158.13,-388.258"/>
</g>
<!-- 10.254.88.233&#45;&gt;0.0.0.0 -->
<g id="edge22" class="edge"><title>10.254.88.233&#45;&gt;0.0.0.0</title>
<path fill="none" stroke="black" stroke-width="0.0333333" d="M381.913,-215.287C427.212,-203.149 491.421,-185.944 535.06,-174.251"/>
<polygon fill="black" stroke="black" points="536.111,-177.593 544.864,-171.624 534.299,-170.832 536.111,-177.593"/>
</g>
<!-- 10.254.88.86 -->
<g id="node5" class="node"><title>10.254.88.86</title>
<ellipse fill="none" stroke="black" cx="838.361" cy="-229.7" rx="77.9889" ry="18.3848"/>
<text text-anchor="middle" x="838.361" y="-226.1" font-family="Times Roman,serif" font-size="14.00">10.254.88.86</text>
</g>
<!-- 10.254.88.86&#45;&gt;10.254.88.86 -->
<g id="edge70" class="edge"><title>10.254.88.86&#45;&gt;10.254.88.86</title>
<path fill="none" stroke="black" stroke-width="0.133333" d="M911.61,-236.08C924.982,-235.272 934.361,-233.146 934.361,-229.7 934.361,-227.197 929.41,-225.39 921.574,-224.279"/>
<polygon fill="black" stroke="black" points="921.899,-220.795 911.61,-223.321 921.229,-227.763 921.899,-220.795"/>
</g>
<!-- 10.254.88.86&#45;&gt;10.254.88.1 -->
<g id="edge16" class="edge"><title>10.254.88.86&#45;&gt;10.254.88.1</title>
<path fill="none" stroke="black" stroke-width="0.0333333" d="M845.769,-248.159C880.066,-317.548 1021.27,-562.615 1073.83,-644.641"/>
<polygon fill="black" stroke="black" points="1071.13,-646.896 1079.5,-653.379 1077,-643.085 1071.13,-646.896"/>
</g>
<!-- 10.254.88.86&#45;&gt;0.0.0.0 -->
<g id="edge128" class="edge"><title>10.254.88.86&#45;&gt;0.0.0.0</title>
<path fill="none" stroke="black" stroke-width="0.1" d="M786.426,-215.785C741.147,-203.652 675.971,-186.188 631.738,-174.336"/>
<polygon fill="black" stroke="black" points="632.367,-170.881 621.801,-171.673 630.555,-177.642 632.367,-170.881"/>
</g>
<!-- 10.254.88.231&#45;&gt;10.254.88.233 -->
<g id="edge60" class="edge"><title>10.254.88.231&#45;&gt;10.254.88.233</title>
<path fill="none" stroke="black" stroke-width="0.766667" d="M165.576,-398.557C203.054,-365.321 274.088,-294.356 308.546,-255.793"/>
<polygon fill="black" stroke="black" points="311.35,-257.905 315.318,-248.081 306.09,-253.285 311.35,-257.905"/>
</g>
<!-- 10.254.88.1&#45;&gt;10.254.88.88 -->
<g id="edge8" class="edge"><title>10.254.88.1&#45;&gt;10.254.88.88</title>
<path fill="none" stroke="black" stroke-width="0.0666667" d="M1036.95,-683.225C867.204,-724.063 363.404,-859.056 196.071,-908.54"/>
<polygon fill="black" stroke="black" points="194.829,-905.258 186.243,-911.464 196.825,-911.967 194.829,-905.258"/>
</g>
<!-- 10.254.88.1&#45;&gt;10.254.88.84 -->
<g id="edge114" class="edge"><title>10.254.88.1&#45;&gt;10.254.88.84</title>
<path fill="none" stroke="black" stroke-width="0.1" d="M1073.2,-689.376C979.78,-780.035 592.23,-1189.63 497.568,-1297.57"/>
<polygon fill="black" stroke="black" points="494.697,-1295.54 490.776,-1305.38 499.979,-1300.13 494.697,-1295.54"/>
</g>
<!-- 10.254.88.1&#45;&gt;10.254.88.233 -->
<g id="edge20" class="edge"><title>10.254.88.1&#45;&gt;10.254.88.233</title>
<path fill="none" stroke="black" stroke-width="2.03333" d="M1063.95,-654.53C945.115,-585.923 501.866,-330.012 367.182,-252.253"/>
<polygon fill="black" stroke="black" points="368.805,-249.148 358.395,-247.179 365.305,-255.211 368.805,-249.148"/>
</g>
<!-- 10.254.88.1&#45;&gt;10.254.88.86 -->
<g id="edge24" class="edge"><title>10.254.88.1&#45;&gt;10.254.88.86</title>
<path fill="none" stroke="black" stroke-width="0.0333333" d="M1086.07,-653.124C1051.78,-583.735 910.568,-338.667 858.009,-256.641"/>
<polygon fill="black" stroke="black" points="860.718,-254.387 852.338,-247.904 854.846,-258.197 860.718,-254.387"/>
</g>
<!-- 10.254.88.1&#45;&gt;10.254.88.231 -->
<g id="edge74" class="edge"><title>10.254.88.1&#45;&gt;10.254.88.231</title>
<path fill="none" stroke="black" stroke-width="1.33333" d="M1043.63,-658.225C883.562,-615.334 382.706,-481.13 204.821,-433.466"/>
<polygon fill="black" stroke="black" points="205.648,-430.064 195.083,-430.857 203.836,-436.826 205.648,-430.064"/>
</g>
<!-- 10.254.88.8 -->
<g id="node9" class="node"><title>10.254.88.8</title>
<ellipse fill="none" stroke="black" cx="73" cy="-671.582" rx="72.1249" ry="18.3848"/>
<text text-anchor="middle" x="73" y="-667.982" font-family="Times Roman,serif" font-size="14.00">10.254.88.8</text>
</g>
<!-- 10.254.88.1&#45;&gt;10.254.88.8 -->
<g id="edge84" class="edge"><title>10.254.88.1&#45;&gt;10.254.88.8</title>
<path fill="none" stroke="black" stroke-width="0.0333333" d="M1022.53,-667.932C838.807,-663.87 348.332,-663.8 153.962,-667.721"/>
<polygon fill="black" stroke="black" points="153.741,-664.225 143.817,-667.935 153.888,-671.223 153.741,-664.225"/>
</g>
<!-- 10.254.88.53 -->
<g id="node10" class="node"><title>10.254.88.53</title>
<ellipse fill="none" stroke="black" cx="476.691" cy="-19.5" rx="77.9889" ry="18.3848"/>
<text text-anchor="middle" x="476.691" y="-15.9" font-family="Times Roman,serif" font-size="14.00">10.254.88.53</text>
</g>
<!-- 10.254.88.1&#45;&gt;10.254.88.53 -->
<g id="edge66" class="edge"><title>10.254.88.1&#45;&gt;10.254.88.53</title>
<path fill="none" stroke="black" stroke-width="0.0333333" d="M1079.31,-653.202C1000.03,-561.107 612.282,-150.895 504.489,-44.6507"/>
<polygon fill="black" stroke="black" points="506.814,-42.0291 497.22,-37.535 501.917,-47.0314 506.814,-42.0291"/>
</g>
<!-- 10.254.88.51 -->
<g id="node11" class="node"><title>10.254.88.51</title>
<ellipse fill="none" stroke="black" cx="704.51" cy="-22.0765" rx="77.9889" ry="18.3848"/>
<text text-anchor="middle" x="704.51" y="-18.4765" font-family="Times Roman,serif" font-size="14.00">10.254.88.51</text>
</g>
<!-- 10.254.88.1&#45;&gt;10.254.88.51 -->
<g id="edge88" class="edge"><title>10.254.88.1&#45;&gt;10.254.88.51</title>
<path fill="none" stroke="black" stroke-width="0.2" d="M1085.12,-652.987C1036.71,-561.209 794.907,-157.061 723.979,-48.806"/>
<polygon fill="black" stroke="black" points="726.848,-46.7989 718.411,-40.3911 721.011,-50.662 726.848,-46.7989"/>
</g>
<!-- 10.254.88.30 -->
<g id="node13" class="node"><title>10.254.88.30</title>
<ellipse fill="none" stroke="black" cx="583.241" cy="-1181.82" rx="77.9889" ry="18.3848"/>
<text text-anchor="middle" x="583.241" y="-1178.22" font-family="Times Roman,serif" font-size="14.00">10.254.88.30</text>
</g>
<!-- 10.254.88.1&#45;&gt;10.254.88.30 -->
<g id="edge78" class="edge"><title>10.254.88.1&#45;&gt;10.254.88.30</title>
<path fill="none" stroke="black" stroke-width="0.133333" d="M1071.8,-689.282C988.238,-765.542 688.204,-1065.46 604.818,-1155.92"/>
<polygon fill="black" stroke="black" points="602.03,-1153.78 597.871,-1163.52 607.199,-1158.5 602.03,-1153.78"/>
</g>
<!-- 10.254.88.54 -->
<g id="node14" class="node"><title>10.254.88.54</title>
<ellipse fill="none" stroke="black" cx="917.91" cy="-101.88" rx="77.9889" ry="18.3848"/>
<text text-anchor="middle" x="917.91" y="-98.2802" font-family="Times Roman,serif" font-size="14.00">10.254.88.54</text>
</g>
<!-- 10.254.88.1&#45;&gt;10.254.88.54 -->
<g id="edge98" class="edge"><title>10.254.88.1&#45;&gt;10.254.88.54</title>
<path fill="none" stroke="black" stroke-width="0.0333333" d="M1090.39,-652.835C1070.24,-569.244 966.025,-230.381 929.917,-130.013"/>
<polygon fill="black" stroke="black" points="933.171,-128.721 926.444,-120.536 926.598,-131.13 933.171,-128.721"/>
</g>
<!-- 10.254.88.13 -->
<g id="node16" class="node"><title>10.254.88.13</title>
<ellipse fill="none" stroke="black" cx="1091.52" cy="-249.422" rx="77.9889" ry="18.3848"/>
<text text-anchor="middle" x="1091.52" y="-245.822" font-family="Times Roman,serif" font-size="14.00">10.254.88.13</text>
</g>
<!-- 10.254.88.1&#45;&gt;10.254.88.13 -->
<g id="edge14" class="edge"><title>10.254.88.1&#45;&gt;10.254.88.13</title>
<path fill="none" stroke="black" stroke-width="0.0666667" d="M1096.39,-652.884C1100.87,-586.125 1100.02,-359.203 1095.28,-278.337"/>
<polygon fill="black" stroke="black" points="1098.77,-278.102 1094.62,-268.356 1091.79,-278.566 1098.77,-278.102"/>
</g>
<!-- 10.254.88.10 -->
<g id="node17" class="node"><title>10.254.88.10</title>
<ellipse fill="none" stroke="black" cx="1204.69" cy="-447.16" rx="77.9889" ry="18.3848"/>
<text text-anchor="middle" x="1204.69" y="-443.56" font-family="Times Roman,serif" font-size="14.00">10.254.88.10</text>
</g>
<!-- 10.254.88.1&#45;&gt;10.254.88.10 -->
<g id="edge106" class="edge"><title>10.254.88.1&#45;&gt;10.254.88.10</title>
<path fill="none" stroke="black" stroke-width="0.233333" d="M1107.2,-653.082C1130.48,-613.782 1176.15,-521.939 1195.78,-475.323"/>
<polygon fill="black" stroke="black" points="1199.12,-476.412 1199.66,-465.831 1192.64,-473.763 1199.12,-476.412"/>
</g>
<!-- 10.254.88.98 -->
<g id="node19" class="node"><title>10.254.88.98</title>
<ellipse fill="none" stroke="black" cx="1025.12" cy="-416.462" rx="77.9889" ry="18.3848"/>
<text text-anchor="middle" x="1025.12" y="-412.862" font-family="Times Roman,serif" font-size="14.00">10.254.88.98</text>
</g>
<!-- 10.254.88.1&#45;&gt;10.254.88.98 -->
<g id="edge54" class="edge"><title>10.254.88.1&#45;&gt;10.254.88.98</title>
<path fill="none" stroke="black" stroke-width="0.0333333" d="M1092.22,-652.693C1084.27,-608.325 1054.82,-497.316 1037.39,-444.813"/>
<polygon fill="black" stroke="black" points="1040.62,-443.456 1034.07,-435.129 1034,-445.724 1040.62,-443.456"/>
</g>
<!-- 10.254.88.95 -->
<g id="node21" class="node"><title>10.254.88.95</title>
<ellipse fill="none" stroke="black" cx="1243.97" cy="-671.582" rx="77.9889" ry="18.3848"/>
<text text-anchor="middle" x="1243.97" y="-667.982" font-family="Times Roman,serif" font-size="14.00">10.254.88.95</text>
</g>
<!-- 10.254.88.1&#45;&gt;10.254.88.95 -->
<g id="edge118" class="edge"><title>10.254.88.1&#45;&gt;10.254.88.95</title>
<path fill="none" stroke="black" stroke-width="0.166667" d="M1165.64,-671.582C1165.72,-671.582 1165.79,-671.582 1165.87,-671.582"/>
<polygon fill="black" stroke="black" points="1156.09,-675.086 1166.09,-671.582 1156.09,-668.086 1156.09,-675.086"/>
</g>
<!-- 10.254.88.91 -->
<g id="node24" class="node"><title>10.254.88.91</title>
<ellipse fill="none" stroke="black" cx="1204.69" cy="-896.004" rx="77.9889" ry="18.3848"/>
<text text-anchor="middle" x="1204.69" y="-892.404" font-family="Times Roman,serif" font-size="14.00">10.254.88.91</text>
</g>
<!-- 10.254.88.1&#45;&gt;10.254.88.91 -->
<g id="edge82" class="edge"><title>10.254.88.1&#45;&gt;10.254.88.91</title>
<path fill="none" stroke="black" stroke-width="0.133333" d="M1098.46,-690.126C1114.03,-729.687 1159.59,-822.351 1185.86,-868.678"/>
<polygon fill="black" stroke="black" points="1182.96,-870.658 1191,-877.56 1189.02,-867.152 1182.96,-870.658"/>
</g>
<!-- 10.254.88.1&#45;&gt;0.0.0.0 -->
<g id="edge96" class="edge"><title>10.254.88.1&#45;&gt;0.0.0.0</title>
<path fill="none" stroke="black" stroke-width="0.0333333" d="M1075.32,-653.422C998.042,-576.142 696.46,-274.56 607.851,-185.951"/>
<polygon fill="black" stroke="black" points="610.203,-183.353 600.657,-178.757 605.253,-188.303 610.203,-183.353"/>
</g>
<!-- 10.254.88.66 -->
<g id="node26" class="node"><title>10.254.88.66</title>
<ellipse fill="none" stroke="black" cx="1091.52" cy="-1093.74" rx="77.9889" ry="18.3848"/>
<text text-anchor="middle" x="1091.52" y="-1090.14" font-family="Times Roman,serif" font-size="14.00">10.254.88.66</text>
</g>
<!-- 10.254.88.1&#45;&gt;10.254.88.66 -->
<g id="edge52" class="edge"><title>10.254.88.1&#45;&gt;10.254.88.66</title>
<path fill="none" stroke="black" stroke-width="0.133333" d="M1093.39,-690.266C1093.08,-756.867 1092.03,-982.998 1091.65,-1064.31"/>
<polygon fill="black" stroke="black" points="1088.15,-1064.78 1091.61,-1074.79 1095.15,-1064.81 1088.15,-1064.78"/>
</g>
<!-- 10.254.88.60 -->
<g id="node28" class="node"><title>10.254.88.60</title>
<ellipse fill="none" stroke="black" cx="917.91" cy="-1241.28" rx="77.9889" ry="18.3848"/>
<text text-anchor="middle" x="917.91" y="-1237.68" font-family="Times Roman,serif" font-size="14.00">10.254.88.60</text>
</g>
<!-- 10.254.88.1&#45;&gt;10.254.88.60 -->
<g id="edge72" class="edge"><title>10.254.88.1&#45;&gt;10.254.88.60</title>
<path fill="none" stroke="black" stroke-width="0.0333333" d="M1085.01,-690.083C1053.84,-773.183 949.225,-1112.13 923.403,-1212.9"/>
<polygon fill="black" stroke="black" points="919.987,-1212.14 920.965,-1222.69 926.78,-1213.83 919.987,-1212.14"/>
</g>
<!-- 10.254.88.22 -->
<g id="node30" class="node"><title>10.254.88.22</title>
<ellipse fill="none" stroke="black" cx="704.51" cy="-1321.09" rx="77.9889" ry="18.3848"/>
<text text-anchor="middle" x="704.51" y="-1317.49" font-family="Times Roman,serif" font-size="14.00">10.254.88.22</text>
</g>
<!-- 10.254.88.1&#45;&gt;10.254.88.22 -->
<g id="edge132" class="edge"><title>10.254.88.1&#45;&gt;10.254.88.22</title>
<path fill="none" stroke="black" stroke-width="0.1" d="M1079.46,-690.077C1018.37,-781.351 777.498,-1183.34 717.825,-1293.25"/>
<polygon fill="black" stroke="black" points="714.567,-1291.92 712.928,-1302.39 720.737,-1295.23 714.567,-1291.92"/>
</g>
<!-- 10.254.88.8&#45;&gt;10.254.88.231 -->
<g id="edge48" class="edge"><title>10.254.88.8&#45;&gt;10.254.88.231</title>
<path fill="none" stroke="black" d="M78.0266,-652.822C89.8782,-608.592 119.629,-497.559 133.725,-444.954"/>
<polygon fill="black" stroke="black" points="137.118,-445.814 136.325,-435.249 130.356,-444.002 137.118,-445.814"/>
</g>
<!-- 10.254.88.8&#45;&gt;10.254.88.1 -->
<g id="edge138" class="edge"><title>10.254.88.8&#45;&gt;10.254.88.1</title>
<path fill="none" stroke="black" stroke-width="0.0333333" d="M143.948,-675.232C327.675,-679.294 818.15,-679.364 1012.52,-675.443"/>
<polygon fill="black" stroke="black" points="1012.74,-678.939 1022.66,-675.229 1012.59,-671.941 1012.74,-678.939"/>
</g>
<!-- 10.254.88.8&#45;&gt;10.254.88.8 -->
<g id="edge46" class="edge"><title>10.254.88.8&#45;&gt;10.254.88.8</title>
<path fill="none" stroke="black" stroke-width="0.133333" d="M140.509,-678.032C153.661,-677.283 163,-675.133 163,-671.582 163,-669.03 158.175,-667.201 150.578,-666.097"/>
<polygon fill="black" stroke="black" points="150.797,-662.602 140.509,-665.132 150.13,-669.57 150.797,-662.602"/>
</g>
<!-- 10.254.88.8&#45;&gt;0.0.0.0 -->
<g id="edge68" class="edge"><title>10.254.88.8&#45;&gt;0.0.0.0</title>
<path fill="none" stroke="black" stroke-width="0.0666667" d="M91.1597,-653.422C168.44,-576.142 470.022,-274.56 558.631,-185.951"/>
<polygon fill="black" stroke="black" points="561.229,-188.303 565.825,-178.757 556.279,-183.353 561.229,-188.303"/>
</g>
<!-- 10.254.88.53&#45;&gt;10.254.88.1 -->
<g id="edge10" class="edge"><title>10.254.88.53&#45;&gt;10.254.88.1</title>
<path fill="none" stroke="black" stroke-width="0.0333333" d="M490.86,-37.88C570.144,-129.975 957.891,-540.187 1065.68,-646.431"/>
<polygon fill="black" stroke="black" points="1063.36,-649.053 1072.95,-653.547 1068.26,-644.051 1063.36,-649.053"/>
</g>
<!-- 10.254.88.53&#45;&gt;10.254.88.53 -->
<g id="edge100" class="edge"><title>10.254.88.53&#45;&gt;10.254.88.53</title>
<path fill="none" stroke="black" stroke-width="0.0666667" d="M549.94,-25.8792C563.312,-25.0717 572.691,-22.9453 572.691,-19.5 572.691,-16.9968 567.74,-15.1898 559.904,-14.079"/>
<polygon fill="black" stroke="black" points="560.229,-10.5943 549.94,-13.1208 559.559,-17.5621 560.229,-10.5943"/>
</g>
<!-- 10.254.88.51&#45;&gt;10.254.88.1 -->
<g id="edge130" class="edge"><title>10.254.88.51&#45;&gt;10.254.88.1</title>
<path fill="none" stroke="black" stroke-width="0.0333333" d="M712.873,-40.6716C761.281,-132.449 1003.09,-536.597 1074.01,-644.853"/>
<polygon fill="black" stroke="black" points="1071.14,-646.86 1079.58,-653.267 1076.98,-642.996 1071.14,-646.86"/>
</g>
<!-- 10.254.80.21 -->
<g id="node12" class="node"><title>10.254.80.21</title>
<ellipse fill="none" stroke="black" cx="1207.41" cy="-1250.58" rx="77.9889" ry="18.3848"/>
<text text-anchor="middle" x="1207.41" y="-1246.98" font-family="Times Roman,serif" font-size="14.00">10.254.80.21</text>
</g>
<!-- 10.254.88.30&#45;&gt;10.254.88.1 -->
<g id="edge112" class="edge"><title>10.254.88.30&#45;&gt;10.254.88.1</title>
<path fill="none" stroke="black" stroke-width="0.0333333" d="M605.246,-1163.82C689.28,-1087.07 988.742,-787.712 1071.95,-697.434"/>
<polygon fill="black" stroke="black" points="1074.73,-699.588 1078.88,-689.844 1069.56,-694.868 1074.73,-699.588"/>
</g>
<!-- 10.254.88.30&#45;&gt;10.254.88.30 -->
<g id="edge4" class="edge"><title>10.254.88.30&#45;&gt;10.254.88.30</title>
<path fill="none" stroke="black" stroke-width="0.1" d="M656.49,-1188.2C669.862,-1187.39 679.241,-1185.27 679.241,-1181.82 679.241,-1179.32 674.29,-1177.51 666.453,-1176.4"/>
<polygon fill="black" stroke="black" points="666.779,-1172.92 656.49,-1175.44 666.109,-1179.88 666.779,-1172.92"/>
</g>
<!-- 10.254.88.30&#45;&gt;0.0.0.0 -->
<g id="edge104" class="edge"><title>10.254.88.30&#45;&gt;0.0.0.0</title>
<path fill="none" stroke="black" stroke-width="0.0333333" d="M583.241,-1163.24C583.241,-1040.03 583.241,-341.31 583.241,-190.169"/>
<polygon fill="black" stroke="black" points="586.741,-189.869 583.241,-179.869 579.741,-189.869 586.741,-189.869"/>
</g>
<!-- 10.254.88.54&#45;&gt;10.254.88.1 -->
<g id="edge92" class="edge"><title>10.254.88.54&#45;&gt;10.254.88.1</title>
<path fill="none" stroke="black" stroke-width="0.0333333" d="M921.001,-120.628C941.152,-204.218 1045.37,-543.081 1081.48,-643.449"/>
<polygon fill="black" stroke="black" points="1078.22,-644.741 1084.95,-652.926 1084.79,-642.332 1078.22,-644.741"/>
</g>
<!-- 10.254.88.54&#45;&gt;10.254.88.54 -->
<g id="edge40" class="edge"><title>10.254.88.54&#45;&gt;10.254.88.54</title>
<path fill="none" stroke="black" stroke-width="0.0666667" d="M991.159,-108.259C1004.53,-107.452 1013.91,-105.326 1013.91,-101.88 1013.91,-99.377 1008.96,-97.57 1001.12,-96.4593"/>
<polygon fill="black" stroke="black" points="1001.45,-92.9745 991.159,-95.501 1000.78,-99.9424 1001.45,-92.9745"/>
</g>
<!-- 169.254.255.255 -->
<g id="node15" class="node"><title>169.254.255.255</title>
<ellipse fill="none" stroke="black" cx="328.12" cy="-1113.46" rx="97.0803" ry="18.3848"/>
<text text-anchor="middle" x="328.12" y="-1109.86" font-family="Times Roman,serif" font-size="14.00">169.254.255.255</text>
</g>
<!-- 169.254.255.255&#45;&gt;10.254.88.88 -->
<g id="edge124" class="edge"><title>169.254.255.255&#45;&gt;10.254.88.88</title>
<path fill="none" stroke="black" stroke-width="0.0333333" d="M309.873,-1095.22C276.314,-1061.66 204.75,-990.093 166.575,-951.918"/>
<polygon fill="black" stroke="black" points="168.952,-949.345 159.406,-944.749 164.002,-954.295 168.952,-949.345"/>
</g>
<!-- 169.254.255.255&#45;&gt;10.254.88.8 -->
<g id="edge62" class="edge"><title>169.254.255.255&#45;&gt;10.254.88.8</title>
<path fill="none" stroke="black" stroke-width="0.0666667" d="M317.483,-1095.04C277.529,-1025.84 136.293,-781.208 88.7509,-698.863"/>
<polygon fill="black" stroke="black" points="91.714,-696.995 83.6828,-690.085 85.6518,-700.495 91.714,-696.995"/>
</g>
<!-- 169.254.255.255&#45;&gt;10.254.88.30 -->
<g id="edge2" class="edge"><title>169.254.255.255&#45;&gt;10.254.88.30</title>
<path fill="none" stroke="black" stroke-width="0.1" d="M384.423,-1128.55C425.042,-1139.43 479.853,-1154.12 521.639,-1165.32"/>
<polygon fill="black" stroke="black" points="520.858,-1168.73 531.423,-1167.94 522.67,-1161.97 520.858,-1168.73"/>
</g>
<!-- 10.254.88.104 -->
<g id="node20" class="node"><title>10.254.88.104</title>
<ellipse fill="none" stroke="black" cx="838.361" cy="-1113.46" rx="84.8528" ry="18.3848"/>
<text text-anchor="middle" x="838.361" y="-1109.86" font-family="Times Roman,serif" font-size="14.00">10.254.88.104</text>
</g>
<!-- 169.254.255.255&#45;&gt;10.254.88.104 -->
<g id="edge102" class="edge"><title>169.254.255.255&#45;&gt;10.254.88.104</title>
<path fill="none" stroke="black" stroke-width="0.0333333" d="M425.294,-1113.46C516.567,-1113.46 652.308,-1113.46 742.99,-1113.46"/>
<polygon fill="black" stroke="black" points="742.993,-1116.96 752.993,-1113.46 742.993,-1109.96 742.993,-1116.96"/>
</g>
<!-- 10.254.88.63 -->
<g id="node27" class="node"><title>10.254.88.63</title>
<ellipse fill="none" stroke="black" cx="1025.12" cy="-926.702" rx="77.9889" ry="18.3848"/>
<text text-anchor="middle" x="1025.12" y="-923.102" font-family="Times Roman,serif" font-size="14.00">10.254.88.63</text>
</g>
<!-- 169.254.255.255&#45;&gt;10.254.88.63 -->
<g id="edge80" class="edge"><title>169.254.255.255&#45;&gt;10.254.88.63</title>
<path fill="none" stroke="black" stroke-width="0.0333333" d="M384.569,-1098.34C513.726,-1063.73 829.907,-979.01 963.711,-943.157"/>
<polygon fill="black" stroke="black" points="964.655,-946.528 973.408,-940.559 962.843,-939.767 964.655,-946.528"/>
</g>
<!-- 10.254.88.13&#45;&gt;10.254.88.1 -->
<g id="edge26" class="edge"><title>10.254.88.13&#45;&gt;10.254.88.1</title>
<path fill="none" stroke="black" stroke-width="0.0333333" d="M1088.61,-268.121C1084.13,-334.879 1084.98,-561.801 1089.72,-642.667"/>
<polygon fill="black" stroke="black" points="1086.23,-642.902 1090.38,-652.648 1093.21,-642.439 1086.23,-642.902"/>
</g>
<!-- 10.254.88.13&#45;&gt;10.254.88.13 -->
<g id="edge110" class="edge"><title>10.254.88.13&#45;&gt;10.254.88.13</title>
<path fill="none" stroke="black" stroke-width="0.0333333" d="M1164.77,-255.802C1178.14,-254.994 1187.52,-252.868 1187.52,-249.422 1187.52,-246.919 1182.57,-245.112 1174.73,-244.001"/>
<polygon fill="black" stroke="black" points="1175.06,-240.517 1164.77,-243.043 1174.39,-247.485 1175.06,-240.517"/>
</g>
<!-- 10.254.88.10&#45;&gt;10.254.88.1 -->
<g id="edge116" class="edge"><title>10.254.88.10&#45;&gt;10.254.88.1</title>
<path fill="none" stroke="black" stroke-width="0.0333333" d="M1190.97,-465.66C1167.69,-504.96 1122.02,-596.803 1102.39,-643.419"/>
<polygon fill="black" stroke="black" points="1099.05,-642.33 1098.51,-652.911 1105.53,-644.979 1099.05,-642.33"/>
</g>
<!-- 10.254.80.1 -->
<g id="node18" class="node"><title>10.254.80.1</title>
<ellipse fill="none" stroke="black" cx="1671.73" cy="-1250.58" rx="72.1249" ry="18.3848"/>
<text text-anchor="middle" x="1671.73" y="-1246.98" font-family="Times Roman,serif" font-size="14.00">10.254.80.1</text>
</g>
<!-- 10.254.80.1&#45;&gt;10.254.80.21 -->
<g id="edge134" class="edge"><title>10.254.80.1&#45;&gt;10.254.80.21</title>
<path fill="none" stroke="black" stroke-width="0.7" d="M1599.69,-1250.58C1517.73,-1250.58 1383.86,-1250.58 1295.69,-1250.58"/>
<polygon fill="black" stroke="black" points="1295.44,-1247.08 1285.44,-1250.58 1295.44,-1254.08 1295.44,-1247.08"/>
</g>
<!-- 10.254.80.201 -->
<g id="node22" class="node"><title>10.254.80.201</title>
<ellipse fill="none" stroke="black" cx="1556.32" cy="-1052.81" rx="84.8528" ry="18.3848"/>
<text text-anchor="middle" x="1556.32" y="-1049.21" font-family="Times Roman,serif" font-size="14.00">10.254.80.201</text>
</g>
<!-- 10.254.80.1&#45;&gt;10.254.80.201 -->
<g id="edge94" class="edge"><title>10.254.80.1&#45;&gt;10.254.80.201</title>
<path fill="none" stroke="black" stroke-width="0.333333" d="M1660.87,-1231.98C1640.41,-1196.92 1596.08,-1120.94 1572.24,-1080.09"/>
<polygon fill="black" stroke="black" points="1575.13,-1078.1 1567.07,-1071.23 1569.08,-1081.63 1575.13,-1078.1"/>
</g>
<!-- 10.254.80.221 -->
<g id="node23" class="node"><title>10.254.80.221</title>
<ellipse fill="none" stroke="black" cx="1900.69" cy="-1253.76" rx="84.8528" ry="18.3848"/>
<text text-anchor="middle" x="1900.69" y="-1250.16" font-family="Times Roman,serif" font-size="14.00">10.254.80.221</text>
</g>
<!-- 10.254.80.1&#45;&gt;10.254.80.221 -->
<g id="edge38" class="edge"><title>10.254.80.1&#45;&gt;10.254.80.221</title>
<path fill="none" stroke="black" stroke-width="0.433333" d="M1743.86,-1251.58C1763.46,-1251.86 1784.99,-1252.16 1805.64,-1252.44"/>
<polygon fill="black" stroke="black" points="1805.66,-1255.94 1815.7,-1252.58 1805.75,-1248.94 1805.66,-1255.94"/>
</g>
<!-- 10.254.80.54 -->
<g id="node29" class="node"><title>10.254.80.54</title>
<ellipse fill="none" stroke="black" cx="1556.32" cy="-1448.35" rx="77.9889" ry="18.3848"/>
<text text-anchor="middle" x="1556.32" y="-1444.75" font-family="Times Roman,serif" font-size="14.00">10.254.80.54</text>
</g>
<!-- 10.254.80.1&#45;&gt;10.254.80.54 -->
<g id="edge58" class="edge"><title>10.254.80.1&#45;&gt;10.254.80.54</title>
<path fill="none" stroke="black" stroke-width="1.06667" d="M1660.87,-1269.19C1640.41,-1304.25 1596.08,-1380.23 1572.24,-1421.07"/>
<polygon fill="black" stroke="black" points="1569.08,-1419.54 1567.07,-1429.94 1575.13,-1423.07 1569.08,-1419.54"/>
</g>
<!-- 10.254.88.98&#45;&gt;10.254.88.1 -->
<g id="edge76" class="edge"><title>10.254.88.98&#45;&gt;10.254.88.1</title>
<path fill="none" stroke="black" stroke-width="0.0333333" d="M1026.39,-435.35C1034.33,-479.719 1063.79,-590.728 1081.22,-643.231"/>
<polygon fill="black" stroke="black" points="1077.98,-644.587 1084.53,-652.914 1084.6,-642.32 1077.98,-644.587"/>
</g>
<!-- 10.254.88.98&#45;&gt;10.254.88.98 -->
<g id="edge44" class="edge"><title>10.254.88.98&#45;&gt;10.254.88.98</title>
<path fill="none" stroke="black" stroke-width="0.0333333" d="M1098.37,-422.841C1111.74,-422.033 1121.12,-419.907 1121.12,-416.462 1121.12,-413.958 1116.17,-412.151 1108.33,-411.041"/>
<polygon fill="black" stroke="black" points="1108.66,-407.556 1098.37,-410.082 1107.99,-414.524 1108.66,-407.556"/>
</g>
<!-- 10.254.88.98&#45;&gt;0.0.0.0 -->
<g id="edge12" class="edge"><title>10.254.88.98&#45;&gt;0.0.0.0</title>
<path fill="none" stroke="black" stroke-width="0.0666667" d="M995.443,-399.326C916.748,-353.891 703.004,-230.487 618.4,-181.64"/>
<polygon fill="black" stroke="black" points="620.089,-178.574 609.679,-176.605 616.589,-184.636 620.089,-178.574"/>
</g>
<!-- 10.254.88.104&#45;&gt;10.254.88.1 -->
<g id="edge18" class="edge"><title>10.254.88.104&#45;&gt;10.254.88.1</title>
<path fill="none" stroke="black" stroke-width="0.0333333" d="M848.999,-1095.04C888.952,-1025.84 1030.19,-781.208 1077.73,-698.863"/>
<polygon fill="black" stroke="black" points="1080.83,-700.495 1082.8,-690.085 1074.77,-696.995 1080.83,-700.495"/>
</g>
<!-- 10.254.88.104&#45;&gt;10.254.88.104 -->
<g id="edge56" class="edge"><title>10.254.88.104&#45;&gt;10.254.88.104</title>
<path fill="none" stroke="black" stroke-width="0.1" d="M918.686,-1119.74C932.103,-1118.86 941.361,-1116.77 941.361,-1113.46 941.361,-1111.06 936.474,-1109.3 928.655,-1108.18"/>
<polygon fill="black" stroke="black" points="928.984,-1104.7 918.686,-1107.19 928.29,-1111.66 928.984,-1104.7"/>
</g>
<!-- 10.254.88.104&#45;&gt;0.0.0.0 -->
<g id="edge126" class="edge"><title>10.254.88.104&#45;&gt;0.0.0.0</title>
<path fill="none" stroke="black" stroke-width="0.0666667" d="M833.38,-1094.87C801.79,-976.978 629.445,-333.779 590.893,-189.9"/>
<polygon fill="black" stroke="black" points="594.224,-188.806 588.254,-180.052 587.462,-190.618 594.224,-188.806"/>
</g>
<!-- 10.254.88.95&#45;&gt;10.254.88.95 -->
<g id="edge30" class="edge"><title>10.254.88.95&#45;&gt;10.254.88.95</title>
<path fill="none" stroke="black" stroke-width="0.0333333" d="M1317.22,-677.961C1330.59,-677.154 1339.97,-675.027 1339.97,-671.582 1339.97,-669.079 1335.02,-667.272 1327.18,-666.161"/>
<polygon fill="black" stroke="black" points="1327.51,-662.676 1317.22,-665.203 1326.84,-669.644 1327.51,-662.676"/>
</g>
<!-- 10.254.88.91&#45;&gt;10.254.88.1 -->
<g id="edge32" class="edge"><title>10.254.88.91&#45;&gt;10.254.88.1</title>
<path fill="none" stroke="black" stroke-width="0.0333333" d="M1199.71,-877.46C1184.14,-837.899 1138.58,-745.235 1112.31,-698.908"/>
<polygon fill="black" stroke="black" points="1115.21,-696.928 1107.17,-690.025 1109.15,-700.434 1115.21,-696.928"/>
</g>
<!-- 10.254.88.66&#45;&gt;10.254.88.66 -->
<g id="edge42" class="edge"><title>10.254.88.66&#45;&gt;10.254.88.66</title>
<path fill="none" stroke="black" stroke-width="0.0666667" d="M1164.77,-1100.12C1178.14,-1099.31 1187.52,-1097.19 1187.52,-1093.74 1187.52,-1091.24 1182.57,-1089.43 1174.73,-1088.32"/>
<polygon fill="black" stroke="black" points="1175.06,-1084.84 1164.77,-1087.36 1174.39,-1091.8 1175.06,-1084.84"/>
</g>
<!-- 10.254.88.63&#45;&gt;10.254.88.1 -->
<g id="edge6" class="edge"><title>10.254.88.63&#45;&gt;10.254.88.1</title>
<path fill="none" stroke="black" stroke-width="0.0333333" d="M1030.15,-907.943C1042,-863.712 1071.75,-752.679 1085.85,-700.074"/>
<polygon fill="black" stroke="black" points="1089.24,-700.934 1088.45,-690.369 1082.48,-699.122 1089.24,-700.934"/>
</g>
<!-- 10.254.88.63&#45;&gt;0.0.0.0 -->
<g id="edge136" class="edge"><title>10.254.88.63&#45;&gt;0.0.0.0</title>
<path fill="none" stroke="black" stroke-width="0.0666667" d="M1014.42,-908.162C955.329,-805.817 669.127,-310.101 598.849,-188.376"/>
<polygon fill="black" stroke="black" points="601.835,-186.547 593.804,-179.637 595.773,-190.047 601.835,-186.547"/>
</g>
<!-- 10.254.88.63&#45;&gt;10.254.88.63 -->
<g id="edge28" class="edge"><title>10.254.88.63&#45;&gt;10.254.88.63</title>
<path fill="none" stroke="black" stroke-width="0.0666667" d="M1098.37,-933.082C1111.74,-932.274 1121.12,-930.148 1121.12,-926.702 1121.12,-924.199 1116.17,-922.392 1108.33,-921.281"/>
<polygon fill="black" stroke="black" points="1108.66,-917.797 1098.37,-920.323 1107.99,-924.765 1108.66,-917.797"/>
</g>
<!-- 10.254.88.60&#45;&gt;10.254.88.1 -->
<g id="edge64" class="edge"><title>10.254.88.60&#45;&gt;10.254.88.1</title>
<path fill="none" stroke="black" stroke-width="0.0333333" d="M926.386,-1222.78C957.55,-1139.68 1062.17,-800.737 1087.99,-699.962"/>
<polygon fill="black" stroke="black" points="1091.4,-700.729 1090.43,-690.18 1084.61,-699.036 1091.4,-700.729"/>
</g>
<!-- 10.254.88.60&#45;&gt;10.254.88.60 -->
<g id="edge90" class="edge"><title>10.254.88.60&#45;&gt;10.254.88.60</title>
<path fill="none" stroke="black" stroke-width="0.0666667" d="M991.159,-1247.66C1004.53,-1246.86 1013.91,-1244.73 1013.91,-1241.28 1013.91,-1238.78 1008.96,-1236.97 1001.12,-1235.86"/>
<polygon fill="black" stroke="black" points="1001.45,-1232.38 991.159,-1234.9 1000.78,-1239.35 1001.45,-1232.38"/>
</g>
<!-- 10.254.88.22&#45;&gt;10.254.88.1 -->
<g id="edge50" class="edge"><title>10.254.88.22&#45;&gt;10.254.88.1</title>
<path fill="none" stroke="black" stroke-width="0.0333333" d="M718.531,-1302.59C779.684,-1211.22 1021.02,-808.449 1080.36,-699.057"/>
<polygon fill="black" stroke="black" points="1083.59,-700.438 1085.23,-689.97 1077.42,-697.134 1083.59,-700.438"/>
</g>
</g>
</svg>
